/* XPM */
static char *f86020202c6a4bc3ee1c0a2b6dc1488axBAEh9Vud138ckdX[] = {
/* columns rows colors chars-per-pixel */
"64 64 81 1 ",
"  c black",
". c #010000",
"X c #000100",
"o c #010101",
"O c #000201",
"+ c #000002",
"@ c #410000",
"# c #410101",
"$ c #420100",
"% c #420001",
"& c #420002",
"* c #450000",
"= c #450100",
"- c #440001",
"; c #450001",
": c #460000",
"> c #470000",
", c #470101",
"< c #460002",
"1 c #480001",
"2 c #9F0000",
"3 c #A00000",
"4 c #A10000",
"5 c #A00100",
"6 c #A10101",
"7 c #A20000",
"8 c #A30000",
"9 c #A30001",
"0 c #A20002",
"q c #FD2727",
"w c #FE2627",
"e c #FE2826",
"r c #FF2927",
"t c #FF2728",
"y c #FF272A",
"u c #FD2928",
"i c #FE2828",
"p c #FF2929",
"a c #FD282A",
"s c #FE282A",
"d c #A7E61B",
"f c #A6E61D",
"g c #A7E61D",
"h c #A7E51E",
"j c #A7E71E",
"k c #A7E71F",
"l c #A8E51D",
"z c #A9E61C",
"x c #A8E71C",
"c c #AAE71D",
"v c #A9E61E",
"b c #A8E71E",
"n c #A8E61F",
"m c #A9E61F",
"M c #AAE71F",
"N c #A7E81C",
"B c #A9E81D",
"V c #A8E91D",
"C c #A8E81F",
"Z c #A9E81F",
"A c #9BCB29",
"S c #9CCA29",
"D c #9CCA2A",
"F c #9DCB2A",
"G c #9DCB2B",
"H c #9ACD2A",
"J c #9CCC28",
"K c #9CCC2A",
"L c #9CCC2B",
"P c #9DCD2B",
"I c #A9E720",
"U c #FF8B8C",
"Y c #FE8C8C",
"T c #FF8D8C",
"R c #FF8C8D",
"E c #FF8D8D",
"W c #FE8E8C",
"Q c #FF8E8D",
"! c #FF8C8F",
"~ c #FE8D8F",
"^ c #FF8E8E",
/* pixels */
"bbbbbbbbbbbjjbbbbbbbbbbbbZbbbbbbbbbbbbbbbbbbbbbbbbbbbbbbbbbbbbbb",
"bbbbbbbbbbbbbbbbbbbbbbbbbbbbbbbZbbbbbbbbbbbbbbZjbbbbbbbbbbbbbbbb",
"bbbbbbbbbbbbbbbbbbbbbbbbZbbbbbbbbbbbbbbbbbbbbbbbbbbbbbbbbbbbbbbb",
"bbbbbbbbIbbbbbbbbbbbbbbbbbbbbbbbbbbbbbbbbbbbbbbbbbbbbbbbbbbbbbbb",
"bbbbbbbbbKKbbjbbbbbbbbbbbDjbjbbbbbbbbbbbZbKKbbbbbbbbbbbbbbbbbbbb",
"bbbbbbbbbKZjbbbbbbbbbbbbbKbbZbbbbbbbbbbbbZKbbbbbbbbbbbbbbbbbbbbb",
"bbbbbbbbKDbbZbbZbbbbbbbbZKKbbbbjbbbbbbbbbbKbbbbbbbbbbbbbbbbbbbbb",
"bbbbbbbbKbbbbbbbbbbbbbbbbbDKbbbZbbbbbbbbZKKbjjbbbbbbbbbbbbbbbbbb",
"bbbbbbbbbDbbbZbjbbbbbbbbbbbKbbbbbbbbbjbZbDbbbZbjbjbbbbDbbbbbbbbb",
"bbbbbbbbbbbbZbbbbbbbbbbbZbbbbb  bbbbbbbbbbbbZbbbbbbbjbbDbbbbbbbb",
"bbbbbbbbbjbbbbbbbbbbbbbbbbbbb @W bbbbbbbbjbbbbbbbbbbbbjbbbbbbbbb",
"bbbbbbbbbZbbbNZbbbbbbbbbbbjbb @W bbbjbbbbZbbbNZbbbbbbbjbbbbbbbbb",
"bbbbbbbbbbbjbbbbbbbbbbbbbbbb *@WW bbbbbbbbbjbbbbbbbbbbbbbbbbbbbb",
"bbbbbbbbbbbbbbbbbbbbbbbbjbbb *@Wq bbbbbbbbbbbbbbbbZbbbbbbbbbbbbb",
"bbbbbbbbbbjbbbbbbbbbbbbbbbb 7*@Wii bbbbbbbjbbbbbbbbbbbbjbbbbbbbb",
"bbbbbbbbbbbbbbbbbbbbbbbbbbb 7*@W7q bbbbbbbbbbbbbbbbbbbbbbbbbbbbb",
"bbbbbbbbbbbKbbbbbbbbbbbbbb 77*@W7iW bbbbZjbbbbZbbbbbbbbbbbbbbbbb",
"bbbbbbbbbbbKbbbbbbbbbbbbjb 77*@i7ii bbbbbbbbjbbbbbbjbbbbbbbbbbbb",
"bbbbbbbbbjbKKbbbZbbZbbbbb 777**i77tW bbbbbbbZbbbbbbbbbbbbbbbbbbb",
"bbbbbbbbbbbbKKbbbbbbZbbbb 777*@i77WW bbbbbbbbbbbbjbbbbbbbbbbbbbb",
"bbbbbbbbbbbbbbbbbbbbbbbj 7777*@i777WW bbbbbbbbbbZbbbNbbZbbbbbbbb",
"bbbbbbbbbZbbbbbbbbbjbbbb 7r77*@iW77WW bKbjZbbbbbbbbbbbbjbbbbbbbb",
"bbbbbbbbbbbbbbZbbbbjbbb 77i77*@iW77WWU KHbbbbbbbbbbbbbZbbbbbbbbb",
"bbbbbbbbbbjbbbbbbbbbbjb 7ii77*@iW777WW bDbbbbbbbbbbbZjbDbbbbbbbb",
"bbbbbbbbbbbZbbjbbbbbbb 77iri7*@WW777WWW DKbbbbbbbbbbbbbDbbbbZbbb",
"bbbbbbbbbbbbbbbbbbjbbb 77qii7*@WW77WWWW bKbbbbbbbbbbbbbHKbbbbbjb",
"bbbbbbbbbbbbjbbbbbbbb 7i7iii7*@WWW7WWWWW bbbbbbbbbbbbZjbDbbbjbbb",
"bbbbbbbbbbbbbbbbbbbbb 7iiiii7*@WWW7WWW7W bbbbbbbbbbbbbbbKbbbbbbb",
"bbbbbbbbbbDbbjbbbbbb 77iiiii71@WWWWWW777W jbbbbbbbbbbbbbjjbbbbbj",
"bbbbbbbbjbKbbbjbbbbb iiiiiii7**WW7W77777W bbbbbbbbbZbbbbbbjbbbjb",
"bbbbbbbbbbbDbjbbbbb iiriiiir7**WW777777W7W bbbbbbbbjbbbbjbbbbbbb",
"bbbbbbbbbbbDDbbbbbb@iiqiiii***@W777777777W ZbZbbbZbbbbjZbbbbjbbb",
"bbbbbbbbbbbbKDZbbbb@tqiiit7****W777777777W bbbjbbbbbbbbbbbbbbbbb",
"bbbbbbbbbbbbbKbbbbb@iiti****@777**@@@WWWWW bbbjbbbbbjbbbbbbbbbbb",
"bbbbbbbbZbbbbbKbbbb@ri77iiii777i7*****77*7 bbbbbbbbbbbbbbbbbbbbb",
"bbbbbbbbbbbbbjKbbbjj i7riii777@i7******7* bbbbKbbbbbbbjbbbbbbbbb",
"bbbbbbbbbbbbbjjbbbbb 77iiii777@r7******77 bbbbKbZbbNbbbZbbbbbbbb",
"bbbbbbbbjbbbjbZjbbbbb 77ii7777@i7******* ZbbbbAKjbbbbbbbbbbbbbbb",
"bbbbbbbbbbbbbbbbbjbjb 77ii7777@i7******* bbbbbbAbZbbbbbbbbbbbbbb",
"bbbbbbbbZbbbbbdbbbjbbb ii7777i@i7****** bbbbbbbKDbjZbbbbbbbbbbbb",
"Zbbbbbbbbbbbbbbbbbjbbb ii77i7t@t7***7** bbbbbbbbbbbbbbbbbbbbbbbb",
"Zbjjbbbbbbbbbbbbbbbbbb 7777i7i@i7***7** bbbbbbbbbbbbbbbbbbbbbbbb",
"bbbbbbbbbbbbbbbbbbbbbbb 77i77i@i7***7* bbbbbbbbbbbbbbbbbbbbbbbbb",
"bbbbKbbbbbbbbbbbbbbbbbb 77i77i@i7***7* bbbbbbbbbbbbbbbbbbbbbbbbb",
"bbbbAbZbbbbbbbbbbbbjbbbb 2i7ii@i7***7 jbbbbbbbbbbbbbbbbbbbbbbbbb",
"bbbbbHbZbbbbbbbbbbbbjbbb i77ii@i7***7 bbbbbbbbbbbbbbbbbbbbbbbbbb",
"jbZbbKbbbbbbbbbbbbbbbbbbb 77ii@W7**7 bbZbbbbbbbbbbbbbbbbbbbbbbbb",
"bbbbbDbbbbbbbbbbbbbbbbbbb 7iii@W7*77 bbbbbbbbbbbbbbbbbbbbbbbbbbb",
"bbjbbAbbbbbbbbbbbbbbbbbbbb iri@W777 bbbbbbbbbbbbbbbbbjbjbbbbbbbb",
"bbbbjDbbbbbbbZbbbbbbbbbbbb iii*W777 bbbjbbbbbbbbbbbbbbbbbbbbbbbb",
"bbbbbHbjbbjbbjbbbbbbbbbbbbb ii@W77 KbbIjbbbbbbbbbbbbbbbbbbbbbbbb",
"jbbbbbbbZbbbbKbbbbbbbbbbbjb ii@W77 Kbbbbbbbbbbbbjbbbjjbbbbbbbbbb",
"bbjbbbjbbjbbbKKbbbbbbbbbbZbb i@W7 KKbbbbbbbbbbbbbbbbbbbbbbbbbbbb",
"bbbbbbZbbjbbbbKbbbbbbbbbbbbb i@W7 bbbbbZbbbbbbbbbbbbbbbbbbbbbbbb",
"bjbbbbZbbbbjbbKbbbbbbbbbbbbbb 7W bbbbbbbbbbbbbbbbjZKDbbbbbbbbbbb",
"bbbbbbbbZbbbjbKZbbbbbbbbbbbjZb  bIbjbbbbbbbbbbbbZbZZKbjjbbbbbbbb",
"bbbbbbbbbbbbbbDbbbbbbbbbbbbbbbbbbbbbbbbbbbbbbbbbbbbbDbZbbbbbbbbb",
"bbbbbbbbbbbbbbHbbbbbbbbbbbbbbbbbbbbbbbbbbbbbbbbbbbbbbKbbbbbbbbbb",
"bbbbbbbbZbbjbbbbbbbbbbbbbbbbbbbbbbbbbbbbbbbbbbbbbbbbbKbbbbbbbbbb",
"bbbbbbbbbbbbbbbbbbbbbbbbbbbbbbbbbbbbbbbbbbbbbbbbbbZbbAjbbbbbbbbb",
"bbbbbbbbbbbbbbbbbbbbbbbbbbbbbbbbbbbbbbbbbbbbbbbbZbbbbbbbbbbbbbbb",
"bbbbbbbbbbbbbZbbbbbbbbbbbbbbbbbbbbbbbbbbbbbbbbbbbjbbbbbjbbbbbbbb",
"bbbbbbbbbbbbbjbbbbbbbbbbbbbbbbbbbbbbbbbbbbbbbbbbbbbbbbbbbbbbbbbb",
"bbbbbbbbbbbjZbZbbbbbbbbbbbbbbbbbbbbbbbbbbbbbbbbbbbjbbbbbbbbbbbbb"
};
