/* XPM */
static char *a8134fd9c8324643aa907decc0d9fc7e0DxOYPCAkOv0lEvp[] = {
/* columns rows colors chars-per-pixel */
"64 60 191 2 ",
"   c #2E1A07",
".  c #2D1A09",
"X  c #321C07",
"o  c #381F07",
"O  c #311D09",
"+  c #2D1F11",
"@  c #3C2106",
"#  c #33200E",
"$  c #3C230A",
"%  c #2E2114",
"&  c #2F2318",
"*  c #322314",
"=  c #392613",
"-  c #32261A",
";  c #35291D",
":  c #3A2B1B",
">  c #3E2812",
",  c #342B23",
"<  c #392F24",
"1  c #352F29",
"2  c #3C3025",
"3  c #36312C",
"4  c #3B332B",
"5  c #3C3631",
"6  c #3E3934",
"7  c #442505",
"8  c #492704",
"9  c #472807",
"0  c #4D2903",
"q  c #42270A",
"w  c #46290B",
"e  c #4C2D0C",
"r  c #542D03",
"t  c #582F04",
"y  c #522F0A",
"u  c #573006",
"i  c #593105",
"p  c #52300D",
"a  c #5C340A",
"s  c #432B12",
"d  c #482F15",
"f  c #4B351D",
"g  c #4C3013",
"h  c #543412",
"j  c #593611",
"k  c #5E3912",
"l  c #5B3C1B",
"z  c #61360A",
"x  c #63390D",
"c  c #693D0E",
"v  c #613B13",
"b  c #6B3F11",
"n  c #413325",
"m  c #42362B",
"M  c #43382D",
"N  c #493A2A",
"B  c #523C24",
"V  c #433C34",
"C  c #483F36",
"Z  c #433E39",
"A  c #6D4216",
"S  c #6C441A",
"D  c #744616",
"F  c #774817",
"G  c #7B4A18",
"H  c #744618",
"J  c #5B452D",
"K  c #564029",
"L  c #474037",
"P  c #494036",
"I  c #46413B",
"U  c #4A443D",
"Y  c #5A4632",
"T  c #5F4830",
"R  c #51483D",
"E  c #594B3D",
"W  c #504437",
"Q  c #614120",
"!  c #694723",
"~  c #6E4821",
"^  c #6B4B2A",
"/  c #734A20",
"(  c #6A4E32",
")  c #654B31",
"_  c #6B533A",
"`  c #6C5237",
"'  c #725333",
"]  c #4B4641",
"[  c #4E4A44",
"{  c #514C46",
"}  c #534F49",
"|  c #56514B",
" . c #59544E",
".. c #5B5751",
"X. c #5D5953",
"o. c #6B5946",
"O. c #6A5A4A",
"+. c #745D46",
"@. c #715E4A",
"#. c #615C56",
"$. c #635E58",
"%. c #685F55",
"&. c #7C6349",
"*. c #696056",
"=. c #66615B",
"-. c #69645D",
";. c #766657",
":. c #6C6761",
">. c #6E6963",
",. c #716C66",
"<. c #746F69",
"1. c #7A6E63",
"2. c #76716C",
"3. c #7A746D",
"4. c #7B7671",
"5. c #7E7973",
"6. c #837D76",
"7. c #837E79",
"8. c #86827E",
"9. c #88817A",
"0. c #8A8681",
"q. c #8D8984",
"w. c #878380",
"e. c #918B86",
"r. c #928E8A",
"t. c #95918C",
"y. c #9A948E",
"u. c #9A9590",
"i. c #9D9996",
"p. c #9F9C99",
"a. c #979491",
"s. c #A29E9A",
"d. c #A09B97",
"f. c #A5A29D",
"g. c #A7A4A1",
"h. c #ACA7A1",
"j. c #ACA9A6",
"k. c #AFABA8",
"l. c #B1AEAB",
"z. c #B5B1AE",
"x. c #B8B3AE",
"c. c #B7B5B2",
"v. c #B9B6B2",
"b. c #BCBAB7",
"n. c #BEBCBA",
"m. c #C0BDBB",
"M. c #C4C1BE",
"N. c #C6C4C2",
"B. c #C9C6C4",
"V. c #CCC9C6",
"C. c #CECCCA",
"Z. c #D1CFCD",
"A. c #D3D1CE",
"S. c #D5D3D1",
"D. c #D9D6D4",
"F. c #DAD8D6",
"G. c #DDDCDA",
"H. c #E0DFDD",
"J. c #E2E0DF",
"K. c #E6E5E5",
"L. c #E4E3E2",
"P. c #E8E7E6",
"I. c #E9E8E7",
"U. c gray93",
"Y. c #EDEDEC",
"T. c #EEEEEE",
"R. c #EFEFEF",
"E. c #EEEEED",
"W. c #EEEEED",
"Q. c #F1F0EF",
"!. c #EFEFF0",
"~. c gray94",
"^. c #F1F1F1",
"/. c #F2F2F2",
"(. c #F4F4F4",
"). c gray96",
"_. c #F6F6F6",
"`. c gray97",
"'. c #F5F5F6",
"]. c #F4F4F4",
"[. c #F8F8F7",
"{. c #F7F7F8",
"}. c #F8F8F8",
"|. c #F9F9F9",
" X c #F8F8F9",
".X c #FBFBFB",
"XX c #FDFDFD",
"oX c gray99",
"OX c white",
"+X c #FEFEFE",
"@X c #FCFCFC",
/* pixels */
"OXOX|.T.T.|.OXOX~.T.`.OXOX`.T.~.OXOX|.T.T.|.OXOXT.m.w.>.>.,.q.i.q.3.$.:.>.>.3.t.b.G.`.OXOX`.T.~.OXOX|.T.T.|.OXOX~.T.`.OXOX`.T.T.",
"OXOX|.T.T.|.OXOX~.T.`.OXOX`.T.T.OXOX|.T.T.|.`.N.q. .[ [ [ [ { V C [ U 4 V  .X.=.-.4.j.T.OX`.T.~.OXOX|.T.T.|.OXOXT.T.`.OXOX`.T.T.",
"|.|.`.`.`.`.|.|.`.].`.|.|.`.`.`.|.|.|.`.K.M.r.| V [ [ [ [ [ | I I [ [ [ C 2 V | ..[ U w.Y.G.D.I.|.|.`.`.`.`.|.|.`.~.`.|.|.`.`.~.",
"T.T.`.OXOX`.T.~.OXOX|.T.T.|.OXOX~.G.j.s.5.$.#.$.{ V [ [ [ [ | 6 I [ [ [ [ [ 4 - 3 , - L 4.,.>.5.p.G.`.OXOX`.T.~.OXOX|.T.T.|.OXOX",
"T.T.`.OXOX`.T.~.OXOX|.T.T.|.OXOX~.u.5 5 X.X.X.$.U 4 [ [ [ [ U 4 ] ] [ } | Z 5 , V , -  .X.X.X...X.q.T.OXOX`.T.~.OXOX|.T.T.|.OXOX",
"|.|.`.`.`.`.|.|.`.`.`.|.|.`.`.G.f. .C < C X.=.#.V - , 6 V V 3 1 3 3 5 I I 5 3 4 5 1 V #.X...X.#.#.X.m.|.`.`.|.|.`.`.`.|.|.`.`.`.",
"OXOX|.T.T.|.OXOX~.T.`.OXOXK.k. ...$.$. .M 6 [ [ 4 O . O * * * O X X O * - - * - 3 1 { $.X.X.X. .X.#.2.n.C.|.OXOX~.T.`.OXOX`.T.T.",
"OXOX|.~.~.`.OX|.~.~.`.OX~.5.V { $.X...X.X.6 5 6 , X X X . . . . . . . . . .   X O ; C | #.X. ...=.#.V I  .C.OX|.~.T.`.OXOX`.~.~.",
"~.T.`.OXOX`.T.~.|.OX|.~.M.{ 2 X.X.X.X. .#.I , , * X . . X @ 8 0 0 0 0 7 w q o . . X # 2 U U { #.X.] < 4 5 7.~.~.OXOX|.~.~.|.OXOX",
"T.T.`.OXOX`.T.~.OXOX|.B.X.< - { $.#.#.X.$.C X X . . o 8 8 r t r r r r 0 u a r 0 @ . . X = 2 V ] U V 3 3 , =.K.~.OXOX|.T.T.|.OXOX",
"`.`.`.|.|.`.`.`.|.|.A...6 V 3 4 { #.$.X.[ < . . @ 0 0 r 0 r t r r r r 0 u a t i r 0 o .   X # 2 6 6 ] [ U M t.~.|.|.`.`.`.`.|.|.",
"OXOX|.T.T.|.OXOX~.T.w.5 6 V 5 , 5 V I Z < . X 8 r r r r 0 r t r r r r 0 u a r i r t 0 @ . . X X * U [ [ [ V 4 r.I.T.`.OXOX`.T.T.",
"OXOX|.T.T.|.OXOX~.~.e.3 4 3 , , ] 3 - * . o 0 r r r r r 0 r t r r r r 0 u a r i r r r 0 @ . . X X C [ [ [ Z 4 I c.~.`.OXOX`.T.T.",
"~.~.`.|.|.`.~.`.|.C.4. .} C - , 6 ; X . X u t r r r r r 0 r r r r r r 0 u z r i r r r 0 u 0 . . X : ] [ [ Z 5 5 7.|.|.~.~.`.|.|.",
"T.T.`.OXOX~.T.~.L.2.X.=.=.X.{ * O X . . 8 a r r r r r r 0 r t r r r r 0 u z r i r r r 0 u i 7 . X X < ] { V 1 1 w.OX|.T.T.|.OXOX",
"~.~.`.OXOX`.~.`.v.#.X.X...{ | < X . . 8 0 a r r r r r r 0 r t r t r r 0 y z r i r r r r u i r @ . X X ; 4 , 3 C <.I.|.~.~.|.OXOX",
"OXOX|.T.T.|.OXOXz.#.$.#.$.{ I 3 X . @ 0 0 z r r r r r r r r r r i r r 0 r z r i r r r r u t r r X . X X ; I X.=.=.p.`.OXOX`.T.T.",
"OXOX|.T.T.|.OXOXN.|  .$.#.[ Z 1 . X 8 r 0 a r r r r r r r r r r i r r 0 r z t i r r r r u i r i 0 . X X n X...$.$.r.`.OXOX`.T.T.",
"|.|.`.`.`.`.|.L.4.2 , 4 V 2 , - . 8 r r 0 a t r r r r r r r r r i r r r 0 z t i r r r r u i r t r o . X N #.$.=.| w.~.|.|.`.`.`.",
"T.T.`.OXOX`.C.4.$. ., V 4 * X . X r r 0 0 a t r r r r r r r r r i r r r 0 a t r r r r r y r r t r 8 .   m $.#.[ V V u.K.T.|.OXOX",
"T.T.`.OXOXY.8.X.X...3 U Z , X . @ i 0 r 0 a t r r r r r r r t r i r r r 0 z t r r r r r r r r i r r o   2 ..| I 6 { $.l.~.|.OXOX",
"|.|.|.~.`.G.:.X.X.] < [ 6 , . . 0 i 0 r 0 a t r r r r r r r r r i r r 0 0 z r r r r r 0 r t r i r r @ . =  ...U 6 X.| a.OX`.~.~.",
"OXOX|.T.T.K.2.X.{ 3 3 U 3 - . o r t 0 r 0 a i r r r r r r r r r t r r r 0 z t r r r r 0 r t r i r r 8 . X U  .U 5 X.} i.OX`.T.T.",
"OXOX|.~.~.|.g.V 3 , , 3 , . . 7 r r 0 r 0 a i r r r r r r r r r t r r 0 0 z t r r r r 0 y i r i r r 0 o   ; Z V , M | V.OX`.~.~.",
"T.~.`.OXOXC.2.[ V - V V % . X r i i r r y x a i r i r r r r r r i r r r 0 x i r r r r r u i r i r r r @ . X 4 I [ , :.T.T.|.OXOX",
"~.L.V.m.S.r.] [ 5 C $. .- + f c c v v c c b b c c c c c c c b b b b b c b A b b b b b b b A b b b c c w . X C ] 6 2 4.I.~.|.OXOX",
"N.r.6.<.h.7.] U 3 X.$.X.; % 3 w r s d r r 0 0 r r r r r r r r r r r r r r r r r r r r r r r r r r r r 0 . X ; < { #.>.C.S.D.Y.|.",
"2.<.>.g.S.7.] 4 2 X.#.X., % 3 * w $ = q w 0 r r r r r r r r r r r r r r r r r r r r r r r r r r r r r 0 . X * U X.X...3.6.7.q.N.",
"X. .g.m.N.t.U 1 2 #.X.X.< * , + . . * * : 0 r r r r r r r r r r r r r r r r r r r r r r r r r r r r r 0 X . * U $.X.{ 4.w.2.=.2.",
",.U -.5.r.#.3 , - | #. .3 - 4 = 0 q $ 8 0 r r i i i a a a a z z z z z a a z z z a a a a z z a i r r r r X X M V U U ] t.y.t.$.} ",
"n.,. .$.7.} % % % ; C U , * < w r s l D D F F F F F G G G G G G G G G G G G G G F F F D D / S A r 0 0 8 . X R | U , 5 :.q.=.} X.",
"~.F.l.,.-.=.< % % - 4 V , . w r 0 y S &.+.S A A A A A A A A A A A A A A A A A A A A A A ' 3.+.A a @ X . . X U ..I % U ,.#.I :.x.",
"OXOXOXi.#.=.I & + 2 | | 4 . 0 i r a ! 2.,.! A A A A A A A A A A A A A A A A A A A A A A ` :.o.S A 0 8 @ .   n ..U V X.=.3.s.C.T.",
"OXOXK.=.$.<.[ I - ; | ..4 . 0 i r u S ` ` S A A A A A A A A A A A A A A A A A A A A A A S ^ S A A r 0 7 . N *.#.{ [ $.$.C.|.!.T.",
"`.|.B.| | ..U  . .- C ..m . 0 i r a A A A A A A A A A A A A A A A A A A A A A A A A A A A A A A S ( @.O.{  .| X...] { [ n.|.`.`.",
"T.!.S.-.$.[ { ] -.} - L : . 0 i t u A A A A A A A A A A A A A A A A A A A A A A A A A A A A A A +.3.,.>.:...#...[ | X.| n.OXOXOX",
"T.T.T.8.3.4...U { -.3 % . . 0 i t r v v k k k k k k j j j j j j j j j j j k k j j j j j j j j j Y ..$.{ { } [  .,.5.=.4.K.|.OXOX",
"|.|.|.n.:.6... .[ | U - + . 0 i r r a k j k j k k k k k k k k k k v v v v v v v v v k k k k k a T  ...{ [  .#.:.>.:.,.7.T.`.~.~.",
"OXOX|.Y.t.=.>. ...-.2.3. .3 w i r r a k k k k k k k k k k k k k k k v v v v v v v v v v v k k k _ {  .| [ }  .#.,.5.:.#.V.`.T.T.",
"|.|.|.~.P.8...X.} |  .=.5.,.h u r r a k k k k k k k k k v v v v v v v v v v v v v k k k k k k j J U U } { { }  .| U U ..l.|.~.~.",
"T.T.`.OXOXN.} { { U }  . .:.*.;.;.l a k k k k k k j j j j j j j j j j j j j j j j j j j j a a j l E I { C 2 2 I 4 4  .X.l.OXOXOX",
"T.T.`.OXOXC.#.} [ ] ] { } | -.#.>.E k ^ ( v v v v v v v v v v v v b b b v b b b b b A A S ' ~ A k B f s . X m U < V $.} c.OXOXOX",
"`.`.`.`.|.S.-.| I ] ..[ | #.| ..#.:.) 1.3.^ A A A A A A D A A A A A A A A A A A A A A A _ 6.@.A v u r 8 . X L } Z ; 4 V N.|.`.`.",
"OXOX|.T.T.I.,.V 2 U [ I X.9.} { Y K Q o.O.! A A A A A A A A A A A A A A A A A A A A A A ( #._ A A i r 8 . X 2 5 , , 3 { H.`.T.T.",
"OXOX|.T.T.|.s., , V V C U <.,.} J a v S ~ S A A A A A A A A A A A S A A A A A A A A A A S ~ ~ S A x a 0 . X , V V 2 [ | S.`.T.T.",
"~.~.`.OXOX~.t. .M ; C [ Z ] X...B p f A / ~ A A A A A A A A A A D A S A A A A A A A A A A S ^ S A c c u . X m #.#.V Z } Z.|.OXOX",
"T.T.`.OXOXP.4.$. .U =.#.[ 4 U } W d = g j a a a a a z z x x x x x x x x x x x x x z a a a a a a a r r 8 . X R -.#.[ , V B.oXOXOX",
"~.~.`.|.OXG.>.#.| X.#.X.} , 3 M I ; % ; ; w r r r r r r r r r r r r r r r r r r r r r r r r r r r r r 0 . #  .-.X.| 4 V A.|.|.|.",
"OXOX|.T.~.S.>.$.U | X...{ , 3 - q w # $ 7 0 r r r r r t t t t r r r r r r r r r r r r r r r r r t t i 0 . #  .:.#.X.Z | K.`.T.T.",
"OXOX|.T.T.L.:.I , 2  .#.] , 3 > r 9 : r r r r r r r r r r r r r r r r r r r r r r r r r r r r r r r r 0 . X V } X.X.V } I.`.T.T.",
"`.`.`.`.{.`.r.|  .U V Z 6 - * 0 r 0 $ 7 8 r 0 8 7 @ @ o @ 0 0 0 0 8 @ @ o @ r 0 8 7 7 @ @ 8 0 8 7 7 @ o . X - 3 4 2 < | v.`.|.`.",
"T.T.`.OXOXK.5.$.=.$. .[ 5 , X 0 i r r r r a i r r 0 8 7 8 r r r i r 0 0 8 8 t t r r r 0 0 r r r r r r 7 . X - ] [ { | X.,.I.OXOX",
"T.T.`.OXOXC.$. .X... .X.{ 4 # 0 i r r r r a i t r r r 0 r r r r i r r r r 8 r t r r r 0 0 r r r r r r 7 . X P #.X.#.#.=.=.L.OXOX",
"OXOX|.~.].C.=.X.X.X. .#.} 6 + 8 t r r r r i i t r r r 0 r r r r i r r r r 8 r r r r r 0 0 r r r r r r 7 . #  .=.=.:.-...#.L.~.~.",
"OXOX|.T.T.L.2.#.$.#.X.#.[ 5 : h j h p p p j j j h p e e e e p y p p e e e s h p y y e e w e p p e y e s - 2  .$.#. .{ U 2.J.T.T.",
"|.|.|.~.~.`.z.#.......{ ] | -.>.-.-.-.-.-.-.-.-.-.-.-.#.#.#.#.#.#.#.#.#.#.#.#.#.#.#.#.#.#.#.#.#.#.#.#.#.-.-...X. .{ | ,.v.~.~.~.",
"T.T.`.OXOX`.P.b.j.f.s.i.=. .#.$.=.=.=.-.-.-.-.-.$.#.#.#.#.#.#.#.#.$.=.-.:.>.>.>.:.:.:.-.-.-.=.=.=.=.$.#.X.....4.e.x.x.M.I.|.OXOX",
"T.T.`.OXOX`.T.~.OXOX|.T.d.3.6.6.6.y.h.x.v.x.l.j.s.5.X.[ [ [ [ ] { | |  . .| { [ { } } { { ..,.8.q.q.q.3.=...X.7.y.J.T.L.T.|.OXOX",
"|.|.`.`.`.`.|.|.`.`.`.[.~.Y.I.P.Q.|.|.`.`.`.`.I.F.C.C.N.C.N.m.M.D.H.G.G.D.C.v.f.h.v.V.A.V.D.I.].|.I.F.C.B.G.J.A.V.I.`.|.|.`.`.`.",
"OXOX|.T.T.|.OXOX~.T.`.OXOX`.T.~.OXOX|.L.L.T.I.H.A.D.~.OXOX`.~.~.OXOXK.I.I.L.L.K.G.D.I.OXOX`.T.~.OXOX~.K.P.|.OX`.T.T.`.OXOX`.T.T."
};
