/* XPM */
static char *_3c9d3af7d6a4205f26d9bf65dc08047QqclglFFuS5XLjAJ[] = {
/* columns rows colors chars-per-pixel */
"64 64 109 2 ",
"   c gray2",
".  c #050706",
"X  c #060606",
"o  c #070707",
"O  c #0B061A",
"+  c #0D0618",
"@  c #0E0719",
"#  c #0D051A",
"$  c #0C071B",
"%  c #0E061B",
"&  c #0F061B",
"*  c #0D051C",
"=  c #0E041C",
"-  c #0F071C",
";  c #0E061D",
":  c #131112",
">  c gray7",
",  c #131313",
"<  c #121413",
"1  c #131315",
"2  c #1B1B19",
"3  c gray10",
"4  c #1B1B1B",
"5  c #1C1A1B",
"6  c #1A1C1B",
"7  c #1C1C1A",
"8  c #1B1B1D",
"9  c gray11",
"0  c #191A2F",
"q  c #181830",
"w  c #191931",
"e  c #1B1931",
"r  c #181A31",
"t  c #191933",
"y  c #1A1A32",
"u  c #272725",
"i  c gray15",
"p  c #272727",
"a  c #282627",
"s  c #262827",
"d  c #272729",
"f  c #282629",
"g  c #282828",
"h  c #3C3C3C",
"j  c gray24",
"k  c #3E3E3E",
"l  c #292E4C",
"z  c #2A2F4C",
"x  c #2B2E4D",
"c  c #2A2F4D",
"v  c #292F4F",
"b  c #2A2F4F",
"n  c #2B3050",
"m  c #424C6F",
"M  c #8A4734",
"N  c #8A4935",
"B  c #894836",
"V  c #8B4837",
"C  c #8A4937",
"Z  c #8B4A36",
"A  c #8A4838",
"S  c #8B4939",
"D  c #8B4A38",
"F  c #BF6F4A",
"G  c #C16F4A",
"H  c #C0704B",
"J  c #A7E61B",
"K  c #A6E61D",
"L  c #A7E61D",
"P  c #A7E51E",
"I  c #A7E71E",
"U  c #A7E71F",
"Y  c #A8E51D",
"T  c #A9E61C",
"R  c #A8E71C",
"E  c #AAE71D",
"W  c #A9E61E",
"Q  c #A8E71E",
"!  c #A8E61F",
"~  c #A9E61F",
"^  c #AAE71F",
"/  c #A7E81C",
"(  c #A9E81D",
")  c #A8E91D",
"_  c #A8E81F",
"`  c #A9E81F",
"'  c #9BCB29",
"]  c #9CCA2A",
"[  c #9DCB2A",
"{  c #9DCB2B",
"}  c #9ACD2A",
"|  c #9CCC28",
" . c #9CCC2A",
".. c #9CCC2B",
"X. c #9DCD2B",
"o. c #A9E720",
"O. c #919FB9",
"+. c #92A0BA",
"@. c #92A0BB",
"#. c #C7CFDA",
"$. c #C7CFDC",
"%. c #C7CEDE",
"&. c #C6CFDE",
"*. c #C8CEDC",
"=. c #C8CFDF",
"-. c #C6D0DC",
";. c #C7D1DD",
":. c #C8D0DD",
">. c white",
/* pixels */
"Q Q Q Q Q Q Q Q Q Q Q I I Q Q Q Q Q Q Q Q Q Q Q Q ` Q Q Q Q Q Q Q Q Q Q Q Q Q Q Q Q Q Q Q Q Q Q Q Q Q Q Q Q Q Q Q Q Q Q Q Q Q Q ",
"Q Q Q Q Q Q Q Q Q Q Q Q Q Q Q Q Q Q Q Q Q Q Q Q Q Q Q Q Q Q Q ` Q Q Q Q Q Q Q Q Q Q Q Q Q Q ` I Q Q Q Q Q Q Q Q Q Q Q Q Q Q Q Q ",
"Q Q Q Q Q Q Q Q Q Q Q Q Q Q Q Q Q Q Q Q Q Q Q Q ` Q Q Q Q Q Q Q Q Q Q Q Q Q Q Q Q Q Q Q Q Q Q Q Q Q Q Q Q Q Q Q Q Q Q Q Q Q Q Q ",
"Q Q Q Q Q Q Q Q o.Q Q Q Q Q Q Q Q Q Q Q Q Q Q Q Q Q Q Q Q Q Q Q Q Q Q Q Q Q Q Q Q Q Q Q Q Q Q Q Q Q Q Q Q Q Q Q Q Q Q Q Q Q Q Q ",
"Q Q Q Q Q Q Q Q Q  . .Q Q I Q Q Q Q Q Q Q Q Q Q Q ] I Q I Q Q Q Q Q Q Q Q Q Q Q ` Q  . .Q Q Q Q Q Q Q Q Q Q Q Q Q Q Q Q Q Q Q Q ",
"Q Q Q Q Q Q Q Q Q  .` I Q Q Q Q Q Q Q Q Q Q Q Q Q  .Q Q ` Q Q Q Q Q Q Q Q Q Q Q Q `  .Q Q Q Q Q Q Q Q Q Q Q Q Q Q Q Q Q Q Q Q Q ",
"Q Q Q Q Q Q Q Q  .] Q Q ` Q Q ` Q Q Q Q Q Q Q Q `  . .Q Q Q Q I Q Q Q Q Q Q Q Q Q Q  .Q Q Q Q Q Q Q Q Q Q Q Q Q Q Q Q Q Q Q Q Q ",
"Q Q Q Q Q Q Q Q  .Q Q Q Q Q Q Q Q Q Q Q Q Q Q Q Q Q ]  .Q Q Q ` Q Q Q Q Q Q Q Q `  . .Q I I Q Q Q Q Q Q Q Q Q Q Q Q Q Q Q Q Q Q ",
"Q Q Q Q Q Q Q Q Q ] Q Q Q ` Q I Q ` Q Q Q Q Q Q Q I I  .Q Q Q Q Q Q Q Q Q Q Q Q Q ] Q Q Q ` Q I Q I Q Q Q Q ] Q Q Q Q Q Q Q Q Q ",
"Q Q Q Q Q Q Q Q Q Q Q Q ` Q Q Q Q Q Q Q Q Q Q I Q Q I Q Q Q Q Q Q Q Q Q Q Q Q Q Q Q Q Q ` Q Q Q Q Q Q Q I Q Q ] Q Q Q Q Q Q Q Q ",
"Q Q Q Q Q Q Q Q Q I Q Q Q Q Q Q Q Q Q Q J Q Q Q Q Q Q Q Q I Q Q Q Q Q Q Q Q Q I Q I Q Q Q Q Q Q Q Q Q Q Q Q I Q Q Q Q Q Q Q Q Q ",
"Q Q Q Q Q Q Q Q Q ` Q Q Q / ` Q Q ` Q Q Q Q Q Q Q Q Q Q Q Q Q Q Q Q Q Q Q Q ` Q Q ` Q Q Q / ` Q Q Q Q Q Q Q I Q Q Q Q Q Q Q Q Q ",
"Q Q Q Q Q Q Q Q Q Q Q I Q Q Q Q Q Q Q Q Q Q I Q Q Q ; % % % % % % I Q Q Q Q Q Q Q Q Q I Q Q Q Q Q Q Q Q Q Q Q Q Q Q Q Q Q Q Q Q ",
"Q Q Q Q Q Q Q Q Q Q Q Q Q Q Q Q Q Q Q Q Q Q Q Q ; % p p p p p d p % % Q I ` Q Q Q Q Q Q Q Q Q Q Q Q ` Q Q Q Q Q Q Q Q Q Q Q Q Q ",
"Q Q Q Q Q Q Q Q Q Q I Q Q Q Q Q Q Q Q I Q Q ; ; d p p p p p p p p p p % % Q Q ` Q Q I Q Q Q Q Q Q Q Q Q Q Q Q I Q Q Q Q Q Q Q Q ",
"Q Q Q Q Q Q Q Q Q Q Q Q Q Q Q Q Q Q Q Q Q % p d p p d p p p p p p p p p p % ` Q Q Q Q Q Q Q Q Q Q Q Q Q Q Q Q Q Q Q Q Q Q Q Q Q ",
"Q Q Q Q Q Q Q Q Q Q Q  .Q Q Q Q Q Q ` Q % p p d p p p p p p p p p j j j p p % ` Q I Q Q Q Q Q Q Q Q Q Q Q Q Q Q Q Q Q Q Q Q Q Q ",
"Q Q Q Q Q Q Q Q Q Q Q  .Q Q Q Q Q Q Q % p p p p p p p p p p p p j j j j j p p % ` Q Q Q Q Q Q Q Q Q Q I Q Q Q Q Q Q Q Q Q Q Q Q ",
"Q Q Q Q Q Q Q Q Q I Q  . .Q Q Q Q Q % p p p p p p p p p p p p p p j j j j p p p % Q Q Q Q Q Q Q Q Q Q Q Q Q Q Q Q Q Q Q Q Q Q Q ",
"Q Q Q Q Q Q Q Q Q Q Q Q  . .Q Q Q Q % p p p p p p p p p p p p p p s p j j p p p % Q Q I Q Q Q Q Q I Q Q Q Q Q Q Q Q Q Q Q Q Q Q ",
"Q Q Q Q Q Q Q Q Q Q Q Q Q Q Q Q Q % p p p g p p p p p p p p p p p p p d p g p p p % Q Q Q Q Q Q ` Q Q Q / Q Q ` Q Q Q Q Q Q Q Q ",
"Q Q Q Q Q Q Q Q Q ` Q Q Q Q Q Q ` % p d p p p p p p p p p p p p p p f p g j j p d % Q Q Q Q Q Q Q Q Q Q Q Q Q I Q Q Q Q Q Q Q Q ",
"Q Q Q Q Q Q Q Q Q Q Q Q Q Q ` Q % p p p g p p p p p p p p p p p p s p p s j j j p p % Q Q Q ` Q Q Q Q Q Q Q ` Q Q Q Q Q Q Q Q Q ",
"Q Q Q Q Q Q Q Q Q Q I Q Q Q Q Q % 4 p s p g p a p p p p p p p p p p p p p p j p p p % Q Q Q ` Q Q Q Q Q ` I Q ] Q Q Q Q Q Q Q Q ",
"Q Q Q Q Q Q Q Q Q Q Q ` Q Q I Q % 6 9 p p p d p p p p p p p p p p p p p p p p p g 4 % Q Q Q Q Q Q Q Q Q Q Q Q  .Q Q Q Q ` Q Q Q ",
"Q Q Q Q Q Q Q Q Q Q Q Q Q Q Q Q % 4 4 4 p p p p p p g p p p p p p p p p p p p p 7 4 % Q Q I Q Q Q Q Q Q Q Q Q  . .Q Q Q Q Q I Q ",
"Q Q Q Q Q Q Q Q Q Q Q Q I Q Q Q % 4 4 4 9 p a p p p p p p p p p p p p p p p p 4 4 4 % Q Q Q Q Q I Q Q ` Q ` Q Q ] Q Q Q I Q Q Q ",
"Q Q Q Q Q Q Q Q Q Q Q Q Q Q Q Q % 4 4 4 4 X X X X X p p p p p p p X X X X X 4 4 4 4 % Q Q Q Q Q Q Q Q Q Q % ` Q  .Q Q Q Q Q Q Q ",
"Q Q Q Q Q Q Q Q Q Q ] Q Q I Q Q % 4 4 4 X >.>.>.>.>.p p p p p p p >.>.>.>.>.X 4 4 6 % Q Q I Q I Q Q Q ` % t % Q I I Q Q Q Q Q I ",
"Q Q Q Q Q Q Q Q I Q  .Q Q Q I Q Q % 4 4 4 >.X X X >.p p p p g p p >.X X X >.4 4 4 % Q Q I Q Q Q Q Q Q % t t % Q Q Q I Q Q Q I Q ",
"Q Q Q Q Q Q Q Q Q Q Q ] Q I Q Q Q % 6 4 4 >.X X X >.4 4 4 4 4 4 4 >.X X X >.4 4 4 ; Q Q Q Q Q Q Q Q % t t t % Q I Q Q Q Q Q Q Q ",
"Q Q Q Q Q Q Q Q Q Q Q ] ] Q Q Q Q Q % 4 5 4 X X X 4 4 4 4 4 4 4 4 4 X X X 4 4 4 t % Q Q Q Q I Q Q ; % t 0 t % ` Q Q Q Q I Q Q Q ",
"Q Q Q Q Q Q Q Q Q Q Q Q  .] ` Q Q Q % 4 4 4 4 4 4 4 4 4 4 4 4 4 4 4 4 4 4 4 4 4 t t % Q Q Q Q Q % t t t t % Q Q Q Q Q Q Q Q Q Q ",
"Q Q Q Q Q Q Q Q Q Q Q Q Q  .Q Q Q Q Q % 4 4 4 4 4 4 4 4 4 4 4 4 4 4 4 4 4 4 6 t t c c % % % % % c c t t % Q Q Q Q Q Q Q Q Q Q Q ",
"Q Q Q Q Q Q Q Q ` Q Q Q Q Q  .Q Q Q Q Q % 4 4 4 4 4 4 4 4 4 4 4 4 4 4 5 4 , t t c c c c c c c c c c c % Q Q I Q Q Q Q Q Q Q Q Q ",
"Q Q Q Q Q Q Q Q Q Q Q Q Q I  .Q I Q Q % B B , 4 4 4 4 4 6 4 4 4 4 4 4 9 , B B t ; c c c c c c c c n % Q Q Q Q ` Q Q Q Q Q Q Q Q ",
"Q Q Q Q Q Q Q Q Q Q Q Q Q I I Q Q Q % F F B B B , 4 4 4 4 4 4 4 4 4 4 B B B F G % % c c c c c c % % ` ` Q Q Q Q Q Q Q Q Q Q Q Q ",
"Q Q Q Q Q Q Q Q I Q Q Q I Q ` I Q Q % B B B B B B m , 1 < , , , , m B A B B B B % ` % % % % % % Q Q Q Q Q Q Q Q Q Q Q Q Q Q Q Q ",
"Q Q Q Q Q Q Q Q Q Q Q Q Q Q Q Q Q Q % :.$.+.B B B B B A B B A B A A B B B +.$.$.% Q Q Q Q I Q  .Q Q Q Q Q Q Q Q Q Q Q Q Q Q Q Q ",
"Q Q Q Q Q Q Q Q ` Q Q Q Q Q J Q Q % $.*.-.+.+.B B B B B B B B B B B B A +.O.$.$.$.% Q Q Q Q Q  .' I Q Q Q Q Q Q Q Q Q Q Q Q Q Q ",
"` Q Q Q Q Q Q Q Q Q Q Q Q Q Q Q Q % #.$.$.$.$.B B B B B B A B B A B B B *.$.$.$.$.% Q ` Q Q ` Q Q Q Q Q Q Q Q Q Q Q Q Q Q Q Q Q ",
"` Q I I Q Q Q Q Q Q Q Q Q Q Q Q Q % -.$.$.$.$.B B B B F F F H F B B B B $.*.$.$.-.% Q Q Q Q Q Q Q Q Q Q Q Q Q Q Q Q Q Q Q Q Q Q ",
"Q Q Q Q Q Q Q Q Q Q Q Q Q Q Q Q Q Q % :.$.$.t B A B B B B B B B B B A B t #.*.-.% Q Q Q ` Q Q Q Q Q Q Q Q Q Q Q Q Q Q Q Q Q Q Q ",
"Q Q Q Q  .Q Q Q Q Q Q Q Q Q Q Q I Q Q % ; % % t t B B B B B M B B B t t % % % % Q I Q ` Q Q Q Q Q Q Q Q Q Q Q Q Q Q Q Q Q Q Q Q ",
"Q Q Q Q ' Q ` Q Q Q Q Q Q Q Q Q Q ` Q Q Q % ; % t t t t O % % t t 0 t % % % Q Q Q Q Q Q Q Q Q Q Q Q Q Q Q Q Q Q Q Q Q Q Q Q Q Q ",
"Q Q Q Q Q } Q ` Q Q Q Q Q Q Q Q Q Q ` I Q I % % % % % % % % % % % % % % % Q Q Q Q Q Q Q Q Q Q ` Q Q Q Q Q Q Q Q Q Q Q Q Q Q Q Q ",
"I Q ` Q Q  .Q Q Q Q Q Q Q Q Q Q Q Q Q Q Q Q Q % 4 8 4 4 % Q % 4 4 4 4 % Q Q Q Q Q Q Q ` Q Q Q Q Q Q Q Q Q Q Q Q Q Q Q Q Q Q Q Q ",
"Q Q Q Q Q ] Q Q Q Q Q Q Q Q Q Q Q Q / Q Q Q % a p p 4 4 % Q % 4 4 p p p % Q I / Q Q Q Q Q Q Q Q Q Q Q Q Q Q Q Q Q Q Q Q Q Q Q Q ",
"Q Q I Q Q ' Q Q Q Q Q Q Q Q Q Q Q I Q Q Q Q ; 4 4 9 4 % Q Q Q % 4 4 4 4 % I Q Q Q Q Q Q Q Q Q Q Q Q Q Q Q I Q I Q Q Q Q Q Q Q Q ",
"Q Q Q Q I ] Q Q Q Q Q Q Q ` Q Q Q Q Q Q ` I Q ; 4 8 % Q Q Q Q Q % 4 9 % Q Q I Q Q Q Q Q Q Q Q Q Q Q Q Q Q Q Q Q Q Q Q Q Q Q Q Q ",
"Q Q Q Q Q } Q I Q Q I Q Q I Q Q I Q ` Q Q Q I Q % % Q ` Q Q Q Q I % %  .Q I Q Q Q Q Q Q Q Q Q Q Q Q Q Q Q Q Q Q Q Q Q Q Q Q Q Q ",
"I Q Q Q Q Q Q Q ` Q Q Q Q  .Q Q Q Q Q Q Q Q ` Q Q Q Q Q Q Q Q Q I Q Q ' Q Q Q Q Q Q Q Q Q Q Q Q I Q Q Q I I Q Q Q Q Q Q Q Q Q Q ",
"Q Q I Q Q Q I Q Q I Q Q Q  . .Q Q Q Q I Q Q Q Q I Q Q I Q Q Q ` Q Q  . .Q Q Q Q Q Q Q Q Q Q Q Q Q Q Q Q Q Q Q Q Q Q Q Q Q Q Q Q ",
"Q Q Q Q Q Q ` Q Q I Q Q Q Q  .Q Q Q I Q Q ` Q Q Q Q Q I Q Q Q Q Q  .Q o.Q Q Q Q Q Q Q Q Q Q Q Q Q Q Q Q Q Q Q Q Q Q Q Q Q Q Q Q ",
"Q I Q Q Q Q ` Q Q Q Q I Q Q  .Q Q Q Q Q Q Q Q I Q Q Q Q Q Q Q Q Q Q Q Q Q Q Q Q Q Q Q Q Q Q Q Q Q I `  .] Q Q Q Q Q Q Q Q Q Q Q ",
"Q Q Q Q Q Q Q Q ` Q Q Q I Q  .` Q Q Q Q Q I Q Q Q Q Q Q Q ` I Q Q Q Q Q I Q I Q Q Q Q Q Q Q Q Q ` Q ` `  .Q I I Q Q Q Q Q Q Q Q ",
"Q Q Q Q Q Q Q Q Q Q Q Q Q Q ] Q Q Q Q Q Q Q Q Q Q Q Q Q Q Q Q Q Q Q Q Q Q Q Q Q Q Q Q Q Q Q Q Q Q Q Q Q ] Q ` Q Q Q Q Q Q Q Q Q ",
"Q Q Q Q Q Q Q Q Q Q Q Q Q Q } Q Q Q Q Q Q Q Q Q Q Q Q Q Q Q Q Q Q Q Q Q Q Q Q Q Q Q Q Q Q Q Q Q Q Q Q Q Q  .Q Q Q Q Q Q Q Q Q Q ",
"Q Q Q Q Q Q Q Q ` Q Q I Q Q Q Q Q Q Q Q Q Q Q Q Q Q Q Q Q Q Q Q Q Q Q Q Q Q Q Q Q Q Q Q Q Q Q Q Q Q Q Q Q  .Q Q Q Q Q Q Q Q Q Q ",
"Q Q Q Q Q Q Q Q Q Q Q Q Q Q Q Q Q Q Q Q Q Q Q Q Q Q Q Q Q Q Q Q Q Q Q Q Q Q Q Q Q Q Q Q Q Q Q Q Q Q ` Q Q ' I Q Q Q Q Q Q Q Q Q ",
"Q Q Q Q Q Q Q Q Q Q Q Q Q Q Q Q Q Q Q Q Q Q Q Q Q Q Q Q Q Q Q Q Q Q Q Q Q Q Q Q Q Q Q Q Q Q Q Q ` Q Q Q Q Q Q Q Q Q Q Q Q Q Q Q ",
"Q Q Q Q Q Q Q Q Q Q Q Q Q ` Q Q Q Q Q Q Q Q Q Q Q Q Q Q Q Q Q Q Q Q Q Q Q Q Q Q Q Q Q Q Q Q Q Q Q I Q Q Q Q Q I Q Q Q Q Q Q Q Q ",
"Q Q Q Q Q Q Q Q Q Q Q Q Q I Q Q Q Q Q Q Q Q Q Q Q Q Q Q Q Q Q Q Q Q Q Q Q Q Q Q Q Q Q Q Q Q Q Q Q Q Q Q Q Q Q Q Q Q Q Q Q Q Q Q ",
"Q Q Q Q Q Q Q Q Q Q Q I ` Q ` Q Q Q Q Q Q Q Q Q Q Q Q Q Q Q Q Q Q Q Q Q Q Q Q Q Q Q Q Q Q Q Q Q Q Q I Q Q Q Q Q Q Q Q Q Q Q Q Q "
};
