/* XPM */
static char *_febab90028d4f1db61a238d67cdae2fZUpLtAW79cliugU8[] = {
/* columns rows colors chars-per-pixel */
"64 64 201 2 ",
"   c None",
".  c #0F0D17",
"X  c #110E17",
"o  c #140E19",
"O  c #17101A",
"+  c #251525",
"@  c #241527",
"#  c #251527",
"$  c #251627",
"%  c #261627",
"&  c #271627",
"*  c #291722",
"=  c #281627",
"-  c #281727",
";  c #291727",
":  c #2A1823",
">  c #2E1927",
",  c #281728",
"<  c #2A1828",
"1  c #2D1A29",
"2  c #301A27",
"3  c #311A27",
"4  c #311B27",
"5  c #321B26",
"6  c #321B27",
"7  c #331B27",
"8  c #331D26",
"9  c #331C27",
"0  c #341C27",
"q  c #351C27",
"w  c #341C28",
"e  c #351D28",
"r  c #361D28",
"t  c #371D28",
"y  c #371E28",
"u  c #381E29",
"i  c #381F29",
"p  c #391F29",
"a  c #3A1F29",
"s  c #3B202A",
"d  c #3C202A",
"f  c #38202D",
"g  c #3F242C",
"h  c #42242D",
"j  c #43272D",
"k  c #40252F",
"l  c #40262F",
"z  c #44262E",
"x  c #45262E",
"c  c #44262F",
"v  c #47272F",
"b  c #45282E",
"n  c #47282F",
"m  c #48282F",
"M  c #482830",
"N  c #482831",
"B  c #492831",
"V  c #492931",
"C  c #4A2930",
"Z  c #4A2931",
"A  c #4B2931",
"S  c #4B2A30",
"D  c #4B2A31",
"F  c #4C2B31",
"G  c #4C2A32",
"H  c #4C2B32",
"J  c #4D2B32",
"K  c #4E2B32",
"L  c #4C2C30",
"P  c #4E2C32",
"I  c #4F2C32",
"U  c #4E2C33",
"Y  c #4F2C33",
"T  c #502D33",
"R  c #512D33",
"E  c #512E33",
"W  c #522E33",
"Q  c #532F33",
"!  c #522E34",
"~  c #532E34",
"^  c #532F34",
"/  c #503132",
"(  c #553035",
")  c #563035",
"_  c #563135",
"`  c #573135",
"'  c #553235",
"]  c #563235",
"[  c #573235",
"{  c #573336",
"}  c #583235",
"|  c #5A3336",
" . c #5A3436",
".. c #5B3436",
"X. c #5B3437",
"o. c #5B3637",
"O. c #5C3437",
"+. c #5C3637",
"@. c #5C3837",
"#. c #5F3638",
"$. c #5F3738",
"%. c #5D3838",
"&. c #623B3A",
"*. c #673C3A",
"=. c #693E3C",
"-. c #6A3E3C",
";. c #6B3E3C",
":. c #6B3F3C",
">. c #6C3F3C",
",. c #6A423D",
"<. c #6F413D",
"1. c #6F423E",
"2. c #70413D",
"3. c #70423D",
"4. c #70423E",
"5. c #71423E",
"6. c #71433E",
"7. c #72433F",
"8. c #73443E",
"9. c #73443F",
"0. c #74443F",
"q. c #75443F",
"w. c #75453F",
"e. c #76453F",
"r. c #764540",
"t. c #754640",
"y. c #764640",
"u. c #774640",
"i. c #784740",
"p. c #794740",
"a. c #794741",
"s. c #794841",
"d. c #7A4841",
"f. c #7B4841",
"g. c #7A4941",
"h. c #7B4941",
"j. c #7B4A42",
"k. c #7E4C43",
"l. c #7F4C43",
"z. c #7F4D43",
"x. c #7F4E44",
"c. c #804D43",
"v. c #804E43",
"b. c #804E44",
"n. c #814E44",
"m. c #814F44",
"M. c #835045",
"N. c #845145",
"B. c #855245",
"V. c #855246",
"C. c #885547",
"Z. c #895647",
"A. c #8A5647",
"S. c #8A5648",
"D. c #8A5748",
"F. c #8B5748",
"G. c #8B5848",
"H. c #8C5949",
"J. c #8E5B4A",
"K. c #8D5E4A",
"L. c #8E5E4B",
"P. c #93624C",
"I. c #95634D",
"U. c #97634D",
"Y. c #96654E",
"T. c #99674F",
"R. c #9C674F",
"E. c #9A684F",
"W. c #9A6850",
"Q. c #9B6A50",
"!. c #9C6850",
"~. c #9D6850",
"^. c #9C6950",
"/. c #9D6950",
"(. c #9E6950",
"). c #9E6B51",
"_. c #A16C52",
"`. c #A26C52",
"'. c #A26D52",
"]. c #A36D52",
"[. c #A36E52",
"{. c #A26E53",
"}. c #A36E53",
"|. c #A36F53",
" X c #A57154",
".X c #A67054",
"XX c #A67154",
"oX c #A77154",
"OX c #A77254",
"+X c #A77255",
"@X c #A87255",
"#X c #A87355",
"$X c #A97355",
"%X c #AB7556",
"&X c #AB7656",
"*X c #AC7656",
"=X c #AC7657",
"-X c #AD7757",
";X c #AE7757",
":X c #AE7857",
">X c #AE7858",
/* pixels */
"                                                                                                                                ",
"                                                                                                                                ",
"                                                                                                                                ",
"                                                                                                                                ",
"                                                                                                                                ",
"                                                                                                                                ",
"                                                                                                                                ",
"                                                                                                                                ",
"                                                                                                                                ",
"                                                                                                                                ",
"                                                                                                                                ",
"                                                                                                                                ",
"                                                                                                                                ",
"                                                                                                                                ",
"                                                                                                                                ",
"                                                                                                                                ",
"                                                                                                                                ",
"                                                                                                                                ",
"                                                                                                                                ",
"                                                                                                                                ",
"                          J J J J J J J J                                                                                       ",
"                      J J J J J J J J J J J J P                                                                                 ",
"                    J J J J ^ ^ E J J J J J J ) Y.-X:X-X                                -X X X-X-X X X X-X-X                    ",
"                J J J J J E :.0.5.) J J J J J P &.{. X-X-X@X-X-X-X                  -X-X@XD.C.!.!.C.n.D.{.@X%X                  ",
"              J J J J ^ ^ ^ o.5.0.5.) E J J J J ) L.,.T.{.D. X@X X X-X-X-X      -X-X-X-X-X@X!.%./ I.V.I.V.V.!.H. X              ",
"            J J J J E :.5.0.5.o.o.0.t.5.) E J J P ) P o.g.n.!.V.V.G.@X:X-X-X-X-X-X-X-X-X-X>X{.%.n L.v.k.g.g.M.!. X X            ",
"          J J J J J J E ) 0.g.0.0.0.0.a.0.5.^ J J J J E <.t.k.V.{.{. X X X-X-X-X-X-X-X-X-X@X%XQ.@.P 8.a.5.<.5.k.k.x.E.Q.        ",
"          J J J J E J J E 5.g.g.5.) o.0.g.5.E J J J J J E ) t.!.{.V.v.n.D.@X@X X-X-X-X-X{.H. X@XP.O.0.5.h f h 5.5.) ) h 9 g     ",
"        J J J J E *.) ^ ^ o.t.t.o.) 5.g.0.o.^ ^ E J J J E E ) g.v.g.a.k.{.{.V.C. X X X{.C.{. XV.k.t.g.a.<.:.:.8.) J x 6 O X .   ",
"        J J J J J | 5.0.0.0.g.g.0.0.g.g.g.0.0.0.5.E J E >.<.o.0.g.g.g.v.!.V.k.{.@XD.n.k.v.{. XV.g.g.g.g.t.o.) :.E n p 0 : o *   ",
"      J J J J J ) 5.g.g.0.0.0.g.g.g.0.0.g.g.g.0.<.E J J ) 0.t.a.g.g.g.g.k.g.k.{.%X!.k.a.g.V.{.!.k.g.g.g.g.5.E E M p 0 0 6 & 6   ",
"      J J J J E :.0.0.5.) ) O.0.g.5.) o.0.g.0.) ) P J J ) 0.g.g.g.g.g.g.g.g.g.V.{.V.g.g.g.g.k.v.g.g.g.g.t.0.) J M y 0 0 6 ; 6   ",
"    J J J J J J ^ ^ ^ E ) 5.0.g.0.o.) 5.g.g.0.o.:.E J ) 5.0.g.g.g.g.g.g.a.g.g.k.R.k.g.g.g.g.g.g.g.g.g.0.o.5.>.E x y 0 6 6 & 6   ",
"    J J M M J J J J J ) 5.g.g.g.a.0.0.g.g.g.g.0.<.E E >.<.o.0.g.g.g.g.g.g.g.g.g.k.g.g.g.g.g.g.g.0.0.a.5.^ E P M p 0 6 ; & ; 6   ",
"  M J M p s M J J J ) 5.g.0.a.g.g.g.t.g.g.g.g.t.o.^ P ^ ) | 0.g.g.g.g.g.g.g.g.g.g.g.g.g.g.g.g.t.o.) >.E M x p y 0 0 0 6 6 6     ",
"  p x p p M J J J E 5.g.5.#.0.g.g.5.o.0.g.a.0.0.0.:.E E :.5.a.g.g.g.g.g.g.g.g.g.g.g.g.g.g.0.a.0.:.P M p y y 0 0 0 0 0 0 0       ",
"  0 y y x M M J J E 5.5.| 5.g.g.5.) ) 0.g.0.o.) >.) J J ^ o.0.g.g.g.g.a.g.g.g.g.g.g.g.g.0.o.>.) J p y 0 0                       ",
"  0 0 y x p p M J J E E ^ 0.g.t.o.) 5.g.g.g.5.) ) P J J E 5.g.g.g.g.g.g.g.g.g.g.g.g.a.0.0.) E M p 0                             ",
"    0 0 y 0 y M M M J J ) 0.g.g.0.0.g.g.g.g.g.0.:.E J E ) 0.t.a.g.g.g.g.g.g.g.g.a.t.0.#.5.>.E M y                               ",
"      0 0 0 p x p s M ) 5.a.0.a.0.0.a.0.0.g.g.5.) M E <.5.<.o.0.g.g.g.g.g.a.0.g.0.o.5.5.) E J J                                 ",
"        0 y h p y m ) 5.g.5.o.>.) o.5.) ) 0.5.) M s P >.) E ) 0.g.0.g.g.g.0.o.5.0.) ) >.E J J                                   ",
"          0 y 0 y P >.0.5.) J E ^ 5.0.E E :.) M p y M P J E 5.0.5.o.0.g.g.0.) ) 0.5.E E J J                                     ",
"          0 0 0 y M ^ ^ E J J J ^ 0.5.E M E J x y y x d M ^ >.) E ) 0.0.0.a.>.) 5.5.E J                                         ",
"            0 0 y x J J M J J M E >.) M s x m p 0 0 y y n J P J E >.5.) ) 5.) P E ^ J                                           ",
"            0 0 0 p M M s M M d M P m p 0 y y 0 0 0 0 0 p x s x M P E J E :.^ J J J                                             ",
"              6 6 y x p p M m y y y y 0 0 0 0       0 0 0 y 0 y y p m J J E M M J                                               ",
"              & & 6 y y x m p 0 0                               9 6 p M J M 1 <                                                 ",
"                & 6 0 y x p 0 0                                   & 6 p m x ,                                                   ",
"                & 6 0 9 w 6 0                                     & & 6 y < &                                                   ",
"                & & 6 6 & &                                       & & 6 6 &                                                     ",
"                & & & 6 &                                           & & > &                                                     ",
"                & & & > &                                           & & & &                                                     ",
"                  @ @ & &                                           @ & & &                                                     ",
"                  @ @ @ & &                                           & & & &                                                   ",
"                    & @ & & &                                           @ @ & &                                                 ",
"                      & & & &                                             @ @ @                                                 ",
"                                                                                                                                ",
"                                                                                                                                ",
"                                                                                                                                ",
"                                                                                                                                ",
"                                                                                                                                ",
"                                                                                                                                ",
"                                                                                                                                ",
"                                                                                                                                "
};
