/* XPM */
static char *_774e50dd77243daf64ac7f02edb59d3MAniZS4UJWA7h132[] = {
/* columns rows colors chars-per-pixel */
"64 64 16 1 ",
"  c #060606",
". c #0E071B",
"X c #131313",
"o c #1B1B1B",
"O c #1A1932",
"+ c #272727",
"@ c gray24",
"# c #5D2C28",
"$ c #2A2F4E",
"% c #424C6E",
"& c #8A4836",
"* c #A8E61D",
"= c #9BCC29",
"- c #92A1B9",
"; c #C7CFDD",
": c white",
/* pixels */
"****************************************************************",
"****************************************************************",
"****************************************************************",
"****************************************************************",
"*********==**************=****************==********************",
"*********=***************=****************=*********************",
"********==***************==***************=*********************",
"********=*****************==*************==*********************",
"*********=*****************=*************=************=*********",
"*******************************************************=********",
"****************************************************************",
"****************************************************************",
"***************************.......******************************",
"*************************..+++++++..****************************",
"***********************..+++++++++++..**************************",
"**********************.+++++++++++++++.*************************",
"***********=*********.+++++++++++++++++.************************",
"***********=********.++++++++@@@++++++++.***********************",
"***********==******.++++++++@@@@@++++++++.**********************",
"************==*****.++++++++@@@@@++++++++.**********************",
"******************.+++++++++@@@@@+++++++++.*********************",
"******************.++++++++++@@@++++++++++.*********************",
"*****************.+++++++++++++++++++++++++.********************",
"*****************.o++++++++@+++++++++++++++.***********=********",
"*****************.oo++++++@@@+++++++++++++o.***********=********",
"*****************.ooo++++++@+++++++++++++oo.***********==*******",
"*****************.oooo++++++++++     +++ooo.************=*******",
"*****************.oooo+++++++++ :::::++oooo.************=*******",
"**********=******.oooooo++++++++::   oooooo.********************",
"**********=*******.ooooooo++++++::   ooooo.*********************",
"********.**=******.ooooooooooooooo   ooooo.*********************",
"*******.$.*==******.ooooooooooooooooooooo.**********************",
"*******.$$.*==******.oooooooooooooooooooo.**********************",
"*******.$$$.*=******.ooooooooooooooooooo.***********************",
"*******.$$$..*=*****.$ooooooooooooooooX.************************",
"********.$$$$.=****.%%$XoooooooooooooX.*******=*****************",
"*********.$$%%.....%%%%$$Xoooooooooo..********=*****************",
"**********.%%%%%%%%%%%%&%$$XXXXXXX$$.*********==****************",
"***********.%%%%%%%%%.&&&&%$$$$$$$&&.**********=****************",
"************..%%%%%%..&&&&&&&&&&&&&&&.*********==***************",
"**************......*.&&&&&&;;-&&&&&&.**************************",
"*********************.&&&&&;;;--&&&&&&.*************************",
"*********************.#&&&&;;;;;&&&&&&.*************************",
"****=*****************.##&&;;;;;&&&&&.**************************",
"****=******************.....;;;......***************************",
"*****=*******************......OO...****************************",
"*****=********************.........*****************************",
"*****=*********************.ooooo.******************************",
"*****=*********************.oooooo.*****************************",
"*****=**********************......******************************",
"*****=*****************************=****************************",
"*************=*********************=****************************",
"*************==*******************==****************************",
"**************=******************=******************************",
"**************=************************************==***********",
"**************=*************************************=***********",
"**************=*************************************=***********",
"**************=**************************************=**********",
"*****************************************************=**********",
"*****************************************************=**********",
"****************************************************************",
"****************************************************************",
"****************************************************************",
"****************************************************************"
};
