/* XPM */
static char *_0efd17f3eff476b9445f767c721ec14oOdbWxqNGdn4ktW4[] = {
/* columns rows colors chars-per-pixel */
"64 64 110 2 ",
"   c #368DF9",
".  c #388FF9",
"X  c #3B93F9",
"o  c #3F99F9",
"O  c #4596F9",
"+  c #419CFA",
"@  c #4C9AF9",
"#  c #529EFA",
"$  c #45A2FA",
"%  c #49A6FA",
"&  c #4CABFA",
"*  c #56A1FA",
"=  c #5BA4FA",
"-  c #52AFFA",
";  c #5EAFFA",
":  c #4FB0FA",
">  c #53B5FA",
",  c #5AB7FA",
"<  c #57BAFB",
"1  c #5ABDFB",
"2  c #61A7FA",
"3  c #63A9FA",
"4  c #6CAEFA",
"5  c #63B0FA",
"6  c #6CB2FA",
"7  c #75B3FA",
"8  c #79B5FA",
"9  c #79B8FB",
"0  c #5EC4FB",
"q  c #61C6FB",
"w  c #64CCFB",
"e  c #69CFFB",
"r  c #78CDFB",
"t  c #67D2FB",
"y  c #6AD5FC",
"u  c #6DDAFC",
"i  c #71D6FC",
"p  c #7DD4FB",
"a  c #71DEFC",
"s  c #7CDEFC",
"d  c #74E3FC",
"f  c #7CE4FC",
"g  c #84BCFB",
"h  c #88BEFB",
"j  c #86C0FB",
"k  c #8DC2FB",
"l  c #80CFFB",
"z  c #90C8FB",
"x  c #9CCEFB",
"c  c #8AD5FC",
"v  c #95D7FC",
"b  c #A3CFFB",
"n  c #A5D3FC",
"m  c #ADD5FC",
"M  c #ABD9FC",
"N  c #B0D7FC",
"B  c #B3DCFC",
"V  c #BADDFC",
"C  c #84E5FC",
"Z  c #8CE6FC",
"A  c #8DE8FC",
"S  c #93E4FC",
"D  c #9BE4FC",
"F  c #93E9FC",
"G  c #9BEAFC",
"H  c #A5E2FC",
"J  c #ADE4FC",
"K  c #A3ECFC",
"L  c #ADEDFC",
"P  c #B4E3FC",
"I  c #BAE4FC",
"U  c #B0E9FC",
"Y  c #B5ECFC",
"T  c #BBE9FC",
"R  c #BEE9FC",
"E  c #B7F0FD",
"W  c #BBF0FD",
"Q  c #BCF2FD",
"!  c #C2E1FC",
"~  c #C9E5FC",
"^  c #C9EAFC",
"/  c #CBEDFC",
"(  c #D3EBFC",
")  c #D1EEFC",
"_  c #D6EDFC",
"`  c #D8EFFD",
"'  c #C3F3FD",
"]  c #C6F4FD",
"[  c #CBF2FD",
"{  c #CDF1FD",
"}  c #CBF5FD",
"|  c #CEF5FD",
" . c #D4F1FD",
".. c #D2F7FD",
"X. c #D7F7FD",
"o. c #DEF2FD",
"O. c #DBF4FD",
"+. c #D3F8FD",
"@. c #DBF8FD",
"#. c #DDF9FD",
"$. c #E2F6FD",
"%. c #E6F7FD",
"&. c #E4FAFD",
"*. c #E5FCFD",
"=. c #EBF9FD",
"-. c #ECFAFD",
";. c #EAFCFD",
":. c #EFFCFD",
">. c #F2FEFD",
",. c #F4FEFD",
/* pixels */
"                                                                                                                                ",
"                                                                                                                                ",
"                                                                                                                                ",
"                                                                                                                                ",
"                                                                                                                                ",
"                                                                                                                                ",
"                                                                                                                                ",
"                                                                                                                                ",
"k k k k #                                                                           + > > > > > > X                   # k k k k ",
">.>.>.:.4                                                                           & d d d d d a o                   4 :.>.>.>.",
"' ' ' ' k 7 #       @ 8 6 & % X                               X 7 7 O       = 8 5 & > 0 0 0 0 0 0 & & X       + & ; 7 k ' ' ' ' ",
"d d d d } >.g       7 >...f y X                               @ ` %.=       b ,.E d 0           o y d $       < d K >.} d d d d ",
"w w w w U ..z 2 3 2 k ..Y e 0 X                               @ R [ 9 3 3 3 n +.D w >           X 0 w & $ $ $ 0 d G ..U w w w w ",
"X X X X w f W =.=.=.' f e X .                                 o i C ..=.=.=.K d 1                 . X w d d d d d d f w X X X X ",
"        1 y L #.@.#.E d w X                                   o w i ] #.@.#.G d <                   . 0 y y y y y y y 1         ",
"        X X q C f f f d w X                                     X o i C f f f d <                     X X X X X X X X X         ",
"            < u u u u u q X                                       X q u u u u a >                                               ",
"            o + + + + + o                                           o + + + + + X                                               ",
"                                                                                                                                ",
"                                                                                                                                ",
"                                                                                                                                ",
"                                                                                                                                ",
"                                                                                                                                ",
"                                                                                                                                ",
"                                                                                                                                ",
"                                                                                                                                ",
"                                                                                                                                ",
"                                      $ % % % % % +                     = 4 4 4 4 4 4 4 = .                                     ",
"                                      w d d d d d 1                     B :.-.-.-.-.-.:.V X                                     ",
"                O = @       X = = + $ 0 t t t t t 1 + o         + + * = B @.X.X.X.X.X.@.I 2 * .       # = $ + o                 ",
"                h =.n       # _ O.C u % X X X X X > a 0       o t s { %.G f f f f f f f F $.~ O     X V %.D a >                 ",
"                j *.M @ @ @ 3  .X.s y +           & u 0 o o o $ u f } #.Z y u u u u u y Z #.^ = @ @ # I &.S u >                 ",
"                , C K ` ` ` / Z s % o X           X o & u u u u d d C C - o o o o o o o & f F ) ` ` _ G C > X X                 ",
"                > u G =.=.;.X.f u o                   % a a a a a a a u %               $ u C #.;.=.&.F d &                     ",
"                o + , Z Z Z Z d u +                   X + + + + + + + + X               X + & C A Z Z f d &                     ",
"                    & d d d d d u +                                                         o u d d d d d &                     ",
"                    o % % % % % % X                                                         X % % % % % % o                     ",
"                                                                                                                                ",
"                                                                                                                                ",
"                                                                                                                                ",
"                                                                                                                                ",
"                                                                                                                                ",
"                                                                                                                                ",
"                                                                                                                                ",
"                                                                                                                                ",
"                                                                                                                                ",
"# # # # X                                                                                                             X # # # # ",
"o.o.o.o.4                                                                                                             4 o.o.o.o.",
"&.&.&.&.7 O X       X O O o X                                                       X X X X X X X                     4 &.&.&.&.",
"C C C Z T ( 7       4 ( I u q X                                                     % y y y y y w o                   & C C C C ",
"a a a a ] :.g . X . 8 :.| d t X                                 X X         . X X   & d d d d d u + .           X X X & a a a a ",
"$ $ $ $ p F J ! ! ! P F p % +                                 O N V #       g ! v w 1 $ $ $ $ $ % q q +       & w c ! x $ $ $ $ ",
"        q d Q >.>.>.' d w                                     @ o.&.=       b ,.E d 0           X y d $       < d L ,.V .       ",
"        $ & p K G K F d w X                                   + S K M m m m H K r & $           X % & 1 0 0 0 y d C K l .       ",
"            1 d d d d d w X                                   o u f @.,.>.,.K d <                     w d d d d d d d q         ",
"            % > > > > > &                                     X : , D L L L Z d <                     & > > > > > > > &         ",
"                                                                  X t d d d d d <                                               ",
"                                                                  X > 0 1 1 1 0 &                                               ",
"                                                                                                                                ",
"                                                                                                                                ",
"                                                                                                                                ",
"                                                                                                                                ",
"                                                                                                                                ",
"                                                                                                                                "
};
