/* XPM */
static char *_f523409176043a5c064c0c14e9745830AFCDMhPqza1d2gK[] = {
/* columns rows colors chars-per-pixel */
"64 64 81 1 ",
"  c #060708",
". c #07090A",
"X c #0C0C0D",
"o c #100F0F",
"O c #0D0F10",
"+ c #0F1112",
"@ c #121415",
"# c #181717",
"$ c #141718",
"% c #16191B",
"& c #191B1C",
"* c #171D21",
"= c #1A1E21",
"- c #1D2225",
"; c #1E2529",
": c #1F292D",
"> c #202527",
", c #212629",
"< c #232A2D",
"1 c #282D2F",
"2 c #262E31",
"3 c #282F32",
"4 c #263135",
"5 c #2A3236",
"6 c #273338",
"7 c #2C3539",
"8 c #2B383E",
"9 c #2C383C",
"0 c #2F383C",
"q c #2C393E",
"w c #30393C",
"e c #303A3E",
"r c #313B3F",
"t c #2C3B40",
"y c #2E3C42",
"u c #2E3C43",
"i c #2F3E48",
"p c #313C40",
"a c #323E43",
"s c #303F45",
"d c #333F44",
"f c #313F48",
"g c #304046",
"h c #344146",
"j c #33434A",
"k c #354349",
"l c #32444B",
"z c #36444A",
"x c #33444C",
"c c #33454D",
"v c #37474D",
"b c #38474D",
"n c #36484F",
"m c #38484F",
"M c #344651",
"N c #364952",
"B c #3A4A51",
"V c #384C54",
"C c #3B4D54",
"Z c #3C4E56",
"A c #3A4E5A",
"S c #3D5057",
"D c #3C525A",
"F c #3F525A",
"G c #3E535C",
"H c #3F545C",
"J c #3E5361",
"K c #40555E",
"L c #405760",
"P c #435B64",
"I c #435B65",
"U c #465E68",
"Y c #47616C",
"T c #48636E",
"R c #4A6671",
"E c #4B6873",
"W c #4C6974",
"Q c #4E6D79",
"! c #506F7B",
"~ c #51717E",
"^ c #537481",
/* pixels */
"$%$$$$$$@@+@++OXXXX$$@OOOXXXXX$&%%$$$$@++OXXXXX=-==&%$$@++OXXXXX",
"27555544422221<-$XX-<>----=%@X;5,,,,,,,;---&+XXqaeeeqq75532<,=+X",
"7qqqqqqqqqq75551-+X;2<1222221$<q12212221<1<<-XXueqqeeeeeeeeeee,X",
"qq5544444222211<-@X<4245555qq-2a57qqqq555555<+ou5<<<<1124557qq2+",
"t5<<<<<<<<<<<<<<<$X253qqqqqqq,4g57qqqqqqqqqq2$og2------>;,,<<<,@",
"g7,,,,<<<<<112245&X7u5qqqeeee<7vqqeqeeeeeeeeq&@n7-------,,,,,,,$",
"vg<<<11355555q77q-XqV57q77qqq<8Feeeeqqqqqqqqq&@VB,----,,,,,,,,,$",
"VEHZBBvkhaeqqqqqq,@uWZzhaeeqq2tRmaeeeeeeeeeee-@FY7,,,,,,<<,,,,,%",
"<vvcjljgsu875542<=@-vvjgaq752,q^QUKFVbhhsaaee,@F^EIGVBzaqq76542-",
"-,>----------=&$XX@@@@@@@@@@@@-jNNvcjut887422=+<lllljjguuq8744<&",
"4qqqqqqqqqqqq75<=+@%&$@@@@+OO+@&55321<<,,,---%XX@@@@@@@@@@oXXXXX",
"7e7q57755555442<-@@,2,----&%@X@=72112222344552&X@$$$@@@@@@+XXXXX",
"771222222<11<<<<,$$<2<1122122%@=7<<<<<<<<<<<<1;O&-==&&%%$$$@+XXX",
"87,,,<<<<<<<<<<12&$<5144455qq-@-7<<<<<<<<<<<<<,+,7<<<<<,,,,,--$X",
"uq,,,<<1212445555-$2727qqqqqe<$-s22222234445442$,q24422222211<-+",
"cHqqqqqq757qqq57q,$7a4qqqeeee2$>vqqqqq757555555&<s55qqqqq555771$",
"uEYILLKFVmzgaaaqq<$qZ55q7qqqq2$>Vqqqqq7755555q7=1z77qqqqq9qqqq4&",
"&-----=====------&#uWFzhaaeqq4&,Lq55qq555554222&2Vqqeeeeeeeeeeq-",
"2,----&%$XX@$$$$&&&,BBvzgaqq51&,Ya55q7555555555-4Leeeeeqeqqqqqq-",
"7<<112112-+@@$$$$$#&##%&&&&&###,WIaqqq77qqqqqqq,5WKhaeeeeeeeeee<",
"q1243455q5&%@+++XXXXXXXXXXX...X,W~TKFVbzkkhhaaa55!~RULHZbzhhsaa5",
"u25qqqqqqq--$$$$$$$@@@@@+++OX..&akkkhggaaaaqq75<-777764422<<;;-=",
"N57qqeeeeq<;$%%%&%%$%%%%$$$$$+X&&&&&&&&&&&&&&&&<2<<,---=&&&%$X.X",
"La5qqqqqqq22%%&&&%%$$%&%%$%&%$X&&&&&&&&&&&&#&#&55523454455552-XX",
"TIvgaaeqqq4t&%&%%%$$$$%%$$%&&$X-<-----=&&&%$@XO42<<<<<<<<<112<$X",
"uNvljst7522j=$$%$$$$$$%$$$%%%$X,q<<<<<<<<<,,,&O42<<<<<<<<<<<<<%X",
"XXXX+@@@@@-c-%%%%$$%%%%$$%%%%$X<s555555532222,$841112222222222=X",
"@@OXOOOO+O=V2%$$%$$%&&&$$$%&&$X<k55qqqqq7qqqq3&sq5577757755557,X",
"1----=&$@X&Ff-&%%$$$%%&%%$%&&$X1mqqqqqqeqqqqe5-jaqqqqqq755557q<O",
"5<<11111<=*GJNu722<;--====&&%$+2Feeeeqqeqeeqqq,Nh55qqqqq555335,O",
"7<233357q4=ucccjfffut888762<,-&5Uheeeeeeeeqqqq,Vm3455555555555<+",
"q157qqqqq7%$$@@@@@@@@@@$@@$$$$@<QYmksaeeeeeeee1FYa77qqqqqqqqqq5$",
"l27qqeeeeq&=&$$@@+++OOOXXXXX.. &TQRTILHVmvzhaa5L^TZbkgaaaeeeqqq&",
"Ge5qqqqqqq&--$$%%%%$$$$$$$$$$@XO<331111<<,,,>-=tHGFVVBnvzjgsqq5%",
"YKgaqqqqqq--;$%&&&%%$%%%%$$%%%+O,----==&&&&&%%$@O@$$$$@@@@@@+OXX",
"vHVBvjut75-<2%&&&%%%$$%&%$%&&&++qq7777q55555552;$+$&-&$$$$+OXXXX",
"$$@@@@++++@2t&%%%$$$$$$%$$$%&%++aqqqqq77q555554<=@$,2<<<<,,-&OXX",
"1,----=&$OX2u&%%%$$$%%%%$$%%%%++s5222222222211<<-@$<5<2222455=XX",
"4<<111112;+2c-%$%%$$%&&%$$%%&&@+g2,<<<<<<<<<<<<<<$$15255557qq,XX",
"72234555q7%2A2%$$%$$%&&&%%$%&&$@v2,,,<<<<<2223555%$472qqqqeee1XX",
"q257qqqqqq&2LM6<-=&&&&%%%%%%%%$@Fg2224455557qq775&@7z5qqqqqqq2+X",
"j55qqqeeqe-<JGFVMjjut866222;-=&$KWILKHSVmzgaaaeqq-$qLq75577qq2@X",
"Vh57q7qqqq-$-,,,,,<,,,,,,,---=&&2qqq8775442<,<<<>&@7WIFVmzgaq5@X",
"LUzaaeqqqq,$@$$-,----=&&&%$$@X$4,,----===&&$O.$&$$$&<<<<,;--=&XX",
"8AVnvguq75,$$$$27<<<<<<<<<,,;%$q1111<<<<<<<,-+$&$$$$@@ooXXXXXXXX",
"$%%%$$$$$$@@++X<e455444522222,%s5555555555531$-2,,,,>-------=%+X",
"52<<,,,,;---=%X:a5557qqqqqqqq<=kq57q7qqqqqqq5=<eqqqqqqqqqqqq52-+",
"q52221221<<<<,%<zqqqqqqqqqqqq5-Bqqqqqqqeeeeeq,2a7q55555555542<-$",
"uq5qqqqq555555-2Vqeeqqqeqeeqqq,Faeeeqqqqqqqqq<4q11122111<<<<<,,%",
"jq57qqqqqqqqqq,6Iaeeeeeeeqqqqq<IVeeeeeeeeeeee26q,,,<<<<<<<<<<<2-",
"vhqqe9eeeeeeeq38!Ibhaaeeeeeeee3TQLVbkhaeeeeee5qg,,,<<1222455557,",
"Vmeeeqqqqqqqqq54WWTYILFBvvzgae5VIILHFVNvkjgaq5sIaqqqqqqqqqqqq7q2",
"GUheeeeeeeeeeeq=-----------<52,---=&&&&%$++$%$4RYILLHFVBzgaaaq72",
"H^ELFCmkhaaaeeq-@@@@@@@@@@@<q55455433222<=X+$++&&&&&$$$$$$$$@++O",
"2cvvvczguttaq75-@@@@@@@@@@@<4<<<<<11222222$$-$$$@@@@+++++OOXXX..",
"+XXXXXXo++%q5552<,,---&&$+X,4<<<<<<<<<<<<<&$;$$%%%%%$$$$$$$$$$O.",
"<--=&&%$+X&zeeeeeeeeeeeqq1+<5<<<<<<<111112-&2%%&&&%%$$%&%$$%%%$.",
"6<<<<1<<<=*g5555555qqqqeee-2a5455555555555<-8&%&&%%%$$$%%$$%&&$.",
"71223445q5;g,;-;;,,,,<<222-6kqqqqq755555772;i=$$%$$$$$$%$$$%%%@.",
"t2557qqqqq<n--------;,,,,,=8mqqqqqqq7555552;j-%%%$$$%%%%$$%%%%@.",
"j25qqqeeee2L2-----,,,,,,,,-tF5555555543323<;N<%$$%$$%&&%$$$%&&$X",
"Fa5qqqqqqq4Tk,---,,<<<<,,<-uTa7qqqq9qqqqqq52At=%$%$$$%&&%%%%&&$X",
"IHaqqqqqqq6WTNuq75221<<,,<-u~Ikaqqq9qqqqqq75GAf72;;-==&&&&&%%%$O",
"FRULGVnkaq5Y~QWRTYIGVVBvja7s~~QRYILKFFZVmzkqAJGFANNMcutt8862:-=$"
};
