/* XPM */
static char *d943b67226d64d56e7191555a5e4967b2r5DJyOgqSG3zIHL[] = {
/* columns rows colors chars-per-pixel */
"64 64 95 2 ",
"   c #0D0618",
".  c #0E0719",
"X  c #0D051A",
"o  c #0E051A",
"O  c #0C071B",
"+  c #0E061B",
"@  c #0F061B",
"#  c #0A071C",
"$  c #0D051C",
"%  c #0F071C",
"&  c #0E061D",
"*  c #0D081C",
"=  c #131112",
"-  c #131313",
";  c #121413",
":  c gray8",
">  c #1B1B19",
",  c #1B191A",
"<  c gray10",
"1  c #1B1B1B",
"2  c #1C1A1B",
"3  c #1A1C1B",
"4  c #1B1B1D",
"5  c #1D1B1C",
"6  c #1B1C1E",
"7  c gray11",
"8  c #1B192F",
"9  c #191A2F",
"0  c #181830",
"q  c #191931",
"w  c #1B1931",
"e  c #181A31",
"r  c #191933",
"t  c #1B1833",
"y  c #181A33",
"u  c #1A1A32",
"i  c #272725",
"p  c gray15",
"a  c #272727",
"s  c #282627",
"d  c #262827",
"f  c #272729",
"g  c #29272A",
"h  c #282828",
"j  c #3C3C3C",
"k  c gray24",
"l  c #3E3E3E",
"z  c #5D2C28",
"x  c #5E2D29",
"c  c #2B2E4D",
"v  c #2A2F4D",
"b  c #2A2F4F",
"n  c #29304D",
"m  c #2B304E",
"M  c #8A4935",
"N  c #884A35",
"B  c #894836",
"V  c #8B4837",
"C  c #8A4937",
"Z  c #8B4A38",
"A  c #A6E61D",
"S  c #A7E61D",
"D  c #A7E51E",
"F  c #A7E71E",
"G  c #A7E71F",
"H  c #A8E51D",
"J  c #A9E61C",
"K  c #A8E71C",
"L  c #AAE71D",
"P  c #A9E61E",
"I  c #A8E71E",
"U  c #A8E61F",
"Y  c #A9E61F",
"T  c #AAE71F",
"R  c #A7E81C",
"E  c #A9E81D",
"W  c #A8E91D",
"Q  c #A8E81F",
"!  c #A9E81F",
"~  c #9BCB29",
"^  c #9CCA2A",
"/  c #9DCB2A",
"(  c #9DCB2B",
")  c #9ACD2A",
"_  c #9CCC28",
"`  c #9CCC2A",
"'  c #9CCC2B",
"]  c #9DCD2B",
"[  c #A9E720",
"{  c #A8E820",
"}  c #C7CFDA",
"|  c #C7CFDC",
" . c #C7CEDE",
".. c #C8CEDC",
"X. c #C6D0DA",
/* pixels */
"I I I I I I I I I I I F F I I I I I I I I I I I I ! I I I I I I I I I I I I I I I I I I I I I I I I I I I I I I I I I I I I I I ",
"I I I I I I I I I I I I I I I I I I I I I I I I I I I I I I I ! I I I I I I I I I I I I I I ! F I I I I I I I I I I I I I I I I ",
"I I I I I I I I I I I I I I I I I I I I I I I I ! I I I I I I I I I I I I I I I I I I I I I I I I I I I I I I I I I I I I I I I ",
"I I I I I I I I [ I I I I I I I I I I I I I I I I I I I I I I I I I I I I I I I I I I I I I I I I I I I I I I I I I I I I I I I ",
"I I I I I I I I I ` ` I I F I I I I I I I I I I I ^ F I F I I I I I I I I I I I ! I ` ` I I I I I I I I I I I I I I I I I I I I ",
"I I I I I I I I I ` ! F I I I I I I I I I I I I I ` I I ! I I I I I I I I I I I I ! ` I I I I I I I I I I I I I I I I I I I I I ",
"I I I I I I I I ` ^ I I ! I I ! I I I I I I I I ! ` ` I I I I F I I I I I I I I I I ` I I I I I I I I I I I I I I I I I I I I I ",
"I I I I I I I I ` I I I I I I I I I I I I I I I I I ^ ` I I I ! I I I I I I I I ! ` ` I F F I I I I I I I I I I I I I I I I I I ",
"I I I I I I I I I ^ I I I ! I F I I I I I I I I I I I ` I I I I F I I I I I I I I ^ I I I ! I F I F I I I I ^ I I I I I I I I I ",
"I I I I I I I I I I I I ! I I I I I I I I I I I I I I ! I I I I I ! I I I I I ! I I I I ! I I I I I I I F I I ^ I I I I I I I I ",
"I I I I I I I I I F I I I I I I I I I I I I I I I I I I I I I I ! I I I I I I I I F I I I I I I I I I I I I F I I I I I I I I I ",
"I I I I I I I I I ! I I I R ! I I I I I I I I I I I I I I I I I I I I ! I I I I I ! I I I R ! I I I I I I I F I I I I I I I I I ",
"I I I I I I I I I I I F I I I I I I I I I I I I I I I I I I I ! I I I I I I I I I I I F I I I I I I I I I I I I I I I I I I I I ",
"I I I I I I I I I I I I I I I I I I I I I I I I I I I I F + + + + + + + I I F I I I I I I I I I I I ! I I I I I I I I I I I I I ",
"I I I I I I I I I I F I I I I I I I I I I I I I ! I I + + p s d p p p p + % I I I I F I I I I I I I I I I I I F I I I I I I I I ",
"I I I I I I I I I I I I I I I I I I I I I I I I I + + d p p p p p d g p p p + % I I I I I I I I I I I I I I I I I I I I I I I I ",
"I I I I I I I I I I I ` I I I I I I I I F I I I # p p p p f p p p p p p p p p p + I I I F I I I I I I I I I I I I I I I I I I I ",
"I I I I I I I I I I I ` I I I I I I I I I F I + p p p p p p p p p p p p k k k p p + I I I I I I I I I F I I I I I I I I I I I I ",
"I I I I I I I I I F I ` ` I I I F I I I I I + p p p p p p p p p d d p k k k k k p p + I I I I ! I I I I I I I I I I I I I I I I ",
"I I I I I I I I I I I I ` ` I I ! I I I I + h p p p p p p p p p p p p p k k k k p p p + ! I I I I F I I I I I I I I I I I I I I ",
"I I I I I I I I I I I I I I I I I I I I ! + p p p p p p p p p p p p p p p p k k h p p + I I I I ! I I I R I I ! I I I I I I I I ",
"I I I I I I I I I ! I I I I I I I I I I + p p p h p p p p h p p p p s p p p p p p p p p + I I I I I I I I I I F I I I I I I I I ",
"I I I I I I I I I I I I I I ! I ! I I I + p p p i i p p p p p p p p p p p p p p k k p p + I I I I I I I I I ! I I I I I I I I I ",
"I I I I I I I I I I F I I I I I I I I + p p p p p p p p p p p p p p p p p p p p k k k p p + I I I I I I ! F I ^ I I I I I I I I ",
"I I I I I I I I I I F ! F I I I I I I + < p p p p p p p p p p p p s h p p p d p p k p p p + I I I I I I I I I ^ I I I I ! I I I ",
"I I I I I I I I I I I ! I I I F I I I + < 7 s p p h f p p p p p p p p p p p h p p p p p < + I I I I I I I I I ) ` I I I I I F I ",
"I I I I I I I I I F I ! I I I ! I I I % < < < p p p p p h p p p p p p p p p p p p p h < < + I F I I I I I ! F I ^ I I I F I I I ",
"I I I F I I I I + I I I I I F F I I ! + < < < 2 p p h p p p p p p p p p p p p p p p 4 7 < + I I I I I I I I I I ` I I I I I I I ",
"I F I I I I I % q + ` I I I I I I F I + < < < < < p p p p p p p h d p p p p p p p < < < 5 + I I I I I I I I I I F F I I I I I F ",
"I I I I I I I + q q % I I I I I I I I + < < < < < < p p p p p p h p p p p p p p < < < < < + ! I I I I ! I I I I I I F I I I F I ",
"I I I I I I I + q q q + I I I I I I I I + < < < < < < < p p p p p p p p p p < < < < < < + I I I I I I F I I I I F I I I I I I I ",
"I I I I I I I + q 8 q + % I I I I I F F + 2 < 3 < < < 7 7 < < < < < < < < < < < < 7 < < + I I I I ! I I I I F ! I I I I F I I I ",
"I I I I I I I I + q q q q + I I I I I + + q < < < < 3 < < < 2 2 < < < < < < < 4 < < < + I F I I I I I I I I I I I I I I I I I I ",
"I I I I I I I I I % q q v v + % + + + v m q q < < < < < < < 2 < < < < < < < < < < 6 + I I I I I I I I I F I I I I I I I I I I I ",
"I I I I I I I I I I + v v v v v v v v v v v q < < < < < < < < < < < < < < < 3 < 2 < + I I I I I I I I I I I I I I I I I I I I I ",
"I I I I I I I I F I I + v v v v m v m v v m q q 3 < < < < < < < < < < 4 < < < < < | + I I I ` I I I I I I I F I I I I I I I I I ",
"I I I I I I I I I I F I % + v v v m v v + + + X.C - < 3 < < < 7 < < < < < < < - Z | + I I I ` I ! I I R I I I ! I I I I I I I I ",
"I I I I I I I I I I ! I F I + % + + + + I I + ..C C Z - < < < < < < 4 < < < C C C | + ! I I ` ` F I I I I I I I I I I I I I I I ",
"I I I I I I I I I I I I I I I I ! I I I I ! + } C C C C C - : ; - - - - Z C C C C + I I I I I ` I ! I I I I I I I I I I I I I I ",
"I I I I I I I I I I I F I F I I I I F I { I I + C C C C C C C C Z C C C C C C C C + I F I I I ` ^ I F ! I I I I I I I I I I I I ",
"! I I I I I I I I I I I I I I I I I I I I I I I + C C C C C C C C C C C C Z C C % I I I F I I F I I I I I I I I I I I I I I I I ",
"! I F F I I I I I I I I I I I I I I I I I I I I + C C C C C z z z z z C C C C C % I I I I I I I I I I I I I I I I I I I I I I I ",
"I I I I I I I I I I I I I I I I I I I I I I I I + C C C C C C C Z C C C C C C C + I I I F I I I I I I I I I I I I I I I I I I I ",
"I I I I ` I I I I I I I I I I I I I I I I I I I % + q 8 C C C C C C C C C + + + + I I I I I I I I I I I I I I I I I I I I I I I ",
"I I I I ~ I ! I I I I I I I I I I I I I I I I I + + + q q q q + + + + + + + % + + I I I ! I I I I I I I I I I I I I I I I I I I ",
"I I I I I ) I ! I I I I I I I I I I I I I I I I I + + * + + + + + + + + + + % + ! I I ! I I I I I I I I I I I I I I I I I I I I ",
"F I ! I I ` I I I I I I I I I I I I I I I I I I I I % < < 4 < + I + < < < < + I I I I I I I ! I I I I I I I I I I I I I I I I I ",
"I I I I I ^ I I I I I I I I I I I I I I I I I I I R + < < < < + I I % < < < 3 + I I I I I I I I I I I I I I I I I I I I I I I I ",
"I I F I I ~ I I I I I I I I I I I I I I I I I I F % 7 < < p p + ! I F + + + + ! I I I I I I I I I I I I I F I F I I I I I I I I ",
"I I I I F ^ I I I I I I I ! I I I I I I I I I I I + 4 p p p p + I I I I I I I I I I I I I I I I I I I I I I I I I I I I I I I I ",
"I I I I I ) I F I I F I I F I I I I I I I I I I I I + p p p + I I I F ` I I I I I I I I I I I I I I I I I I I I I I I I I I I I ",
"F I I I I I I I ! I I I I ` I I I I I I I I I I I I F + + + I I I I I ` I I I I I I I I I I I I F I I I F F I I I I I I I I I I ",
"I I F I I I F I I F I I I ` ` I I I I I I I I I I I I I I I F I I I ` ` I I F ! I I I I I I I I I I I I I I I I I I I I I I I I ",
"I I I I I I ! I I F I I I I ` I I I I I I I I I I I I I I I F I F ` I I I I ! I I I I I I I I I I I I I I I I I I I I I I I I I ",
"I F I I I I ! I I I I F I I ` I I I I I I I I I I I I I I I I I I I I I I I I I I I I I I I I I I F ! ` ^ I I I I I I I I I I I ",
"I I I I I I I I ! I I I F I ` ! I I I I I I I I I I I I I I I I I F I I I I I I I I I I I I I I ! I ! ! ` I F F I I I I I I I I ",
"I I I I I I I I I I I I I I ^ I I I I I I I I I I I I I I I I I I I I I I I I I I I I I I I I I I I I I ^ I ! I I I I I I I I I ",
"I I I I I I I I I I I I I I ) I I I I I I I I I I I I I I I I I I I I I I I I I I I I I I I I I I I I I I ` I I I I I I I I I I ",
"I I I I I I I I ! I I F I I I I I I I I I I I I I I I I I I I I I I I I I I I I I I I I I I I I I I I I I ` I I I I I I I I I I ",
"I I I I I I I I I I I I I I I I I I I I I I I I I I I I I I I I I I I I I I I I I I I I I I I I I I ! I I ~ F I I I I I I I I I ",
"I I I I I I I I I I I I I I I I I I I I I I I I I I I I I I I I I I I I I I I I I I I I I I I I ! I I I I I I I I I I I I I I I ",
"I I I I I I I I I I I I I ! I I I I I I I I I I I I I I I I I I I I I I I I I I I I I I I I I I I F I I I I I F I I I I I I I I ",
"I I I I I I I I I I I I I F I I I I I I I I I I I I I I I I I I I I I I I I I I I I I I I I I I I I I I I I I I I I I I I I I I ",
"I I I I I I I I I I I F ! I ! I I I I I I I I I I I I I I I I I I I I I I I I I I I I I I I I I I I F I I I I I I I I I I I I I "
};
