/* XPM */
static char *fd6a2ab211b0411ebf7cab2ba82b1a5fimNzChtj0MVEeS4m[] = {
/* columns rows colors chars-per-pixel */
"64 64 140 2 ",
"   c #070801",
".  c #0A0B06",
"X  c #131703",
"o  c #141C04",
"O  c #151513",
"+  c #181715",
"@  c #171914",
"#  c #1B1C15",
"$  c #1D1D1A",
"%  c #172005",
"&  c #1A2304",
"*  c #1E2A06",
"=  c #1F201B",
"-  c #212D06",
";  c #273406",
":  c #2D3B0F",
">  c #262F10",
",  c #22221E",
"<  c #2C3616",
"1  c #343E14",
"2  c #252521",
"3  c #282723",
"4  c #272823",
"5  c #2A2A25",
"6  c #2E2D29",
"7  c #2F3126",
"8  c #2F322B",
"9  c #333327",
"0  c #33322D",
"q  c #363631",
"w  c #3C3A35",
"e  c #3E3D38",
"r  c #413E37",
"t  c #423F38",
"y  c #374C0B",
"u  c #3A4F0B",
"i  c #3D530A",
"p  c #3F4332",
"a  c #415A0D",
"s  c #4A630D",
"d  c #4D6A0D",
"f  c #516E0F",
"g  c #56750E",
"h  c #506D11",
"j  c #557512",
"k  c #56721D",
"l  c #5A751B",
"z  c #5E7C1A",
"x  c #4C5E25",
"c  c #424635",
"v  c #43413B",
"b  c #4C503F",
"n  c #54662A",
"m  c #474744",
"M  c #4C4C4A",
"N  c #4E5243",
"B  c #55514B",
"V  c #5C5F4E",
"C  c #585753",
"Z  c #5E5E59",
"A  c #5E6254",
"S  c #606257",
"D  c #646C55",
"F  c #63625F",
"G  c #676F59",
"H  c #656561",
"J  c #6E6C66",
"K  c #6D6D69",
"L  c #706E69",
"P  c #72706B",
"I  c #787772",
"U  c #7C7C7B",
"Y  c #62850F",
"T  c #638611",
"R  c #658B11",
"E  c #688C12",
"W  c #6B9412",
"Q  c #6F9913",
"!  c #729C13",
"~  c #75A013",
"^  c #7DAB15",
"/  c #80AF13",
"(  c #82B116",
")  c #8CBF18",
"_  c #8EC416",
"`  c #8EC218",
"'  c #90C417",
"]  c #91C519",
"[  c #94CB19",
"{  c #98CF1A",
"}  c #97D11A",
"|  c #9BD31A",
" . c #9DD81A",
".. c #A2DE1C",
"X. c #A7E61E",
"o. c #A8E71E",
"O. c #A7E81C",
"+. c #A9E81F",
"@. c #9CCC2A",
"#. c #A9E720",
"$. c #83827E",
"%. c #838484",
"&. c #8C8D86",
"*. c #8B8B8A",
"=. c #91918E",
"-. c #949493",
";. c #9D9F9E",
":. c gray63",
">. c gray66",
",. c #B9B8B6",
"<. c #BDBCBA",
"1. c #C0BFBD",
"2. c #BEC0BD",
"3. c #C5C5C4",
"4. c #CBCBCA",
"5. c #D1CDCC",
"6. c #D2D2D0",
"7. c #D6D6D4",
"8. c #DAD6D5",
"9. c #DADAD8",
"0. c #DADADA",
"q. c #DDDDDB",
"w. c #DEDDDB",
"e. c #DFDFDF",
"r. c gray86",
"t. c #E1DDDC",
"y. c gray88",
"u. c #E3E3E1",
"i. c #E3E5E2",
"p. c #E7E7E7",
"a. c gray91",
"s. c #E9E9E9",
"d. c #EAEAEA",
"f. c #ECECEA",
"g. c #ECECEC",
"h. c gray93",
"j. c #ECECEC",
"k. c #F8F8F8",
"l. c gray98",
"z. c #FBFDFC",
/* pixels */
"o.o.o.o.o.o.o.o.o.o.o.X.X.o.o.o.o.o.o.o.o.o.o.o.o.+.o.o.o.o.o.o.o.o.o.o.o.o.o.o.o.o.o.o.o.o.o.o.o.o.o.o.o.o.o.o.o.o.o.o.o.o.o.o.",
"o.o.o.o.o.o.o.o.o.o.o.o.o.o.o.o.o.o.o.o.o.o.o.o.o.o.o.o.o.o.o.+.o.o.o.o.o.o.o.o.o.o.o.o.o.o.+.X.o.o.o.o.o.o.o.o.o.o.o.o.o.o.o.o.",
"o.o.o.o.o.o.o.o.o.o.o.o.o.o.o.o.o.o.o.o.o.o.o.o.+.o.o.o.o.o.o.o.o.o.o.o.o.o.o.o.o.o.o.o.o.o.o.o.o.o.o.o.o.o.o.o.o.o.o.o.o.o.o.o.",
"o.o.o.o.o.o.o.o.#.o.o.o.o.o.o.o.o.o.o.o.o.o.o.o.o.o.o.o.o.o.o.o.o.o.o.o.o.o.o.o.o.o.o.o.o.o.o.o.o.o.o.o.o.o.o.o.o.o.o.o.o.o.o.o.",
"o.o.o.o.o.o.o.o.o.@.@.o.o.X.o.o.o.o.o.o.o.o.o.o.o.@.X.o.X.o.o.o.o.o.o.o.o.o.o.o.+.o.@.@.o.o.o.o.o.o.o.o.o.o.o.o.o.o.o.o.o.o.o.o.",
"o.o.o.o.o.o.o.o.o.@.+.X.o.o.o.o.o.o.o.o.o.o.o.o.o.@.o.o.+.o.o.o.o.o.o.o.o.o.o.o.o.+.@.o.o.o.o.o.o.o.o.o.o.o.o.o.o.o.o.o.o.o.o.o.",
"o.o.o.o.o.o.o.o.@.@.o.o.+.o.o.+.o.o.o.o.o.o.o.o.+.@.@.o.o.o.o.X.o.o.o.o.o.o.o.o.o.o.@.o.o.o.o.o.o.o.o.o.o.o.o.o.o.o.o.o.o.o.o.o.",
"o.o.o.o.o.o.o.o.@.o.o.o.o.o.o.o.o.o.o.o.o.o.o.o.o.o.@.@.o.o.o.+.o.o.o.o.o.o.o.o.+.@.@.o.X.X.o.o.o.o.o.o.o.o.o.o.o.o.o.o.o.o.o.o.",
"o.o.o.o.o.o.o.o.o.@.o.o.o.+.o.X.o.o.o.o.o.o.o.o.o.X.o.@.o.o.o.+.o.o.o.o.o.o.o.o.o.@.o.o.o.+.o.X.o.X.o.o.o.o.@.o.o.o.o.o.o.o.o.o.",
"o.o.o.o.o.o.o.o.o.o.o.o.+.o.o.o.o.o.o.o.o.o.o.o.o.o.o.o.o.+.o.o.o.o.o.o.o.o.o.o.o.o.o.o.+.o.o.o.o.o.o.o.X.o.o.@.o.o.o.o.o.o.o.o.",
"o.o.o.o.o.o.o.o.o.X.o.o.o.o.o.o.o.o.o.o.o.o.o.o.o.o.o.X.o.o.o.o.o.o.o.o.o.o.o.o.o.X.o.o.o.o.o.o.o.o.o.o.o.o.X.o.o.o.o.o.o.o.o.o.",
"o.o.o.o.o.o.o.o.o.+.o.o.o.O.+.o.o.o.o.o.o.o.o.o.o.o.o.+.+.o.o.O.o.o.o.o.o.o.o.o.o.+.o.o.o.O.+.o.o.o.o.o.o.o.X.o.o.o.o.o.o.o.o.o.",
"o.o.o.o.o.o.o.o.o.o.o.X.o.o.o.o.o.o.o.o.o.o.o.o.o.o.X.o.o.o.o.o.o.o.o.o.o.o.o.o.o.o.o.X.o.o.o.o.o.o.o.o.o.o.o.o.o.o.o.o.o.o.o.o.",
"o.o.o.o.o.o.o.o.o.o.o.o.o.o.o.o.o.o.o.o.o.o.o.o.o.o.o.o.o.o.o.o.o.o.o.o.o.o.o.o.o.o.o.o.o.o.o.o.o.o.+.o.o.o.o.o.o.o.o.o.o.o.o.o.",
"o.o.o.o.o.o.o.o.o.o.X.o.o.o.o.o.o.o.o.o.o.o.o.o.X.o.o.o.o.o.o.o.o.o.o.o.o.o.o.o.o.o.X.o.o.o.o.o.o.o.o.o.o.o.o.X.o.o.o.o.o.o.o.o.",
"o.o.o.o.o.o.o.o.o.o.o.o.o.o.o.o.o.o.o.o.o.o.o.o.o.o.o.o.o.o.o.o.o.o.o.o.o.o.o.o.o.o.o.o.o.o.o.o.o.o.o.o.o.o.o.o.o.o.o.o.o.o.o.o.",
"o.o.o.o.o.o.o.o.o.o.o.@.o.o.o.o.o.o.o.o.o.o.o.o.o.o.+.o.o.o.o.o.o.o.o.o.o.o.o.o.+.X.o.o.o.o.+.o.o.o.o.o.o.o.o.o.o.o.o.o.o.o.o.o.",
"o.o.o.o.o.o.o.o.o.o.o.@.o.o.o.o.o.o.o.X.o.o.o.o.o.o.+.o.o.d a ] o.o.o.o.o.o.o.o.o.o.o.o.X.o.o.o.o.o.o.X.o.o.o.o.o.o.o.o.o.o.o.o.",
"o.o.o.o.o.o.o.o.o.X.o.@.@.o.o.o.o.o.o.o.o.o.o.o.o.@.o.[ ( n x R ` X.o.o.o.o.o.o.o.o.o.o.+.o.o.o.o.o.o.o.o.o.o.o.o.o.o.o.o.o.o.o.",
"o.o.o.o.o.o.o.o.o.o.o.o.@.@.o.o.o.X.o.o.o.o.o.o.o.@.X.! * U =.8 f | ..o.o.o.X.X.o.o.o.o.o.o.o.o.o.X.o.o.o.o.o.o.o.o.o.o.o.o.o.o.",
"o.o.o.o.o.o.o.o.o.o.o.o.o.o.o.o.+.o.o.o.O.o.o.+.o.@.+.Q o %.s.e.K * Q o.o.o.o.o.o.o.o.o.o.o.o.o.+.o.o.o.O.o.o.+.o.o.o.o.o.o.o.o.",
"o.o.o.o.o.o.o.o.o.+.o.o.o.o.o.o.o.o.o.o.o.o.o.X.@.@.o.! % H 6.f.;.c l [ X.o.o.@.o.X.+.o.o.o.o.o.o.o.o.o.o.o.o.X.o.o.o.o.o.o.o.o.",
"o.o.o.o.o.o.o.o.o.o.o.o.o.o.+.o.o.o.o.o.o.o.+.o.@.o.o.Q o 2 &.u.s.<.A g o.X.X.@.@.o.o.o.o.o.o.o.o.o.o.o.o.o.+.o.o.o.o.o.o.o.o.o.",
"o.o.o.o.o.o.o.o.o.o.X.o.o.o.o.o.o.o.o.o.+.X.o.@.@.o.o.Q o , B K ,.l.4.G i ~ o.o.@.o.o.o.o.o.o.o.o.o.o.o.+.X.o.@.o.o.o.o.o.o.o.o.",
"o.o.o.o.o.o.o.o.o.o.o.+.o.o.X.o.o.+.o.o.o.o.o.X.o.o.#.! & 2 v v U 3.w.%.o W X.o.@.@.o.O.o.o.o.o.o.o.o.o.o.o.o.@.o.o.o.o.+.o.o.o.",
"o.o.o.o.o.o.o.o.o.o.o.o.o.o.o.o.o.o.X.o.o.o.o.o.o.o.o.Q o 2 r q v K <.*.X R o.o.o.@.o.o.X.o.+.o.o.o.o.o.o.o.o.@.@.o.o.o.o.o.X.o.",
"o.o.o.o.o.o.o.o.o.o.o.o.X.o.o.o.o.o.o.o.o.o.+.+.o.o.E ;   , e q 0 e Z M @ : R o.o.o.o.o.+.o.o.o.o.o.o.o.o.+.X.o.@.o.o.o.X.o.o.o.",
"o.o.o.o.o.o.o.o.o.o.o.o.o.o.o.o.o.o.X.o.o.o.X.^ ~ Q ; . O 6 w 0 0 6 5 5 2 @ : Q ! Q Q ! Q ! [ o.o.o.o.o.o.o.o.o.@.o.o.o.o.o.o.o.",
"o.o.o.o.o.o.o.o.o.o.@.o.o.X.o.o.+.+.o.o.o.+.o.a & o   O q w q q 0 5 4 , 2 2 # o & o o % o * / o.o.o.o.o.o.o.o.o.X.X.o.o.o.o.o.X.",
"o.o.o.o.o.o.o.o.X.o.@.o.o.o.X.o.o.o.o.o.o.[ g D U %.m 6 w w 6 $ O + = 2 , 3 5 2 2 , , F %.U n s o.o.o.+.o.o.o.o.o.o.X.o.o.o.X.o.",
"o.o.o.o.o.o.o.o.o.o.o.@.o.X.o.o.o.o.o...! z V 3.0.<.H w q 5 < y i y > $ 2 5 0 r v B &.4.s.-.x i o.o.o.X.o.o.o.o.X.o.o.o.o.o.o.o.",
"o.o.o.o.o.o.o.o.o.o.o.@.@.o.o.o.o.o.o. .- p ,.l.4.P v q q $ y ^ { ( u + 6 6 0 q r J w.h.u.q T ] o.+.o.o.o.o.X.+.o.o.o.o.X.o.o.o.",
"o.o.o.o.o.o.o.o.o.o.o.o.@.@.+.o.X.o.] g H -.s.1.$.v 0 0 0 O i [ o.} i O 0 0 0 v I ,.s.>.K h ) o.o.o.o.o.o.o.o.o.o.o.o.o.o.o.o.o.",
"o.o.o.o.o.o.o.o.o.o.o.o.o.@.o.o.X.[ W 7 0.s.i.P v 0 0 6 6 + y ( } ( u $ q 0 v J <.l.2.N * [ o.+.o.o.o.o.X.o.o.o.o.o.o.o.o.o.o.o.",
"o.o.o.o.o.o.o.o.+.o.o.o.o.o.@.o.o.a x *.h.7.=.B e 6 6 5 4 = > u i i < 5 0 w F <.0.4.S k Q ..o.X.o.o.o.o.o.o.o.o.o.o.o.o.o.o.o.o.",
"o.o.o.o.o.o.o.o.o.o.o.o.o.X.@.o.X.d n U *.K 3 2 , + , 4 2 2 = + O # 5 0 0 t Z *.%.G f ` o.o.@.o.o.o.o.o.o.o.X.o.o.o.o.o.o.o.o.o.",
"o.o.o.o.o.o.o.o.o.o.o.o.o.X.X.o.o.o.( & o o X X o o # 2 2 , 4 6 0 q 0 0 q w 5 X o u X.o.o.+.@.o.+.o.o.O.o.o.o.+.o.o.o.o.o.o.o.o.",
"o.o.o.o.o.o.o.o.X.o.o.o.X.o.+.X.o.o.] E E E Y T W R : @ , 2 5 6 0 0 0 w w 5 1 R W ! ..o.o.X.@.@.X.o.o.o.o.o.o.o.o.o.o.o.o.o.o.o.",
"o.o.o.o.o.o.o.o.o.o.o.o.o.o.o.o.o.o.o.o.o.o.o.o.O.o.R : @ m C e 0 0 q q 9 1 T o.o.o.o.X.o.o.o.@.o.+.o.o.o.o.o.o.o.o.o.o.o.o.o.o.",
"o.o.o.o.o.o.o.o.+.o.o.o.o.o.O.o.o.X.+.X.o.o.o.o.o.o.o.Q o %.<.L v q r 3 o R X.o.o.o.o.o.+.o.o.@.@.o.X.+.o.o.o.o.o.o.o.o.o.o.o.o.",
"+.o.o.o.o.o.o.o.o.o.o.o.o.o.o.o.o.o.o.o.o.o.o.o.o.+.o.~ & U 8.3.U v v 3 o W X.o.o.o.o.o.o.o.o.o.o.o.o.o.o.o.o.o.o.o.o.o.o.o.o.o.",
"+.o.X.X.o.o.o.o.o.o.o.o.o.o.o.o.o.o.o.o.o.o.o.o.o.o.o.^ i D 4.z.<.L B , X T o.o.o.o.o.o.o.o.o.o.o.o.o.o.o.o.o.o.o.o.o.o.o.o.o.o.",
"o.o.o.o.o.o.o.o.o.o.o.o.o.o.o.o.o.o.o.o.o.o.o.o.o.o.O...o.g A <.p.t.*.2 X T X.X.o.o.o.o.o.o.o.o.o.o.o.o.o.o.o.o.o.o.o.o.o.o.o.o.",
"o.o.o.o.@.o.o.o.o.o.o.o.o.o.o.o.o.o.o.o.o.o.o.o.o.o.o.o.X._ l b :.s.5.H o E o.+.o.o.o.o.o.o.o.o.o.o.o.o.o.o.o.o.o.o.o.o.o.o.o.o.",
"o.o.o.o.@.o.+.o.o.o.o.o.o.o.o.o.o.o.o.o.o.o.o.o.o.o.o.o.o.X.! - H 0.h.*.o E o.o.o.o.o.o.o.o.o.o.o.o.o.o.o.o.o.o.o.o.o.o.o.o.o.o.",
"o.o.o.o.o.@.o.+.o.o.o.o.o.o.o.o.o.o.o.o.o.o.o.o.o.o.o.o.o.o...| j 0 -.U & E o.o.o.o.o.o.o.o.o.o.o.o.o.o.o.o.o.o.o.o.o.o.o.o.o.o.",
"X.o.+.o.o.@.o.o.o.o.o.o.o.o.o.o.o.o.o.o.o.o.o.o.o.X.o.o.o.o.o.o.` E x n ^ ' X.o.o.o.o.o.o.o.o.o.o.o.o.o.o.o.o.o.o.o.o.o.o.o.o.o.",
"o.o.o.o.o.@.o.o.o.o.o.o.o.o.o.o.o.o.o.o.o.o.o.o.o.o.o.o.+.o.o.o.o.[ i s X.+.o.o.o.o.o.o.o.o.o.o.o.o.o.o.o.o.o.o.o.o.o.o.o.o.o.o.",
"o.o.X.o.o.@.o.o.o.o.o.o.o.o.o.o.o.o.o.o.o.o.o.o.o.o.o.o.o.o.o.o.X.o.o.o.o.X.+.o.o.o.o.o.o.o.o.o.o.o.o.o.o.X.o.X.o.o.o.o.o.o.o.o.",
"o.o.o.o.X.@.o.o.o.o.o.o.o.+.o.o.o.o.o.o.o.o.o.o.o.o.o.o.o.o.o.o.o.o.o.o.o.o.o.o.o.o.o.o.o.o.o.o.o.o.o.o.o.o.o.o.o.o.o.o.o.o.o.o.",
"o.o.o.o.o.@.o.X.o.o.X.o.o.X.o.o.o.o.o.o.o.o.o.o.o.o.o.o.o.o.o.o.o.o.o.@.o.o.o.+.o.o.o.o.o.o.o.o.o.o.o.o.o.o.o.o.o.o.o.o.o.o.o.o.",
"X.o.o.o.o.o.o.o.+.o.o.o.o.@.o.o.o.o.o.o.o.o.o.o.o.o.o.o.o.o.o.o.o.o.X.@.o.o.o.o.o.o.o.o.o.o.o.o.X.o.o.o.X.X.o.o.o.o.o.o.o.o.o.o.",
"o.o.X.o.o.o.X.o.o.X.o.o.o.@.@.o.o.o.o.o.o.o.o.o.o.o.o.o.o.o.o.o.o.o.@.@.o.o.o.o.o.o.o.o.o.o.o.o.o.o.o.o.o.o.o.o.o.o.o.o.o.o.o.o.",
"o.o.o.o.o.o.+.o.o.X.o.o.o.o.@.o.o.o.o.o.o.o.o.o.o.o.o.o.o.o.o.o.o.@.o.o.o.o.o.o.o.o.o.o.o.o.o.o.o.o.o.o.o.o.o.o.o.o.o.o.o.o.o.o.",
"o.X.o.o.o.o.+.o.o.o.o.X.o.o.@.o.o.o.o.o.o.o.o.o.o.o.o.o.o.o.o.o.+.o.X.X.o.o.X.o.o.o.o.o.o.o.o.o.o.X.+.@.@.o.o.o.o.o.o.o.o.o.o.o.",
"o.o.o.o.o.o.o.o.+.o.o.o.X.o.@.+.o.o.o.o.o.o.o.o.o.o.o.o.o.o.o.o.o.o.o.o.o.o.o.o.o.o.o.o.o.o.o.o.+.o.+.+.@.o.X.X.o.o.o.o.o.o.o.o.",
"o.o.o.o.o.o.o.o.o.o.o.o.o.o.@.o.o.o.o.o.o.o.o.o.o.o.o.o.o.o.o.o.o.o.o.o.o.o.o.o.o.o.o.o.o.o.o.o.o.o.o.o.@.o.+.o.o.o.o.o.o.o.o.o.",
"o.o.o.o.o.o.o.o.o.o.o.o.o.o.@.o.o.o.o.o.o.o.o.o.o.o.o.o.o.o.o.o.o.o.o.o.o.o.o.o.o.o.o.o.o.o.o.o.o.o.o.o.o.@.o.o.o.o.o.o.o.o.o.o.",
"o.o.o.o.o.o.o.o.+.o.o.X.o.o.o.o.o.o.o.o.o.o.o.o.o.o.o.o.o.o.o.o.o.o.o.o.o.o.o.o.o.o.o.o.o.o.o.o.o.o.o.o.o.@.o.o.o.o.o.o.o.o.o.o.",
"o.o.o.o.o.o.o.o.o.o.o.o.o.o.o.o.o.o.o.o.o.o.o.o.o.o.o.o.o.o.o.o.o.o.o.o.o.o.o.o.o.o.o.o.o.o.o.o.o.o.+.o.o.@.X.o.o.o.o.o.o.o.o.o.",
"o.o.o.o.o.o.o.o.o.o.o.o.o.o.o.o.o.o.o.o.o.o.o.o.o.o.o.o.o.o.o.o.o.o.o.o.o.o.o.o.o.o.o.o.o.o.o.o.+.o.o.o.o.o.o.o.o.o.o.o.o.o.o.o.",
"o.o.o.o.o.o.o.o.o.o.o.o.o.+.o.o.o.o.o.o.o.o.o.o.o.o.o.o.o.o.o.o.o.o.o.o.o.o.o.o.o.o.o.o.o.o.o.o.o.X.o.o.o.o.o.X.o.o.o.o.o.o.o.o.",
"o.o.o.o.o.o.o.o.o.o.o.o.o.X.o.o.o.o.o.o.o.o.o.o.o.o.o.o.o.o.o.o.o.o.o.o.o.o.o.o.o.o.o.o.o.o.o.o.o.o.o.o.o.o.o.o.o.o.o.o.o.o.o.o.",
"o.o.o.o.o.o.o.o.o.o.o.X.+.o.+.o.o.o.o.o.o.o.o.o.o.o.o.o.o.o.o.o.o.o.o.o.o.o.o.o.o.o.o.o.o.o.o.o.o.o.X.o.o.o.o.o.o.o.o.o.o.o.o.o."
};
