/* XPM */
static char *_fc1aa8c85874c5dbe008f43c10fa91a6XHk7nreK2lJCSh7[] = {
/* columns rows colors chars-per-pixel */
"64 64 37 1 ",
"  c #ED171F",
". c #EC1B1F",
"X c #EC1F1D",
"o c #EA241C",
"O c #E72B1E",
"+ c #E5321E",
"@ c #E3381E",
"# c #EE1720",
"$ c #EB1B21",
"% c #ED1921",
"& c #EB1D23",
"* c #EC1F23",
"= c #ED1C24",
"- c #EA2320",
"; c #E92721",
": c #E72B22",
"> c #E72E21",
", c #E92921",
"< c #E63122",
"1 c #E43522",
"2 c #E23C20",
"3 c #DF431F",
"4 c #D75C1B",
"5 c #E0421F",
"6 c #D4651C",
"7 c #CF711C",
"8 c #D0711C",
"9 c #DE4821",
"0 c #DA5120",
"q c #D95621",
"w c #D85921",
"e c #D46321",
"r c #B9B41D",
"t c #C68E1C",
"y c #C09F1D",
"u c #B1CB1D",
"i c #A8E61D",
/* pixels */
"iiiiiiriiiiiiiiiiiiiiiiiiiiiiiiiiiiiiiiiiiiiiiiiiiiiiiiiiiiiiiii",
"iiiirirriiiiiiiiiiiiiiiiiiiiiiiiiiiiiiiiiiiiiiiiiiiiiiiiriiiiiii",
"iiirtr1rrriiiiiiiiiiiiiiiiiiiiiiiiiiiiiiiiiiiiiiiiiiiiririiiiiii",
"iiir,t>1rtriiiiiiiiiiiiiiiiiiiiiiiiiiiiiiiiiiiiiiiiiirtr1iiriiii",
"iii1>,%>*r7riiiiiiiiiiiiiiiiiiiiiiiiiiiiiiiiiiiiiiiiit,i1iiriiii",
"iii11% %*%ttriiiiiiiiiiiiiiiiiiiiiiiiiiiiiiiiiiiiiii7,11=i>iriii",
"iiii%%% %%%ttriiiiiiiiiiiiiiiiiiiiiiiiiiiiiiiiiiiir7t*1==%11riii",
"iiir=%%%%%%*t7iiiiiiiiiiiiiiiiiiiiiiiiiiiiiiiiiiit4r%1=%%%=*iiii",
"ii1rr=%%%%%%*r7iiiiiiiiiiiiiiiiiiiiiiiiiiiiiiiiit7>%1r%%%=%1iiii",
"ii11>>=%=%%%%*rtriiiiiiiiiiiiiiiiiiiiiiiiiiiiii7t*%i=%%%%%>iiiii",
"iii1**%=%=%%%%1rrriiiiiiiiiiiiiiiiiiiiiiiiiiir7t**i=%%%%%1riiiii",
"iiii1**%=%%=%%**rtriiiiiiiiiiiiiiiiiiiiiiiiit4t%1i%%%=%%*r11iiii",
"iiiii1***==%=%%>%ityiiiiiiiiiiiiiiiiiiiiiiit4>%1i%%%=%%&ti11iiii",
"iiiiii11**==%=%%>%irtiiiiiiiiiiiiiiiiiiiii77*=1=%%%%%%;ti11iiiii",
"iiiiiii11,-==%=%%<%eyruiiiiiiiiiiiiiiiiir7r*%i=%%%%%%;ti11iiiiii",
"iiiiiiii1*>;==%=%%,*1trriiiiiiiiiiiiiiit7r%*i%%%%%%%-r1*1iiiiiii",
"iiiiiiiiii**$&=%%%%%%ertiiiiiiiiiiiiii7t1%ii%=%=%%&tr1*1iiiiiiii",
"iiiiiiiiiii1>,&==%%%%**utriiiiiiiiiir7r**i=%%%%%%*ti11iiiiiiiiii",
"iiiiiiiiiiii11,:=%=%%%1*yrriiiiiiiit7r%1i%%%=%%%;ti11iiiiiiiiiii",
"iiiiiiiiiiiii11,,=%%%%%%1yyiiiiiiitt1%ii%=%=%%%-t1*1iiiiiiiiiiii",
"iiiiiiiiiiiiii1;>;==%%%%*%rtriiiitt**i=%%%%%%&-r1*1iiiiiiiiiiiii",
"iiiiiiiiiiiiiiii*--=%=%%%*1yuiiitt*1i=%%=%%%;tr1*1iiiiiiiiiiiiii",
"iiiiiiiiiiiiiiiiei,,=%%%%%%1ttitt*1i=%%=%%%;ri11iiiiiiiiiiiiiiii",
"iiiiiiiiiiiiiiiii1;e2=%=%%%*1y8t*1i=%%=%%:tr1*1iiiiiiiiiiiiiiiii",
"iiiiiiiiiiiiiiiiiii**&=%=%%%%76*1i=%%=%%;ti11iiiiiiiiiiiiiiiiiii",
"iiiiiiiiiiiiiiiiiiiei,,=%=%%+%*>r=%%=%%;ri11iiiiiiiiiiiiiiiiiiii",
"iiiiiiiiiiiiiiiiiiii1;w9=%# %%%i%%%=%&tr1*1iiiiiiiiiiiiiiiiiiiii",
"iiiiiiiiiiiiiiiiiiiiie1*%# %%%>%%%=%&ti11iiiiiiiiiiiiiiiiiiiiiii",
"iiiiiiiiiiiiiiiiiiiiii15oO%%%%%%%%%*ti11iiiiiiiiiiiiiiiiiiiiiiii",
"iiiiiiiiiiiiiiiiiiiiiitX%%%=%%%%%%&6u11iiiiiiiiiiiiiiiiiiiiiiiii",
"iiiiiiiiiiiiiiiiiiiiit4*%*=%%%%%%%%r>>iiiiiiiiiiiiiiiiiiiiiiiiii",
"iiiiiiiiiiiiiiiiiiiit7.%1=%%=%%%% e%>uriiiiiiiiiiiiiiiiiiiiiiiii",
"iiiiiiiiiiiiiiiiiiit7*%i=%%%%%%%.%%%;rtiiiiiiiiiiiiiiiiiiiiiiiii",
"iiiiiiiiiiiiiiiiiit7**1=%%%%%%*%%%%%;*rtiiiiiiiiiiiiiiiiiiiiiiii",
"iiiiiiiiiiiiiiiiitt**i=%%=%%%*@-%%%%%%1triiiiiiiiiiiiiiiiiiiiiii",
"iiiiiiiiiiiiiiiitt**i=%%%%%%-0*%=%=%%%%ittiiiiiiiiiiiiiiiiiiiiii",
"iiiiiiiiiiiiiiit7*1i=%%=%%-t>**;3=%=%%>%irtiiiiiiiiiiiiiiiiiiiii",
"iiiiiiiiiiiiiit7.11=%%=%%*t1*1i1><=%=%%>%1trriiiiiiiiiiiiiiiiiii",
"iiiiiiiiiiiiir7.*1=%%=%%;r1*1ii1i>>=%=%%,*1tiriiiiiiiiiiiiiiiiii",
"iiiiiiiiiiiiit.*1==%%%%tt1*1iiii11>;=%%%%%%1t7iiiiiiiiiiiiiiiiii",
"iiiiiiiiiiiit,*1==%%%%-i11iiiiiii11,:==%%%%**i7iiiiiiiiiiiiiiiii",
"iiiiiiiiiiir7.1%=%%%%:r1*1iiiiiiii11,:=%=%%%%*ttriiiiiiiiiiiiiii",
"iiiiiiiiiiit.>%==%=%:i11iiiiiiiiiii11,;=%=%%%%1rrriiiiiiiiiiiiii",
"iiiiiiiiiit,**==%%%;r11iiiiiiiiiiiii1*>;=%%% %%*t7riiiiiiiiiiiii",
"iiiiiiiiir7.*%=%%%%r11iiiiiiiiiiiiiiii**&==%%%%>%itriiiiiiiiiiii",
"iiiiiiiiit.>%==%=%:1*1iiiiiiiiiiiiiiii1i,>=%%% %%%r7riiiiiiiiiii",
"iiiiiiiir;.*%=%%%;1*1iiiiiiiiiiiiiiiiii11>-==%%%%*%itriiiiiiiiii",
"iiiiiiiit.*%==%%$r11iiiiiiiiiiiiiiiiiiii1*>;=%%=%%*%ttriiiiiiiii",
"iiiiiiir;*%%=%%%,11iiiiiiiiiiiiiiiiiiiiiii**$==%=%%*%rrriiiiiiii",
"iiiiiiir.*%==%%$1*1iiiiiiiiiiiiiiiiiiiiiii11>,==%% %*%rtriiiiiii",
"iiiiiii,%%%=%%%,11iiiiiiiiiiiiiiiiiiiiiiiiii**%==%% %**itiiiiiii",
"iiiiiir,*%==%%*11iiiiiiiiiiiiiiiiiiiiiiiiiii11>,=%% %%%*ttiiiiii",
"iiiiiiy%=%==%%**1iiiiiiiiiiiiiiiiiiiiiiiiiiiii**%:%% %%%1tiiiiii",
"iiiiiu<*%==%=*11iiiiiiiiiiiiiiiiiiiiiiiiiiiiiii1>,%%%%%%%tyiiiii",
"iiiiii*>===%%**1iiiiiiiiiiiiiiiiiiiiiiiiiiiiiiii1>,=%%==%1riiiii",
"iiiiie1===%=*11iiiiiiiiiiiiiiiiiiiiiiiiiiiiiiiii11>%%===%*ruiiii",
"iiiiii>====%**1iiiiiiiiiiiiiiiiiiiiiiiiiiiiiiiiii1>*=====*eiiiii",
"iiiii1=====011iiiiiiiiiiiiiiiiiiiiiiiiiiiiiiiiiii11>======eiiiii",
"iiiii<i===rr11iiiiiiiiiiiiiiiiiiiiiiiiiiiiiiiiiiii1>*====iiiiiii",
"iiiieii1=;u11iiiiiiiiiiiiiiiiiiiiiiiiiiiiiiiiiiiii1e1>==*<iiiiii",
"iiiiiieeqri11iiiiiiiiiiiiiiiiiiiiiiiiiiiiiiiiiiiiiii1;-q11iiiiii",
"iiiiiiiiuieeiiiiiiiiiiiiiiiiiiiiiiiiiiiiiiiiiiiiiiiiiiru1;eiiiii",
"iiiiiiiiiiiiiiiiiiiiiiiiiiiiiiiiiiiiiiiiiiiiiiiiiiiiiiiiiiiiiiii",
"iiiiiiiiiiiiiiiiiiiiiiiiiiiiiiiiiiiiiiiiiiiiiiiiiiiiiiiiiiiiiiii"
};
