/* XPM */
static char *c0b77110c38d4a308026a508f35e7fb3TttqqPFdNq2Uv7xn[] = {
/* columns rows colors chars-per-pixel */
"64 64 16 1 ",
"  c #060606",
". c #0E071B",
"X c #131313",
"o c #1B1B1B",
"O c #1A1932",
"+ c #272727",
"@ c gray24",
"# c #5D2C28",
"$ c #2A2F4E",
"% c #424C6E",
"& c #8A4836",
"* c #A8E61D",
"= c #9BCC29",
"- c #92A1B9",
"; c #C7CFDD",
": c white",
/* pixels */
"****************************************************************",
"****************************************************************",
"****************************************************************",
"****************************************************************",
"*********==**************=****************==********************",
"*********=***************=****************=*********************",
"********==***************==***************=*********************",
"********=*****************==*************==*********************",
"*********=*****************=*************=************=*********",
"*******************************************************=********",
"****************************************************************",
"****************************************************************",
"******************************.......***************************",
"****************************..+++++++..*************************",
"**************************..+++++++++++..***********************",
"*************************.+++++++++++++++.**********************",
"***********=************.+++++++++++++++++.*********************",
"***********=***********.++++++++@@@++++++++.********************",
"***********==*********.++++++++@@@@@++++++++.*******************",
"************==********.++++++++@@@@@++++++++.*******************",
"*********************.+++++++++@@@@@+++++++++.******************",
"*********************.++++++++++@@@++++++++++.******************",
"********************.+++++++++++++++++++++++++.*****************",
"********************.+++++++++++++++@++++++++o.********=********",
"********************.o+++++++++++++@@@++++++oo.********=********",
"********************.oo+++++++++++++@++++++ooo.********==*******",
"********************.ooo+++     ++++++++++oooo.*********=*******",
"********************.oooo++::::: +++++++++oooo.*********=*******",
"**********=*********.oooooo   ::++++++++oooooo.*****************",
"**********=**********.ooooo   ::++++++ooooooo.******************",
"***********=*********.ooooo   ooooooooooooooo.*********.********",
"***********==*********.ooooooooooooooooooooo.*********.$.*******",
"************==********.oooooooooooooooooooo.*********.$$.*******",
"*************=*********.ooooooooooooooooooo.********.$$$.*******",
"**************=*********.Xoooooooooooooooo$.*******..$$$.*******",
"**************=**********.XoooooooooooooX$%%.*=***.$$$$.********",
"**************************..ooooooooooX$$%%%%.....%%$$.*********",
"***************************.$$XXXXXXX$$%&%%%%%%%%%%%%.**********",
"***************************.&&$$$$$$$%&&&&.%%%%%%%%%.***********",
"**************************.&&&&&&&&&&&&&&&..%%%%%%..************",
"**************************.&&&&&&-;;&&&&&&.*......**************",
"*************************.&&&&&&--;;;&&&&&.*********************",
"*************************.&&&&&&;;;;;&&&&#.*********************",
"****=*********************.&&&&&;;;;;&&##.**********************",
"****=**********************......;;;.....***********************",
"*****=**********************...OO......*************************",
"*****=***********************.........**************************",
"*****=************************.ooooo.***************************",
"*****=***********************.oooooo.***************************",
"*****=************************......****************************",
"*****=*****************************=****************************",
"*************=*********************=****************************",
"*************==*******************==****************************",
"**************=******************=******************************",
"**************=************************************==***********",
"**************=*************************************=***********",
"**************=*************************************=***********",
"**************=**************************************=**********",
"*****************************************************=**********",
"*****************************************************=**********",
"****************************************************************",
"****************************************************************",
"****************************************************************",
"****************************************************************"
};
