/* XPM */
static char *result[] = {
/* columns rows colors chars-per-pixel */
"64 64 99 2 ",
"   c #2E1F19",
".  c #351E1B",
"X  c #112817",
"o  c #112C18",
"O  c #182919",
"+  c #13331B",
"@  c #153A1E",
"#  c #1B3E1C",
"$  c #262017",
"%  c #2D241C",
"&  c #272A1C",
"*  c #32211C",
"=  c #39231E",
"-  c #2D3417",
";  c #213E18",
":  c #343517",
">  c #363218",
",  c #3A3519",
"<  c #163D20",
"1  c #3F2420",
"2  c #422521",
"3  c #492722",
"4  c #462822",
"5  c #4A2923",
"6  c #5D3328",
"7  c #12421C",
"8  c #1D411A",
"9  c #12481D",
"0  c #224319",
"q  c #254D1E",
"w  c #2F4F19",
"e  c #24531D",
"r  c #2F541A",
"t  c #31551A",
"y  c #355D1D",
"u  c #35611E",
"i  c #174321",
"p  c #1A4621",
"a  c #174A22",
"s  c #184B23",
"d  c #185225",
"f  c #1A5F26",
"g  c #274F21",
"h  c #265421",
"j  c #285221",
"k  c #275A22",
"l  c #285C22",
"z  c #345F20",
"x  c #176326",
"c  c #186527",
"v  c #1B6927",
"b  c #196728",
"n  c #196B28",
"m  c #19732A",
"M  c #276424",
"N  c #366521",
"B  c #396520",
"V  c #346A22",
"C  c #386E22",
"Z  c #357525",
"A  c #414717",
"S  c #434818",
"D  c #544F1A",
"F  c #4B5117",
"G  c #4E5118",
"H  c #555C17",
"J  c #51521A",
"K  c #5C551E",
"L  c #575E18",
"P  c #61561F",
"I  c #5D6B19",
"U  c #647717",
"Y  c #6D5D23",
"T  c #715F24",
"R  c #1B942F",
"E  c #1C9630",
"W  c #1D9831",
"Q  c #1DA332",
"!  c #1EAF35",
"~  c #1EB135",
"^  c #79AC1C",
"/  c #7CB31E",
"(  c #6F9823",
")  c #80A61B",
"_  c #86BD1D",
"`  c #8ABD1C",
"'  c #8AB827",
"]  c #8DBA28",
"[  c #87C11E",
"{  c #8BC31D",
"}  c #95C61A",
"|  c #95CE1C",
" . c #9ACE1C",
".. c #97D11D",
"X. c #99D31D",
"o. c #A2DB19",
"O. c #A7E51C",
"+. c #A8E61D",
"@. c #9BCC29",
/* pixels */
"+.+.+.+.+.+.+.+.+.+.+.+.@.| ..O.O.@._ h i i i g ' _ k i j X.+.+.+.+.[ h i g ' X.+.+.+.+.+.+.+.X.@.X.O.O.+.+.+.+.+.+.+.+.+.+.+.+.",
"+.+.+.+.+.+.+.+.+.+.+.X.N h V [ [ Z k p c n b s h k v x j _ X.X.+.{ V n b p k Z { ..X.+.+.+.{ C l u X.+.+.+.+.+.+.+.+.+.+.+.+.+.",
"+.+.+.+.+.+.+.+.+.+.+.X.k b n k k E W d a b n x a b m b i j k N [ N b m n s R W M e u { O.{ Z W E k X.+.+.+.O.O.+.+.+.+.+.+.+.+.",
"+.+.+.+.+.+.+.+.+.+.+.X.N b m b d Q ~ E p a a < i b n p a b b h ^ k n m n d Q ~ R @ i M / V W ! E u ..+.+.+.+.O.+.+.+.+.+.+.+.+.",
"+.+.+.+.+.+.+.+.+.@.@.+.{ V b b d E ~ Q d n n i < < < i x m b a h i n x p p W ! W 9 x c h 9 R R e ^ ..O.O.X...X.O.+.+.+.+.+.+.+.",
"+.+.+.+.+.+.+.+.+.@.+.+.O./ h p i d W E d x m n i i < + x x 7 x b a i < i i a E R 7 x m b + @ @ @ 8 y { [ u q y X.+.+.+.+.+.+.+.",
"+.+.+.+.+.+.O.X.' ] +.+.{ z a b b i s s i a x x s b b < + + + x m b i a n x o @ + + @ x x o o @ x n c 8 q x x e @.O.+.+.+.+.+.+.",
"+.+.+.+.+.+.X.z g r ` ` w + c m n i < b b i i a n m c o o + @ + c b a n m n o X X + + + + o o x m m c @ x m x e _ X.+.+.+.+.+.+.",
"+.+.+.+.O.O.| 0 @ @ 8 8 o + n m x + 7 x m n 7 i x x @ o + R R 9 + + + n m c o X + c c + X X + x v c @ + c c < < q y X.+.+.+.+.+.",
"+.+.+.+.O.O.X.r 7 9 7 o X + x x + o o @ x x + @ a i + o @ R ~ R + X + x b a @ o + x m x + o + @ @ + + < @ @ i c x e ..+.+.+.+.+.",
"+.+.+.+.+.+.O.{ r 7 7 o o o + + o 7 9 o + o + @ < i x x + 7 R R @ o + + < a b c + i n c + @ x x @ O + + + @ c m x e  .+.+.+.+.+.",
"+.+.+.+.+.+.O.X.^ # o o 7 7 o o 7 9 7 o o o o + < x m n 7 o @ + + x n i i b m b i i a + + x m n < < < @ @ @ c c i y ..+.+.+.+.+.",
"+.+.+.+.+.+.X.t 8 o X o 7 9 7 o 7 7 + X o 7 7 o @ x n i < < + + + x m x a x x a i b x i i n m x i x n b < + < @ 0 { +.+.+.+.+.+.",
"+.+.+.+.+.+.X.0 7 9 9 + + 7 9 o o X o o o 9 9 7 o i i + < x n x @ a n x < < < i a b m c i b x i n m m x < + @ @ g [ +.+.+.+.+.+.",
"+.+.+.+.O.O.X.t 7 9 9 7 o o o X X + 7 7 + 7 9 9 + x x i @ x m m x @ @ @ + + < b b d b c < < < < b n b i + < b n b V { +.+.+.+.+.",
"+.+.+.+.O.O.O.[ 8 7 7 7 o o 7 + X X 7 9 7 + 7 7 + x m x < # c n x < + < < + @ x m b i < < o + + @ @ @ @ + < b n m b V X.+.+.+.+.",
"+.+.+.+.+.+.+.X.0 + o o o @ b x @ o + 7 @ o o @ @ i x c @ @ 7 i < + @ x x 7 + 9 x x + o + 7 7 o + 7 9 7 o o + 9 v x e X.+.+.+.+.",
"+.+.+.+.+.+.+.{ h 9 7 + + p n m b < o @ @ o @ x b @ @ @ @ < c c @ + @ m m x @ o + + o o 7 9 7 + 7 7 9 7 o o o + 0 0 t X.+.+.+.+.",
"+.+.+.+.+.+.X.z b n f @ + i b m n a s W R 9 x m n < @ @ @ c m c @ + @ c m m + o 7 7 o o 9 9 7 o 7 9 7 o o X X # [ X.X.O.+.+.+.+.",
"+.+.+.+.+.+...g c b 7 i i < p n x d W ~ Q a n m c i n x i c c i @ < + 7 x x o 7 9 9 o o @ 9 + X o o o o X X X t X.O.O.O.+.+.+.+.",
"+.+.+.+.+.+.{ 0 @ @ i W W d < i < s Q ! E s x n a x m b @ @ @ @ x x i + + + o 9 9 7 o o o o o o 7 7 o X X + 8 ^ O.+.+.+.+.+.+.+.",
"+.+.+.+.+...y < @ @ 7 W ! W s < i s W W d a a i @ x x i @ @ @ @ n m x < + + o 9 7 o o o o o X + 9 9 9 X o 7 7 r ..+.+.+.+.+.+.+.",
"+.+.+.+.+...g c n x i s W W d b b i i p a x x a @ @ @ @ x n x i i x x a x x + o o o o 7 7 o X + 7 9 7 + 7 9 9 r X.+.O.+.+.+.+.+.",
"+.+.+.+.+...u b m m x @ i i n m b i < < i n m c @ f f i n m m n @ < i x m x + o X o 7 9 7 o X o + 7 7 + 7 7 # ( | ..X.O.+.+.+.+.",
"+.+.+.+.+.O.{ V b n x < @ @ x n s i i < < b m n < b n c 7 x n x @ + @ b b i 7 i + o 7 7 + o + o o o o o o o o q e k B X.+.+.+.+.",
"+.+.+.+.O.O.X./ g @ @ @ @ @ @ < i b m b a a x c + c M b o + + + @ < @ @ @ i E Q E 7 o o X + x x @ o @ @ + @ a R Q R l ..+.+.+.+.",
"+.+.+.+.+.X.y q @ + @ x n c @ @ < b m m n i @ @ o + b c @ + o + c n b i + @ W ! ~ W + o + d c m c @ b c # i R ~ ~ W C ..+.+.+.+.",
"+.+.+.+.+...q x n i < x m m n @ < < b n x a x x @ o o < x x + o b m m x < @ a R Q W 7 p E E d x c i c m c i W Q W Z { +.+.+.+.+.",
"+.+.+.+.+.X.u n m c @ 7 x n x @ + < < i < i n m x + o + c m x + @ x n c @ + < p i 7 i W ~ W i @ @ + < b b @ i i k [ +.+.+.+.+.+.",
"+.+.+.+.+.+.{ V n x + o + + @ + < f x < < i n m n + o o @ c c @ @ i i < @ < c c @ + i E W s @ @ @ @ @ @ @ @ @ @ g X.+.+.+.+.+.+.",
"+.+.+.+.+.+.O./ h + o o 7 7 o @ b m x < < @ i x x < + + + i i < i c b @ @ c m c @ @ @ i 7 < c n b < + + i c n b q | +.+.+.+.+.+.",
"+.+.+.+.+.O.' t 7 7 o 7 9 9 o + x x < + @ 7 + @ < + + + < x x i c m n @ @ c c i i c b < O @ c m m x < < b m m b y ..+.+.+.+.+.+.",
"+.+.+.+.O.X.t 7 9 7 o 7 9 7 o o + o o 7 9 7 + @ @ @ @ @ c m c 7 n m x @ + @ @ @ b m c @ o o @ x n c @ @ x v b u { +.+.+.+.+.+.+.",
"+.+.+.+.O.| 0 7 7 + o 7 7 + o o o o o 7 7 < + 7 7 7 + @ c c 7 @ x x 7 + @ + + < c x a @ 7 7 7 + @ @ @ + @ # q { +.+.+.+.+.+.+.+.",
"+.+.+.+.O.X.t 0 8 0 o + o o 7 7 o o o @ @ + @ 7 7 9 9 @ 7 @ + o + + + 7 7 @ @ + 7 # @ + 7 9 9 7 o o 7 7 o o 0 ..+.+.+.+.+.+.+.+.",
"+.+.+.O.O.O.X.X.| ^ 8 7 7 + 9 9 7 o o 7 # < + @ 7 9 7 @ 7 7 o o 7 7 + 7 7 i + @ 7 7 + + @ 7 9 7 o + 7 9 7 o w X.+.+.+.+.+.+.+.+.",
"+.+.+.+.+.+.+.+.X.t 7 9 7 8 7 9 7 o 7 9 7 @ @ + @ @ @ @ 9 7 o 7 9 9 o 9 9 7 @ 7 9 7 @ + + @ + o o o o 7 7 0 { O.+.+.+.+.+.+.+.+.",
"+.+.+.+.+.+.+.+.| 8 7 7 r ^ 0 7 7 o 7 9 + @ @ 7 7 @ + 7 9 9 o 9 7 o X o 7 7 o 7 7 @ + @ 9 7 + o 7 7 o ; 0 t X.O.+.+.+.+.+.+.+.+.",
"+.+.+.+.+.+.O.O.X.t 0 t { ..0 + o o o o o + 7 9 7 o + 7 9 o X + o o X o o o o o + @ + 7 9 7 + 7 9 7 8 _ | X.O.O.+.+.+.+.+.+.+.+.",
"+.+.+.+.O.O.O.O.O.X.| X.O.` 0 7 9 o o o o o 7 7 + o X o o + X o 7 7 o o 9 9 o o + + + 7 7 o o 7 7 + 8 [ O.O.O.O.+.+.+.+.+.+.+.+.",
"+.+.+.+.+.+.+.+.+.+.+.+. .t 7 9 7 # o 7 7 o o + o X X + 7 7 o 7 9 7 o 9 9 7 o o 7 7 + o o o X o o 7 7 r [ +.+.+.+.+.+.+.+.+.+.+.",
"+.+.+.+.+.+.+.+.+.+.+.+. .0 7 7 r ^ 0 7 9 7 + 7 7 + o 7 9 7 o 7 7 o o 7 7 + X o 7 9 9 o 7 7 + X o 7 9 7 j ..+.+.+.+.+.+.+.+.+.+.",
"+.+.+.+.+.+.+.+.+.+.+.+...t 0 t { ..t 7 9 7 o 7 9 7 o 7 9 7 o + + o X o o o o o 7 9 9 o 7 9 7 o # 0 7 7 0 @.+.+.+.+.+.+.+.+.+.+.",
"+.+.+.+.@.+.+.+.+.+.+.+.O...| ..O.O.{ r 7 7 + 7 9 7 & # 7 + o 7 7 7 + X o 7 7 + o 7 7 8 7 9 7 ; ` { t 0 t X.+.+.+.+.+.+.+.+.+.+.",
"+.+.+.+.@.+.+.+.+.+.+.+.+.+.+.+.+.+.O.{ r 8 0 + 7 # % & O X o 7 9 9 7 o o 7 7 7 o 8 t / t 7 7 0 X.O.X.| X.+.+.+.+.+.+.+.+.+.+.+.",
"+.+.+.+.+.@.+.+.+.+.+.+.+.+.+.+.+.+.+.O.....` - O & * * * % O o 7 7 @ o O & # 7 0 _ X.O.{ t 0 t X.O.O.O.+.+.+.+.+.+.+.+.+.+.+.+.",
"+.+.+.+.+.@.+.+.+.+.+.+.+.+.+.+.+.+.+.+.O.O.X.A   $ * * * * % % $ % % % * % % % :  .O.O.O.X.X.X.O.+.O.O.+.+.+.+.+.+.+.+.+.+.+.+.",
"+.+.+.+.+.@.+.+.+.+.+.+.+.+.+.+.+.+.+.+.+.O.O.` > % * % * * * * % * * % * * *   A  .O.O.O.O.O.O.O.+.+.O.+.+.+.+.+.+.+.+.+.+.+.+.",
"+.+.+.+.+.@.+.+.+.+.+.+.+.+.+.+.+.+.+.+.+.+.+.X.S % * * * * * 2 * * * . . .   A } O.+.+.+.+.+.+.O.+.+.+.+.+.+.+.+.+.+.+.+.+.+.+.",
"+.+.+.+.+.@.+.+.+.+.+.+.+.+.+.+.+.O.X.X.X.O.+.+.` > * * 1 * * 4 * * * 2 .   , ` +.+.+.+.+.+.+.+.+.+.+.+.+.+.+.+.+.+.+.+.+.+.+.+.",
"+.+.+.+.+.@.+.+.+.+.+.+.+.+.+.+.+.X.u e V { +.+.X., 1 = 4 = * 2 * * = 2 . , ,  .+.+.+.+.+.+.+.+.+.+.+.+.+.+.+.+.+.+.+.+.+.+.+.+.",
"+.+.+.+.+.+.+.+.+.+.+.+.+.@.+.+.+.X.u x n V { +.| , 1 * 6 5 = 2   1 . 2   2 ,  .+.+.+.+.+.+.+.+.+.+.+.+.+.+.+.+.+.+.+.+.+.+.+.+.",
"+.+.+.+.+.+.+.+.+.+.+.+.+.@.@.+.+.O.} C v x t o. ., 1 * 6 5 4 2   2 * 2   2 ,  .+.+.+.+.+.+.+.+.+.+.+.+.+.+.+.+.+.+.+.+.+.+.+.+.",
"+.+.+.+.+.+.+.+.+.+.+.+.+.+.@.+.+.+.O.{ u e u } | , 1 * 6 5 * 2   2 3 2   2 , } +.+.+.+.+.+.+.+.+.+.+.+.+.+.+.+.+.+.+.+.+.+.+.+.",
"+.+.+.+.+.+.+.+.+.+.+.+.+.+.@.+.+.+.+.O.X.X.} I ) : 1 * 6 5 $ 5   2 3 3 . 3 : o.+.+.+.+.+.+.+.+.+.+.+.@.@.+.+.+.+.+.+.+.+.+.+.+.",
"+.+.+.+.+.+.+.+.+.+.+.+.+.+.@.+.+.+.O.O.O.O.O.o.U F K J T P G P G K P T P H L o.O.O.O.+.+.+.+.+.+.+.+.+.@.+.+.+.+.+.+.+.+.+.+.+.",
"+.+.+.+.+.+.+.+.+.+.+.+.+.+.@.+.+.+.+.O.O.O.+.+.` H P P T L F Y G K D T P P H  .+.O.+.O.+.+.+.+.+.+.+.+.@.+.+.+.+.+.+.+.+.+.+.+.",
"+.+.+.+.+.+.+.+.+.+.+.+.+.+.@.+.+.+.+.O.+.+.+.+.O.o.o.o.o.o.o.o.o.o.o.o.o.o.o.O.O.O.O.O.O.O.+.+.+.+.+.+.+.@.+.+.+.+.+.+.+.+.+.+.",
"+.+.+.+.+.+.+.+.+.+.+.+.+.+.+.+.+.O.+.+.+.+.+.+.O.o.o.} o. .o.o. . . . . . . .O.+.+.O.O.O.+.+.+.+.+.+.+.+.@.+.+.+.+.+.+.+.+.+.+.",
"+.+.+.+.+.+.+.+.+.+.+.+.+.+.+.+.O.+.+.+.+.+.+.+.O.o.O.O.O.o.O.O.O.O.O.O.O.O.O.O.O.O.O.O.O.O.+.+.+.+.+.+.+.@.+.+.+.+.+.+.+.+.+.+.",
"+.+.+.+.+.+.+.+.+.+.+.+.+.+.+.+.O.O.O.O.+.+.+.+.O.+.+.+.+.+.+.+.+.+.+.+.O.O.+.+.O.O.+.O.+.+.+.+.+.+.+.+.+.+.+.+.+.+.+.+.+.+.+.+.",
"+.+.+.+.+.+.+.+.+.+.+.+.+.+.+.+.O.O.O.O.+.+.+.+.+.+.+.+.+.+.+.+.+.+.+.+.O.O.+.+.+.+.+.+.+.+.+.+.+.+.+.+.+.+.+.+.+.+.+.+.+.+.+.+.",
"+.+.+.+.+.+.+.+.+.+.+.+.+.+.+.+.` O.O.O.+.+.+.+.O.O.O.+.O.O.O.O.O.O.+.+.+.+.O.O.O.+.+.+.+.+.+.+.+.+.+.+.+.+.+.+.+.+.+.+.+.+.+.+.",
"+.+.+.+.+.+.+.+.+.+.+.+.+.+.+.+.o.o.O.O.O.+.+.O.O.O.O.O.O.O.O.+.+.+.O.O.O.O.O.O.+.+.+.+.O.+.+.+.+.+.+.+.+.+.+.+.+.+.+.+.+.+.+.+."
};
