/* XPM */
static char *result[] = {
/* columns rows colors chars-per-pixel */
"64 64 50 1 ",
"  c #070605",
". c #080705",
"X c #0C0907",
"o c #0E0B08",
"O c #130E0A",
"+ c #16110C",
"@ c #1C140E",
"# c #1F1710",
"$ c #201711",
"% c #251A13",
"& c #2A1D15",
"* c #2E2117",
"= c #2F2218",
"- c #352214",
"; c #392517",
": c #34241A",
"> c #3A2718",
", c #3D291B",
"< c #432D1D",
"1 c #46301F",
"2 c #422E21",
"3 c #463121",
"4 c #483121",
"5 c #4B3423",
"6 c #4C3523",
"7 c #483324",
"8 c #4A3425",
"9 c #4D3626",
"0 c #4F3827",
"q c #503726",
"w c #503827",
"e c #543A27",
"r c #523A28",
"t c #543B29",
"y c #563D2B",
"u c #583E2B",
"i c #583E2C",
"p c #5A402C",
"a c #5D412E",
"s c #60432F",
"d c #60442F",
"f c #614430",
"g c #644731",
"h c #664832",
"j c #684932",
"k c #694A34",
"l c #6B4C35",
"z c #6D4D36",
"x c #A8E61D",
"c c #9BCC29",
/* pixels */
"xxxxxxxxxxxxxxxxxxxxxxxxxxxxxxxxxxxxxxxxxxxxxxxxxxxxxxxxxxxxxxxx",
"xxxxxxxxxxxxxxxxxxxxxxxxxxxxxxxxxxxxxxxxxxxxxxxxxxxxxxxxxxxxxxxx",
"xxxxxxxxxxxxxxxxxxxxxxxxxxxxxxxxxxxxxxxxxxxxxxxxxxxxxxxxxxxxxxxx",
"xxxxxxxxxxxxxxxxxxxxxxxxxxxxxxxxxxxxxxxxxxxxxxxxxxxxxxxxxxxxxxxx",
"xxxxxxxxxccxxxxxxxxxxxxxxcxxxxxxxxxxxxxxxxccxxxxxxxxxxxxxxxxxxxx",
"xxxxxxxxxcxxxxxxxxxxxxxxxcxxxxxxxxxxxxxxxxcxxxxxxxxxxxxxxxxxxxxx",
"xxxxxxxxccxxxxxxxxxxxx&&&ccxxxxxx--xxx---xcxxxxxxxxxxxxxxxxxxxxx",
"xxxxxxxxcxxxxxxxxx&xx&&&&&cc&xxx---xx-----cxxxxxxxxxxxxxxxxxxxxx",
"xxxxxxxxxcxxxxxxx&&x&&&&&&&&&xxx---x------xxxxxxxxxxxxcxxxxxxxxx",
"xxxxxxxxxxxxxxxxx&&&&&&&&&&&&xx-------;---xxxxxxxxxxxxxcxxxxxxxx",
"xxxxxxxxxxxxxxxxx,>&&&&::&&&&&------->4,--4xxxxxxxxxxxxxxxxxxxxx",
"xxxxxxxxxxxxxxxxx<<:&&:<,&&&&&&--;;->4r<;-9yxxxxxxxxxxxxxxxxxxxx",
"xxxxxxxxxxxxxxxx-,<<:-<<,-&&&&&-;<<;4yy5,>9yxxxxxxxxxxxxxxxxxxxx",
"xxxxxxxxxxxxxxxx-,<<>;<<,-&&&--;4w9<9ahw39ryxxxxxxxxxxxxxxxxxxxx",
"xxxxxxxxxxxxxxxx-;,<>-,<<,>*&,<4aar39azw4yafxxxxxxxxxxxxxxxxxxxx",
"xxxxxxxxxxxxxxxx;;><,--<3<<>:9uaka9<9ajw4ihzxxxxxxxxxxxxxxxxxxxx",
"xxxxxxxxxxxcxxxx<<<w4,;49<;<9tfka9<<9yu4wjsixxxxxxxxxxxxxxxxxxxx",
"xxxxxxxxxxxcxxxxx,<54,;5r<;,9rasy4<9aa9<wzarxxxxxxxxxxxxxxxxxxxx",
"xxxxxxxxxxxccxxxx-;,<,;49<;;<wiiy53wfd3<ehaxxxxxxxxxxxxxxxxxxxxx",
"xxxxxxxxxxxxccxxx---,<;<<;-><wfki5<1wr19yixxxxxxxxxxxxxxxxxxxxxx",
"xxxxxxxxxxxxxxxxx,>-,<,<,-><<wgzi5<<9w<9agxxxxxxxxxxxxxxxxxxxxxx",
"xxxxxxxxxxxxxxxxx<<;,143<><<1wdhi5<4wr49ujxxxxxxxxxxxxxxxxxxxxxx",
"xxxxxxxxxxxxxxxxx<<;,4r4<<<<1wyyy53ryyr45yxxxxxxxxxxxxxxxxxxxxxx",
"xxxxxxxxxxxxxxxxx<<-,4t5<<95<49ty43tffywwrxx4jhyxxxxxxxcxxxxxxxx",
"xxxxxxxxxxxxxxxxx<<>,49<,<rq<3rayrwyhly80ax<4dawxxxxxxxcxxxxxxxx",
"xxxxxxxxx<>><<<xx<<<<<<:-<993rfkpfhugjr:2jq<1w94txxxxxxccxxxxxxx",
"xxxxxxxx4>4<><,-<<394,-&&::2thgahfpypr,&2k4><3<4gu<xxxxxcxxxxxxx",
"xxxxxxxw4,<<-,<<<<<94<:$@@@&3rypzfty9,#+:a<-,<<4at4xxxxxcxxxxxxx",
"xxxxxxx<<<;-x-<9<>;<<<<$XXX+%%,ykftr>@XX&w<--xxx<9txxxxxxxxxxxxx",
"xxxxxxx;;;cxxx>>;,,;,<;>%X.Xoo@,yp9:@XX:9rxxxxxx<<qky<xxxxxxxxxx",
"xxxxxxx>;-xcxxx-->,><,-<,%%%&&:,4ip2:&*8iyxxxxxxx<4uw5xxxxxxxxxx",
"xxxxxx><,-xccxxxxx;<3<;<<<<9iyiy3ujuyyiyrxxxxxxxx<<4qtxxxxxxxxxx",
"xxxxxx9<---xccxxxxx<99<<<;<tkpfg49iyyakw<xxxxxxx<<6geqzxxxxxxxxx",
"xxxxxw<;----xcxxxxx,15<>>,<wa39a49ifar82<xxxxxxx<<6uq6uxxxxxxxxx",
"xxxxw4---x--xxcxxxx-,<3:*,<60:,r44tzf7&,4xxxxxxx<xx<xx<xxxxxxxxx",
"xxxx;;x--xxx-xcxxxx-,4w:&*,9w:,yr,,jf3=3yxxxxxcx<xx<xxx--xxxxxxx",
"xxxx--x--xxxxxxxxxx-;<4<:&*2r:,t2=:i9:&3ixxxxxcxxxx<xxxxxxxxxxxx",
"xxxx--xx-xxxxxxxxxx--;33>&%:3&=,%@*0,&:4wxxxxxccxxx<xxxxxxxxxxxx",
"xxx-xxxxxxxxxxxxxxxx-,w5>&&&%OXoXX@8,:94<xxxxxxcxxxxxxxxxxxxxxxx",
"xxxxxxxxxxxxxxxxxxxx,<tr4>*$OX..  o$+%w4<xxxxxxccxxxxxxxxxxxxxxx",
"xxxxxxxxxxxxxxxxxxxx<4tr9<&@@X.o#+. O:iw4xxxxxxxxxxxxxxxxxxxxxxx",
"xxxxxxxxxxxxxxxxxxxx<4w4<<@$,@.+3*.O:pkarxxxxxxxxxxxxxxxxxxxxxxx",
"xxxxxxxxxxxxxxxxxxxx<<,<<<>><2$O8*O,3qppxxxxxxxxxxxxxxxxxxxxxxxx",
"xxxxcxxxxxxxxxxxxxxx4,-,34<<1t3:4,:pw3rxxxxxxxxxxxxxxxxxxxxxxxxx",
"xxxxcxxxxxxxxxxxxxxr4,;,5r,;<wfj44pzt3rxxxxxxxxxxxxxxxxxxxxxxxxx",
"xxxxxcxxxxxxxxxxxx<3,;<<5r,;<wgk45azy<4wyxxxxxxxxxxxxxxxxxxxxxxx",
"xxxxxcxxxxxxxxxxx<<,>,,,<<,,<waa43wfy4<qyxxxxxxxxxxxxxxxxxxxxxxx",
"xxxxxcxxxxxxxxxx<<,-,,----<<1ryw414wr9<9rrxxxxxxxxxxxxxxxxxxxxxx",
"xxxxxcxxxxxxx<<<;;-----xx-<<1r94wrw431<<34wyyxxxxxxxxxxxxxxxxxxx",
"xxxxxcxxxxx-->,>----xxxxxx<<<44<wxxx<<<<<<4953xxxxxxxxxxxxxxxxxx",
"xxxxxcxxxx---------xxxxxxx<<<<<<xxxcx<<<<<<<<<xxxxxxxxxxxxxxxxxx",
"xxxxxxxxxxxxxcxxxxxxxxxxxxxxxxxxxxxcxxxxxxxxxxxxxxxxxxxxxxxxxxxx",
"xxxxxxxxxxxxxccxxxxxxxxxxxxxxxxxxxccxxxxxxxxxxxxxxxxxxxxxxxxxxxx",
"xxxxxxxxxxxxxxcxxxxxxxxxxxxxxxxxxcxxxxxxxxxxxxxxxxxxxxxxxxxxxxxx",
"xxxxxxxxxxxxxxcxxxxxxxxxxxxxxxxxxxxxxxxxxxxxxxxxxxxccxxxxxxxxxxx",
"xxxxxxxxxxxxxxcxxxxxxxxxxxxxxxxxxxxxxxxxxxxxxxxxxxxxcxxxxxxxxxxx",
"xxxxxxxxxxxxxxcxxxxxxxxxxxxxxxxxxxxxxxxxxxxxxxxxxxxxcxxxxxxxxxxx",
"xxxxxxxxxxxxxxcxxxxxxxxxxxxxxxxxxxxxxxxxxxxxxxxxxxxxxcxxxxxxxxxx",
"xxxxxxxxxxxxxxxxxxxxxxxxxxxxxxxxxxxxxxxxxxxxxxxxxxxxxcxxxxxxxxxx",
"xxxxxxxxxxxxxxxxxxxxxxxxxxxxxxxxxxxxxxxxxxxxxxxxxxxxxcxxxxxxxxxx",
"xxxxxxxxxxxxxxxxxxxxxxxxxxxxxxxxxxxxxxxxxxxxxxxxxxxxxxxxxxxxxxxx",
"xxxxxxxxxxxxxxxxxxxxxxxxxxxxxxxxxxxxxxxxxxxxxxxxxxxxxxxxxxxxxxxx",
"xxxxxxxxxxxxxxxxxxxxxxxxxxxxxxxxxxxxxxxxxxxxxxxxxxxxxxxxxxxxxxxx",
"xxxxxxxxxxxxxxxxxxxxxxxxxxxxxxxxxxxxxxxxxxxxxxxxxxxxxxxxxxxxxxxx"
};
