/* XPM */
static char *af5c580da1344f72e9bac20fde6dd9f6PBvk9FzA4vCq3WAV[] = {
/* columns rows colors chars-per-pixel */
"64 64 49 1 ",
"  c #070605",
". c #090706",
"X c #0C0907",
"o c #0E0B08",
"O c #130E0A",
"+ c #16100C",
"@ c #1C140E",
"# c #251A12",
"$ c #2A1D15",
"% c #321F12",
"& c #2D2017",
"* c #2F2118",
"= c #352214",
"- c #392517",
"; c #352519",
": c #3B2718",
"> c #3D291B",
", c #432D1E",
"< c #46301F",
"1 c #432E21",
"2 c #463020",
"3 c #493222",
"4 c #4B3423",
"5 c #4C3422",
"6 c #483324",
"7 c #493424",
"8 c #4E3625",
"9 c #4F3828",
"0 c #503726",
"q c #513927",
"w c #543A27",
"e c #523A28",
"r c #543B2A",
"t c #573D2B",
"y c #583E2B",
"u c #593E2C",
"i c #5A402D",
"p c #5D422E",
"a c #60432F",
"s c #60442F",
"d c #624530",
"f c #654732",
"g c #674933",
"h c #694A33",
"j c #694A34",
"k c #6B4C35",
"l c #6E4E36",
"z c #A8E61D",
"x c #9BCC29",
/* pixels */
"zzzzzzzzzzzzzzzzzzzzzzzzzzzzzzzzzzzzzzzzzzzzzzzzzzzzzzzzzzzzzzzz",
"zzzzzzzzzzzzzzzzzzzzzzzzzzzzzzzzzzzzzzzzzzzzzzzzzzzzzzzzzzzzzzzz",
"zzzzzzzzzzzzzzzzzzzzzzzzzzzzzzzzzzzzzzzzzzzzzzzzzzzzzzzzzzzzzzzz",
"zzzzzzzzzzzzzzzzzzzzzzzzzzzzzzzzzzzzzzzzzzzzzzzzzzzzzzzzzzzzzzzz",
"zzzzzzzzzxxzzzzzzzzzzzzzzxzzzzzzzzzzzzzzzzxxzzzzzzzzzzzzzzzzzzzz",
"zzzzzzzzzxzzzzzzzzzzzzzzzxzzzzzzzzzzzzzzzzxzzzzzzzzzzzzzzzzzzzzz",
"zzzzzzzzxxzzzzzzz$$$zzzzzxxzz==zz===zzzzzzxzzzzzzzzzzzzzzzzzzzzz",
"zzzzzzzzxzzzz$zz$$$$$zzzzzxx===z=====zzzzxxzzzzzzzzzzzzzzzzzzzzz",
"zzzzzzzzzxzzz$$z$$$$$$z$$zz====z======zzzxzzzzzzzzzzzzxzzzzzzzzz",
"zzzzzzzzzzzzz$$$$$$$$$$$$z========-===zzzzzzzzzzzzzzzzzxzzzzzzzz",
"zzzzzzzzzzzzz>;$$$$:;$$$$$=======,3-=>ezzzzzzzzzzzzzzzzzzzzzzzzz",
"zzzzzzzzzzzzz,>;$&:,:$$$$$===--=,8q>=>ezzzzzzzzzzzzzzzzzzzzzzzzz",
"zzzzzzzzzzzz=,,>&;,,:=$$$$==-,>:qur<:,ezzzzzzzzzzzzzzzzzzzzzzzzz",
"zzzzzzzzzzzz=,,,=>,,:=$$$==>8q3,edd33qrzzzzzzzzzzzzzzzzzzzzzzzzz",
"zzzzzzzzzzzz=:,,-->,>:;$=,,qdi82egh38udzzzzzzzzzzzzzzzzzzzzzzzzz",
"zzzzzzzzzzzz-->,-=-,,,,;>rudhy32edf38pjzzzzzzzzzzzzzzzzzzzzzzzzz",
"zzzzzzzzzzzx,,3q,-:84,-2etggy3,2eur2phizzzzzzzzzzzzzzzzzzzzzzzzz",
"zzzzzzzzzzzx,>,8<:>e8>=,qtppe22qdy3,ajtzzzzzzzzzzzzzzzzzzzzzzzzz",
"zzzzzzzzzzzxx=-,,::83>=>3tuue23tgt,3pgtzzzzzzzzzzzzzzzzzzzzzzzzz",
"zzzzzzzzzzzzx==-,>-,>==>3tgfe2,3t82qtuzzzzzzzzzzzzzzzzzzzzzzzzzz",
"zzzzzzzzzzzzz>--,,>,-=>,3tkhr2,,e42rdgzzzzzzzzzzzzzzzzzzzzzzzzzz",
"zzzzzzzzzzzzz,>-,23,>:,,3tfde2,3e83qajzxzzzzzzzzzzzzzzzzzzzzzzzz",
"zzzzzzzzzzzzz,>-,8q,,,,,3rtte23rttq3qyzxxzzzzzzzzzzzzzzzzzzzzzzz",
"zzzzzzzzzzzzz,>=,8e2,383,3qte23ufprqerzzxzzzzzzzzzzzzzzxzzzzzzzz",
"zzzzzzzzzzzzz,>:,48>,3t3,3yirqeulfe7tpzzxxzzzzzzzzzzzzzxzzzzzzzz",
"zzzzzzzzzzzzz,,,,,>&;2q33thfuhdujd6;rf<zzxzzzzzzzzzzzzzxxzzzzzzz",
"zzzzzzzzzzzz,,482:&$&;;3ijddgsutp7;$ts>>zzzzzzzzzzzzzzzzxzzzzzzz",
"zzzzzzzzzzz>,>28<>&@@@@;8ttdlitr2&@@7y->3zzzzzzzzzzzzzzzxzzzzzzz",
"zzzzzzzzzz->,->,,,:+X..@#$2pjie7&+.O>8->3eeezzzzzzzzzzzzzzzzzzzz",
"zzzzzzz,,,8<->>-,>-;@ .XoO#2ut2$O.O>eez,,338tzzzzzzzzzzzzzzzzzzz",
"zzzzzzz,>,2,=>>>,:-,=##$$&;18pe>&$;euzzz,,,3rzzzzzzzzzzzzzzzzzzz",
"zzzzzz8>-,-xx=>,2>-,,,,eutuq3ddttuuezzzzzz,8uzzzzzzzzzzzzzzzzzzz",
"zzzzz,:==zzzxx,2q3,,>-,agugp2ruttdf3zzzzzzzfh8zzzzzzzzzzzzzzzzzz",
"zzzz,>,>zzzzzxz>33,,,>,yt1ut<qpdt93,zzzzzzzzy07zzzzzzzzzzzzzzzzz",
"zzzq,>8zzzzzzzx-,22,,>,q2&6q37pli>&,zzzzzzzz,8yzzzzzzzzzzzzzzzzz",
"zzz,,>-zzzzzzzx-,8q,;;,q2&6t8;8ku>;8zzzzzzzz,,yh4zzzzzzzzzzzzzzz",
"zzz-::zzzzzzzzz=-,3,>;;83*78>$1u1>6rzzzzzzz-z,5wqzzzzzzzzzzzzzzz",
"zzz-==zzzzzzzzz==>332:$2,#;>;#>8;1tqzzzzzz=-z,388zzzzzzzzzzzzzzz",
"zz-,:=zzzzzzzzzz=,re4>&>;OX&6@&e18e2zzzzzzzz,zzs,zzzzzzzzzzzzzzz",
"z83>===zzzzzzzzz>4e42,>,,>O#8+$e38q,zzzzzzzzz=>5yzzzzzzzzzzzzzzz",
"z82-===zzzzzzzzz,8e,,,,,5r;>3$>u3qi8zzzzzzzzz=%>hzzzzzzzzzzzzzzz",
"e,==zz=zzzzzzzzz,8q,,,->3tgp28dg5yhtzzzzzzzzzzzzzzzzzzzzzzzzzzzz",
">>z===zzzzzzzzzz,,>,88,,3tla,qupfspzzzzzzzzzzzzzzzzzzzzzzzzzzzzz",
"=z===zzzzzzzzzzz,:=,43,,8ppyttuaaytzzzzzzzzzzzzzzzzzzzzzzzzzzzzz",
"zz==xzzzzzzzzzzq,:-,2,->qhqwgudg58ezzzzzzzzzzzzzzzzzzzzzzzzzzzzz",
"zzzzzxzzzzzzzzz,:>,,88,-,ur88ruue42zzzzzzzzzzzzzzzzzzzzzzzzzzzzz",
"zzzzzxzzzzzzzz>>>>>>,2,>,et8,3qtt5,qzzzzzzzzzzzzzzzzzzzzzzzzzzzz",
"zzzzzxzzzzzzz,>-,:===-,,3rr8228ee33ezzzzzzzzzzzzzzzzzzzzzzzzzzzz",
"zzzzzxzzzzzzz,>=-==z=-,,3e34ee822,3ezzzzzzzzzzzzzzzzzzzzzzzzzzzz",
"zzzzzxzzzzzz,>-===zzz:,,3e3,>,,,,,,4qzzzzzzzzzzzzzzzzzzzzzzzzzzz",
"zzzzzxzzzzz,,-===zzzzz,,3r3;$=-,,,,,8ezzzzzzzzzzzzzzzzzzzzzzzzzz",
"zzzzzzzzz,,>===zzzzzzzz,3rzz$===z,,,,3rttzzzzzzzzzzzzzzzzzzzzzzz",
"zzzzzz==-::-==xzzzzzzzz,23zzz$===zxx,,343,zzzzzzzzzzzzzzzzzzzzzz",
"zzzzzz=======zxzzzzzzzzz,,zzz$$==xzzz,,,,,zzzzzzzzzzzzzzzzzzzzzz",
"zzzzzzzzzzzzzzxzzzzzzzzzzzzzzzzzzzzzzzzzzzzzzzzzzzzxxzzzzzzzzzzz",
"zzzzzzzzzzzzzzxzzzzzzzzzzzzzzzzzzzzzzzzzzzzzzzzzzzzzxzzzzzzzzzzz",
"zzzzzzzzzzzzzzxzzzzzzzzzzzzzzzzzzzzzzzzzzzzzzzzzzzzzxzzzzzzzzzzz",
"zzzzzzzzzzzzzzxzzzzzzzzzzzzzzzzzzzzzzzzzzzzzzzzzzzzzzxzzzzzzzzzz",
"zzzzzzzzzzzzzzzzzzzzzzzzzzzzzzzzzzzzzzzzzzzzzzzzzzzzzxzzzzzzzzzz",
"zzzzzzzzzzzzzzzzzzzzzzzzzzzzzzzzzzzzzzzzzzzzzzzzzzzzzxzzzzzzzzzz",
"zzzzzzzzzzzzzzzzzzzzzzzzzzzzzzzzzzzzzzzzzzzzzzzzzzzzzzzzzzzzzzzz",
"zzzzzzzzzzzzzzzzzzzzzzzzzzzzzzzzzzzzzzzzzzzzzzzzzzzzzzzzzzzzzzzz",
"zzzzzzzzzzzzzzzzzzzzzzzzzzzzzzzzzzzzzzzzzzzzzzzzzzzzzzzzzzzzzzzz",
"zzzzzzzzzzzzzzzzzzzzzzzzzzzzzzzzzzzzzzzzzzzzzzzzzzzzzzzzzzzzzzzz"
};
