/* XPM */
static char *_eb7610f9de34a698e6649877843287ceHs788aml8lTpUEF[] = {
/* columns rows colors chars-per-pixel */
"64 64 50 1 ",
"  c #040403",
". c #080605",
"X c #0C0907",
"o c #0F0C09",
"O c #130E0A",
"+ c #16110C",
"@ c #1C140F",
"# c #1E1610",
"$ c #211710",
"% c #251A12",
"& c #2A1D15",
"* c #2E2117",
"= c #2F2218",
"- c #352214",
"; c #392517",
": c #34241A",
"> c #3A2719",
", c #3D291B",
"< c #432D1D",
"1 c #46301F",
"2 c #422E21",
"3 c #463021",
"4 c #493221",
"5 c #4B3423",
"6 c #4C3523",
"7 c #483324",
"8 c #4A3425",
"9 c #4D3626",
"0 c #4F3827",
"q c #503726",
"w c #503827",
"e c #543A27",
"r c #523A28",
"t c #543B29",
"y c #563D2B",
"u c #583E2B",
"i c #583E2C",
"p c #5A402C",
"a c #5D412E",
"s c #60432F",
"d c #60442F",
"f c #614430",
"g c #644731",
"h c #664832",
"j c #684933",
"k c #694A34",
"l c #6B4C35",
"z c #6D4D36",
"x c #A8E61D",
"c c #9BCC29",
/* pixels */
"xxxxxxxxxxxxxxxxxxxxxxxxxxxxxxxxxxxxxxxxxxxxxxxxxxxxxxxxxxxxxxxx",
"xxxxxxxxxxxxxxxxxxxxxxxxxxxxxxxxxxxxxxxxxxxxxxxxxxxxxxxxxxxxxxxx",
"xxxxxxxxxxxxxxxxxxxxxxxxxxxxxxxxxxxxxxxxxxxxxxxxxxxxxxxxxxxxxxxx",
"xxxxxxxxxxxxxxxxxxxxxxxxxxxxxxxxxxxxxxxxxxxxxxxxxxxxxxxxxxxxxxxx",
"xxxxxxxxxccxxxxxxxxxxxxxxcxxxxxxxxxxxxxxxxccxxxxxxxxxxxxxxxxxxxx",
"xxxxxxxxxcxxxxxxxxxxxxxxxcxxxxxxxxxxxxxxxxcxxxxxxxxxxxxxxxxxxxxx",
"xxxxxxxxccxxxxxxxxxxxx&&&ccxxxxxx--xxx---xcxxxxxxxxxxxxxxxxxxxxx",
"xxxxxxxxcxxxxxxxxx&xx&&&&&cc&xxx---xx-----cxxxxxxxxxxxxxxxxxxxxx",
"xxxxxxxxxcxxxxxxx&&x&&&&&&&&&xxx---x------xxxxxxxxxxxxcxxxxxxxxx",
"xxxxxxxxxxxxxxxxx&&&&&&&&&&&&xx-------;---xxxxxxxxxxxxxcxxxxxxxx",
"xxxxxxxxxxxxxxxxx,>&&&&::&&&&&------->4,--4xxxxxxxxxxxxxxxxxxxxx",
"xxxxxxxxxxxxxxxxx<<:&&:<,&&&&&&--;;->4r<;-9yxxxxxxxxxxxxxxxxxxxx",
"xxxxxxxxxxxxxxxx-,<<:-<<,-&&&&&-;<<;4yy5,>9yxxxxxxxxxxxxxxxxxxxx",
"xxxxxxxxxxxxxxxx-,<<>;<<,-&&&--;4w9<9ahw39ryxxxxxxxxxxxxxxxxxxxx",
"xxxxxxxxxxxxxxxx-;,<>-,<<,>*&,<4aar39azw4yafxxxxxxxxxxxxxxxxxxxx",
"xxxxxxxxxxxxxxxx;;><,--<3<<>:9uaka9<9ajw4ihzxxxxxxxxxxxxxxxxxxxx",
"xxxxxxxxxxxcxxxx<<<w4,;49<;<9tfka9<<9yu4wjsixxxxxxxxxxxxxxxxxxxx",
"xxxxxxxxxxxcxxxxx,<54,;5r<;,9rasy4<9aa9<wzarxxxxxxxxxxxxxxxxxxxx",
"xxxxxxxxxxxccxxxx-;,<,;49<;;<wiiy53wfd3<ehaxxxxxxxxxxxxxxxxxxxxx",
"xxxxxxxxxxxxccxxx---,<;<<;-><wfki5<1wr19yixxxxxxxxxxxxxxxxxxxxxx",
"xxxxxxxxxxxxxxxxx,>-,<,<,-><<wgzi5<<9w<9agxxxxxxxxxxxxxxxxxxxxxx",
"xxxxxxxxxxxxxxxxx<<;,143<><<1wdhi5<4wr49ujxxxxxxxxxxxxxxxxxxxxxx",
"xxxxxxxxxxxxxxxxx<<;,4r4<<<<1wyyy53ryyr45yxxxxxxxxxxxxxxxxxxxxxx",
"xxxxxxxxxxxxxxxxx<<-,4t5<<95<49ty43tffywwrxxxxxxxxxxxxxcxxxxxxxx",
"xxxxxxxxxxxxxxxxx<<>,49<,<rq<3rayrwyhly80awxxxxxxxxxxxxcxxxxxxxx",
"xxxxxxxxxxxxxxxxx<<<<<<:-<993rfkpfhugjr:2jq<<xxxxxxxxxxccxxxxxxx",
"xxxxxxxxxxxxxxx-<<394,-&&::2thgahfpypr,&2k4><wyyxxxxxxxxcxxxxxxx",
"xxxxxxxxxxxxxx<<<<<94<:$@@@&3rypzfty9,#+:a<;<999rxxxxxxxcxxxxxxx",
"xxxxxxxxxxcx<<49<>;<<<<$XXX+%%,ykftr>@XX&w,;<<<3yyxxxxxxxxxxxxxx",
"xxxxxxxxx<;-;<<>;,,;,<;>%X.Xoo@,yp9:@XX:9rxxxx<4gu<xxxxxxxxxxxxx",
"xxxxxxxx4,<,-,,-->,><,-<,%%%&&:,4ip2:&*8iyxxxxx4ut6xxxxxxxxxxxxx",
"xxxxxxxt4>43-xxxxx;<3<;<<<<9iyiy3ujuyyiyrxxxxxxx<5txxxxxxxxxxxxx",
"xxxxxxx3<<,;ccxxxxx<99<<<;<tkpfg49iyyakw<xxxxxxx<<9ky<xxxxxxxxxx",
"xxxxxxx>>,;xxcxxxxx,15<>:,<wa39a49ifar82<xxxxxxxx<4tw9xxxxxxxxxx",
"xxxxxxx;;-xxxxcxxxx-,<3::,<60:,r44tzf7&,4xxxxxxxx<16wixxxxxxxxxx",
"xxxxxx-,,-xxxxcxxxx-,4w4>*,9w:,yr,,jf7=3yxxxxxcx<xxjxxzxxxxxxxxx",
"xxxxxx4<;--xxxxxxxx-;<44>&*2r:,t2=:i9:&3ixxxxxc<xx4txxtxxxxxxxxx",
"xxxxxx9,----xxxxxxx--;34<:&:3&=,%@*0,&:4wxxxxxc<x<<<xx<xxxxxxxxx",
"xxxxy9;--x--xxxxxxxx-,ry9<*&&OXooX@8,:94<xxxxxxcx<<x<<xxxxxxxxxx",
"xxxx<,x--xxxxxxxxxxx,<r94<*-:O O:$X#,9r4<xxxxxxccxxxxxxxxxxxxxxx",
"xxxx--xx-xxxxxxxxxxx<4t4<<:><&OO8=X@,yaw4xxxxxxxxxxxxxxxxxxxxxxx",
"xxxx--xxx-xxxxxxxxxx<4w4<<<<<w:@8=@95qjarxxxxxxxxxxxxxxxxxxxxxxx",
"xxxxxx<xxxxxxxxxxxxx<<,<49<,1ryr428hw4paxxxxxxxxxxxxxxxxxxxxxxxx",
"xxxxcx<xxxxxxxxxxxxx4,-,49>;1whz45pgayyxxxxxxxxxxxxxxxxxxxxxxxxx",
"xxxxcxxxxxxxxxxxxxxr4,;,<<>;<rfg99yiggyxxxxxxxxxxxxxxxxxxxxxxxxx",
"xxxxxcxxxxxxxxxxxx<3,;<<4w1>,sawfaiju44wyxxxxxxxxxxxxxxxxxxxxxxx",
"xxxxxcxxxxxxxxxxx<<,>,,,<3<<<au9uewfy4<wyxxxxxxxxxxxxxxxxxxxxxxx",
"xxxxxcxxxxxxxxxxx<,-,,----<<1wyw414wr9<9rxxxxxxxxxxxxxxxxxxxxxxx",
"xxxxxcxxxxxxxxxx<,-----xx-<<1r94wrw431<<5txxxxxxxxxxxxxxxxxxxxxx",
"xxxxxcxxxxxxxx<<,;--xxxxxx<<1r9<,,,,<<<<39ryxxxxxxxxxxxxxxxxxxxx",
"xxxxxcxxxxxxx<<,---xxxxxxx<<<99<&&&-><<<<<9rwxxxxxxxxxxxxxxxxxxx",
"xxxxxxxxxx--------xxxxxxxxxx<<1xx&&&-;xxx<<1<<xxxxxxxxxxxxxxxxxx",
"xxxxxxxxxxxxxccxxxxxxxxxxxxxxxxxxxccxxxxxxxxxxxxxxxxxxxxxxxxxxxx",
"xxxxxxxxxxxxxxcxxxxxxxxxxxxxxxxxxcxxxxxxxxxxxxxxxxxxxxxxxxxxxxxx",
"xxxxxxxxxxxxxxcxxxxxxxxxxxxxxxxxxxxxxxxxxxxxxxxxxxxccxxxxxxxxxxx",
"xxxxxxxxxxxxxxcxxxxxxxxxxxxxxxxxxxxxxxxxxxxxxxxxxxxxcxxxxxxxxxxx",
"xxxxxxxxxxxxxxcxxxxxxxxxxxxxxxxxxxxxxxxxxxxxxxxxxxxxcxxxxxxxxxxx",
"xxxxxxxxxxxxxxcxxxxxxxxxxxxxxxxxxxxxxxxxxxxxxxxxxxxxxcxxxxxxxxxx",
"xxxxxxxxxxxxxxxxxxxxxxxxxxxxxxxxxxxxxxxxxxxxxxxxxxxxxcxxxxxxxxxx",
"xxxxxxxxxxxxxxxxxxxxxxxxxxxxxxxxxxxxxxxxxxxxxxxxxxxxxcxxxxxxxxxx",
"xxxxxxxxxxxxxxxxxxxxxxxxxxxxxxxxxxxxxxxxxxxxxxxxxxxxxxxxxxxxxxxx",
"xxxxxxxxxxxxxxxxxxxxxxxxxxxxxxxxxxxxxxxxxxxxxxxxxxxxxxxxxxxxxxxx",
"xxxxxxxxxxxxxxxxxxxxxxxxxxxxxxxxxxxxxxxxxxxxxxxxxxxxxxxxxxxxxxxx",
"xxxxxxxxxxxxxxxxxxxxxxxxxxxxxxxxxxxxxxxxxxxxxxxxxxxxxxxxxxxxxxxx"
};
