/* XPM */
static char *a7398c874ad142fdc3b1d45ae2c08cf0M8nm82EdkLjLdQOO[] = {
/* columns rows colors chars-per-pixel */
"64 64 52 1 ",
"  c #070605",
". c #090705",
"X c #0C0907",
"o c #0E0B08",
"O c #130E0A",
"+ c #16100C",
"@ c #1C140E",
"# c #1F1610",
"$ c #241A12",
"% c #2A1D15",
"& c #2E2017",
"* c #2F2118",
"= c #352214",
"- c #392517",
"; c #342419",
": c #3B2718",
"> c #3D291B",
", c #3F2D20",
"< c #432D1E",
"1 c #46301F",
"2 c #422E20",
"3 c #473020",
"4 c #493222",
"5 c #4B3423",
"6 c #4D3523",
"7 c #483324",
"8 c #493424",
"9 c #4E3625",
"0 c #4F3827",
"q c #4F3828",
"w c #503726",
"e c #513927",
"r c #543A27",
"t c #523A28",
"y c #543B2A",
"u c #573D2B",
"i c #583E2B",
"p c #593E2C",
"a c #5A402D",
"s c #5D422E",
"d c #60432E",
"f c #60442F",
"g c #64452F",
"h c #624530",
"j c #654732",
"k c #674933",
"l c #694A33",
"z c #694A34",
"x c #6B4C35",
"c c #6E4E36",
"v c #A8E61D",
"b c #9BCC29",
/* pixels */
"vvvvvvvvvvvvvvvvvvvvvvvvvvvvvvvvvvvvvvvvvvvvvvvvvvvvvvvvvvvvvvvv",
"vvvvvvvvvvvvvvvvvvvvvvvvvvvvvvvvvvvvvvvvvvvvvvvvvvvvvvvvvvvvvvvv",
"vvvvvvvvvvvvvvvvvvvvvvvvvvvvvvvvvvvvvvvvvvvvvvvvvvvvvvvvvvvvvvvv",
"vvvvvvvvvvvvvvvvvvvvvvvvvvvvvvvvvvvvvvvvvvvvvvvvvvvvvvvvvvvvvvvv",
"vvvvvvvvvbbvvvvvvvvvvvvvvbvvvvvvvvvvvvvvvvbbvvvvvvvvvvvvvvvvvvvv",
"vvvvvvvvvbvvvvvvvvvvvvvvvbvvvvvvvvvvvvvvvvbvvvvvvvvvvvvvvvvvvvvv",
"vvvvvvvvbbvvvvvvv%%%vvvvvbbvv==vv===vvvvvvbvvvvvvvvvvvvvvvvvvvvv",
"vvvvvvvvbvvvv%vv%%%%%vvvvvbb===v=====vvvvbbvvvvvvvvvvvvvvvvvvvvv",
"vvvvvvvvvbvvv%%v%%%%%%v%%vv====v======vvvbvvvvvvvvvvvvbvvvvvvvvv",
"vvvvvvvvvvvvv%%%%%%%%%%%%v========-===vvvvvvvvvvvvvvvvvbvvvvvvvv",
"vvvvvvvvvvvvv>;%%%%:;%%%%%=======<4-=>tvvvvvvvvvvvvvvvvvvvvvvvvv",
"vvvvvvvvvvvvv<>;%&:<:%%%%%===--=<9e>=>tvvvvvvvvvvvvvvvvvvvvvvvvv",
"vvvvvvvvvvvv=<<>&;<<:=%%%%==-<>:epy1:<tvvvvvvvvvvvvvvvvvvvvvvvvv",
"vvvvvvvvvvvv=<<<=><<:=%%%==>9e4<thh44eyvvvvvvvvvvvvvvvvvvvvvvvvv",
"vvvvvvvvvvvv=:<<--><>:;%=<<eha93tkl49phvvvvvvvvvvvvvvvvvvvvvvvvv",
"vvvvvvvvvvvv--><-=-<<<<;>yphli43thj49szvvvvvvvvvvvvvvvvvvvvvvvvv",
"vvvvvvvvvvvb<<4e<-:95<-3tukki4<3tpy3slavvvvvvvvvvvvvvvvvvvvvvvvv",
"vvvvvvvvvvvb<><91:>t9>=<eusst33ehi4<dzuvvvvvvvvvvvvvvvvvvvvvvvvv",
"vvvvvvvvvvvbb=-<<::94>=>4uppt34uku<4skuvvvvvvvvvvvvvvvvvvvvvvvvv",
"vvvvvvvvvvvvb==-<>-<>==>4ukjt3<4u93eupvvvvvvvvvvvvvvvvvvvvvvvvvv",
"vvvvvvvvvvvvv>--<<><-=><4uxly3<<t53yhkvvvvvvvvvvvvvvvvvvvvvvvvvv",
"vvvvvvvvvvvvv<>-<34<>:<<4ujht3<4t94edzvbvvvvvvvvvvvvvvvvvvvvvvvv",
"vvvvvvvvvvvvv<>-<9e<<<<<4yuut34yuue4eivbbvvvvvvvvvvvvvvvvvvvvvvv",
"vvvvvvvvvvvvv<>=<9t3<494<4eut34pjsyetyvvbvvvvvvvvvvvvvvbvvvvvvvv",
"vvvvvvvvvvvvv<>:<59><4u4<4iayetpcjt8usvvbbvvvvvvvvvvvvvbvvvvvvvv",
"vvvvvvvvvvvvv<<<<<>&;3e44uljplhpzh7;yj1<<bvvvvvvvvvvvvvbbvvvvvvv",
"vvvvvvvvvv=-<<593:&%&;;4azhhkfpus8;%ug>>4uuvvvvvvvvvvvvvbvvvvvvv",
"vvvvvvvvvv<<<>391>&@@@@;9uuhcauy3&@@8i->4999vvvvvvvvvvvvbvvvvvvv",
"vvvvvvv<<<99<-><<<:+X..@$%3szat8&+.O>9-><<<9ivvvvvvvvvvvvvvvvvvv",
"vvvvv<==><>-->>-<>-;@ .XoO%3pu3%O.O>ttvvvv<rk9vvvvvvvvvvvvvvvvvv",
"vvvv<><--<-==>>><:-<=$$%%&;29st>&%;tpvvvvvveiw4vvvvvvvvvvvvvvvvv",
"vvvt<>9>=vvbb=><3>-<<<<tpupe4hhuupptvvvvvvvv<9uvvvvvvvvvvvvvvvvv",
"vvv3<>:vvvvvbb<3e4<<>-<dkpks3ypuuhj4vvvvvvvv<<il4vvvvvvvvvvvvvvv",
"vvv:>:vvvvvvvbv>44<;:><iu2pu1eshuq4<vvvvvvvvv<6u9vvvvvvvvvvvvvvv",
"vvv-==vvvvvvvvb-<3<;;<<e3&7e48sca>&<vvvvvvvvv<49yvvvvvvvvvvvvvvv",
"vv-<:=vvvvvvvvb-<9e<;;<e3&7u9;9cp>;9vvvvvvvv<vkzvccvvvvvvvvvvvvv",
"v43>-==vvvvvvvv=-<4<;%;97*80>%2a2&;tvvvvvvv<v<9uvuyvvvvvvvvvvvvv",
"ve4-===vvvvvvvv==>44>%%,>$>;##>9*%>9vvvvvv<vv<<<v<<vvvvvvvvvvvvv",
"y<==vv=vvvvvvvvv=<yt4:%%$ooOoX&9;,e3vvvvvvvvv<<b<vvvvvvvvvvvvvvv",
"<>v=vvvvvvvvvvvv>5t54>%;%. #;OO%2te<vvvvvvvvvvvbbvvvvvvvvvvvvvvv",
"=vv==vvvvvvvvvvv<9t<<>;>:$X%9@o%4ap9vvvvvvvvvvvvvvvvvvvvvvvvvvvv",
"=vvv==vvvvvvvvvv<9e<<<<<49$%8@&t3iluvvvvvvvvvvvvvvvvvvvvvvvvvvvv",
"v<<vvvvvvvvvvvvv<<><95:>4uue42uj4wsvvvvvvvvvvvvvvvvvvvvvvvvvvvvv",
"vv<vbvvvvvvvvvvv<:=<63=>4ucf<tshiuuvvvvvvvvvvvvvvvvvvvvvvvvvvvvv",
"vvvvbvvvvvvvvvte<:-<3<->4pks4tuslstvvvvvvvvvvvvvvvvvvvvvvvvvvvvv",
"vvvvvbvvvvvvv<3<:><<99<-4kyujpske44tvvvvvvvvvvvvvvvvvvvvvvvvvvvv",
"vvvvvbvvvvvvv<<>>>>><3<>4feeiwph9<3yvvvvvvvvvvvvvvvvvvvvvvvvvvvv",
"vvvvvbvvvvvvv<:-<:===-<<4yy9339tt43eyvvvvvvvvvvvvvvvvvvvvvvvvvvv",
"vvvvvbvvvvvv<-==-==v=-<<4t45tt933<<39uvvvvvvvvvvvvvvvvvvvvvvvvvv",
"vvvvvbvvv<<<:==vvvvvv:<<351<>>>><<<<49uuvvvvvvvvvvvvvvvvvvvvvvvv",
"vvvvvbvvv<<>==vvvvvvvv<<<<<:%%%=vv<<<3etevvvvvvvvvvvvvvvvvvvvvvv",
"vvvvvv=======bvvvvvvvvv<<<vvv%%%=vvb<<11<<vvvvvvvvvvvvvvvvvvvvvv",
"vvvvvvvvvvvvvbbvvvvvvvvvvvvvvvvvvvbbvvvvvvvvvvvvvvvvvvvvvvvvvvvv",
"vvvvvvvvvvvvvvbvvvvvvvvvvvvvvvvvvbvvvvvvvvvvvvvvvvvvvvvvvvvvvvvv",
"vvvvvvvvvvvvvvbvvvvvvvvvvvvvvvvvvvvvvvvvvvvvvvvvvvvbbvvvvvvvvvvv",
"vvvvvvvvvvvvvvbvvvvvvvvvvvvvvvvvvvvvvvvvvvvvvvvvvvvvbvvvvvvvvvvv",
"vvvvvvvvvvvvvvbvvvvvvvvvvvvvvvvvvvvvvvvvvvvvvvvvvvvvbvvvvvvvvvvv",
"vvvvvvvvvvvvvvbvvvvvvvvvvvvvvvvvvvvvvvvvvvvvvvvvvvvvvbvvvvvvvvvv",
"vvvvvvvvvvvvvvvvvvvvvvvvvvvvvvvvvvvvvvvvvvvvvvvvvvvvvbvvvvvvvvvv",
"vvvvvvvvvvvvvvvvvvvvvvvvvvvvvvvvvvvvvvvvvvvvvvvvvvvvvbvvvvvvvvvv",
"vvvvvvvvvvvvvvvvvvvvvvvvvvvvvvvvvvvvvvvvvvvvvvvvvvvvvvvvvvvvvvvv",
"vvvvvvvvvvvvvvvvvvvvvvvvvvvvvvvvvvvvvvvvvvvvvvvvvvvvvvvvvvvvvvvv",
"vvvvvvvvvvvvvvvvvvvvvvvvvvvvvvvvvvvvvvvvvvvvvvvvvvvvvvvvvvvvvvvv",
"vvvvvvvvvvvvvvvvvvvvvvvvvvvvvvvvvvvvvvvvvvvvvvvvvvvvvvvvvvvvvvvv"
};
