/* XPM */
static char *_53400236bf34abff1b1c8317f8cb9f7phM3w3f9UmlCbrYn[] = {
/* columns rows colors chars-per-pixel */
"64 64 145 2 ",
"   c None",
".  c #040403",
"X  c #080605",
"o  c #0C0907",
"O  c #0F0C09",
"+  c #130E0A",
"@  c #16110C",
"#  c #1C140F",
"$  c #1E1610",
"%  c #211710",
"&  c #251A12",
"*  c #2A1D15",
"=  c #2E2117",
"-  c #2F2218",
";  c #352214",
":  c #392517",
">  c #34241A",
",  c #3A2719",
"<  c #3D291B",
"1  c #432D1D",
"2  c #46301F",
"3  c #422E21",
"4  c #463021",
"5  c #4A3322",
"6  c #4B3322",
"7  c #4A3323",
"8  c #4B3323",
"9  c #4A3222",
"0  c #493221",
"q  c #4B3423",
"w  c #4C3423",
"e  c #4C3523",
"r  c #483324",
"t  c #4A3425",
"y  c #4B3525",
"u  c #4C3424",
"i  c #4C3524",
"p  c #4D3524",
"a  c #4D3624",
"s  c #4D3625",
"d  c #4E3625",
"f  c #4F3625",
"g  c #4E3725",
"h  c #4F3725",
"j  c #4C3526",
"k  c #4C3626",
"l  c #4D3626",
"z  c #4D3726",
"x  c #4E3726",
"c  c #4F3726",
"v  c #4E3727",
"b  c #4B3423",
"n  c #4F3827",
"m  c #4F3827",
"M  c #503725",
"N  c #503726",
"B  c #503725",
"V  c #513825",
"C  c #503826",
"Z  c #513826",
"A  c #503827",
"S  c #513827",
"D  c #513927",
"F  c #523927",
"G  c #533927",
"H  c #533A27",
"J  c #543A27",
"K  c #513927",
"L  c #503828",
"P  c #513928",
"I  c #523928",
"U  c #523A28",
"Y  c #533A28",
"T  c #523A29",
"R  c #533A29",
"E  c #533B29",
"W  c #543A28",
"Q  c #553B28",
"!  c #543B29",
"~  c #563B28",
"^  c #543B2A",
"/  c #553C29",
"(  c #563C28",
")  c #543C2A",
"_  c #553C2A",
"`  c #563C2A",
"'  c #563D2A",
"]  c #563D2B",
"[  c #573D2B",
"{  c #573E2B",
"}  c #543B29",
"|  c #593E2A",
" . c #583E2B",
".. c #593F2B",
"X. c #5A3F2B",
"o. c #583E2C",
"O. c #583F2C",
"+. c #593F2C",
"@. c #5A3F2C",
"#. c #593E2B",
"$. c #5A402C",
"%. c #5A402D",
"&. c #5B402D",
"*. c #5C412D",
"=. c #5D412D",
"-. c #5E422D",
";. c #5C412E",
":. c #5D412E",
">. c #5D422E",
",. c #5E422E",
"<. c #5F422E",
"1. c #5E422F",
"2. c #5E432F",
"3. c #5F432F",
"4. c #5D412D",
"5. c #60432F",
"6. c #60442F",
"7. c #61442F",
"8. c #60432E",
"9. c #614430",
"0. c #614530",
"q. c #624530",
"w. c #634630",
"e. c #634631",
"r. c #644731",
"t. c #654731",
"y. c #664731",
"u. c #654732",
"i. c #644631",
"p. c #664832",
"a. c #674833",
"s. c #674933",
"d. c #664832",
"f. c #684933",
"g. c #684A33",
"h. c #694A33",
"j. c #6A4A33",
"k. c #694A34",
"l. c #6A4B34",
"z. c #6B4C35",
"x. c #6C4C35",
"c. c #6D4D36",
"v. c #6E4D36",
"b. c #6F4E36",
"n. c #6A4A34",
/* pixels */
"                                                                                                                                ",
"                                                                                                                                ",
"                                                                                                                                ",
"                                                                                                                                ",
"                                                                                                                                ",
"                                                                                                                                ",
"                                            * * *                 ; ;       ; ; ;                                               ",
"                                    *     * * * * *     *       ; ; ;     ; ; ; ; ;                                             ",
"                                  * *   * * * * * * * * *       ; ; ;   ; ; ; ; ; ;                                             ",
"                                  * * * * * * * * * * * *     ; ; ; ; ; ; ; : ; ; ;                                             ",
"                                  < , * * * * > > * * * * * ; ; ; ; ; ; ; , 0 < ; ; 0                                           ",
"                                  1 1 > * * > 1 < * * * * * * ; ; : : ; , 0 U 1 : ; l ]                                         ",
"                                ; < 1 1 > ; 1 1 < ; * * * * * ; : 1 1 : 0 ] ] q < , l ]                                         ",
"                                ; < 1 1 , : 1 1 < ; * * * ; ; : 0 A l 1 l :.p.A 4 l U ]                                         ",
"                                ; : < 1 , ; < 1 1 < , = * < 1 0 :.:.U 4 l :.c.A 0 ] :.9.                                        ",
"                                : : , 1 < ; ; 1 4 1 1 , > l  .:.k.:.l 1 l :.f.A 0 o.p.c.                                        ",
"                                1 1 1 A 0 < : 0 l 1 : 1 l ! 9.k.:.l 1 1 l ]  .0 A f.5.o.                                        ",
"                                  < 1 q 0 < : q U 1 : < l U :.5.] 0 1 l :.:.l 1 A c.:.U                                         ",
"                                  ; : < 1 < : 0 l 1 : : 1 A o.o.] q 4 A 9.6.4 1 J p.:.                                          ",
"                                  ; ; ; < 1 : 1 1 : ; , 1 A 9.k.o.q 1 2 A U 2 l ] o.                                            ",
"                                  < , ; < 1 < 1 < ; , 1 1 A r.c.o.q 1 1 l A 1 l :.r.                                            ",
"                                  1 1 : < 2 0 4 1 , 1 1 2 A 6.p.o.q 1 0 A U 0 l  .f.                                            ",
"                                  1 1 : < 0 U 0 1 1 1 1 2 A ] ] ] q 4 U ] ] U 0 q ]                                             ",
"                                  1 1 ; < 0 ! q 1 1 l q 1 0 l ! ] 0 4 ! 9.9.] A A U                                             ",
"                                  1 1 , < 0 l 1 < 1 U N 1 4 U :.] U A ] p.z.] t n :.A                                           ",
"                                  1 1 1 1 1 1 > ; 1 l l 4 U 9.k.$.9.p. .r.f.U > 3 f.N 1 1                                       ",
"                              ; 1 1 4 l 0 < ; * * > > 3 ! p.r.:.p.9.$.] $.U < * 3 k.0 , 1 A ] ]                                 ",
"                            1 1 1 1 1 l 0 1 > % # # # * 4 U ] $.c.9.! ] l < $ @ > :.1 : 1 l l l U                               ",
"                        1 1 0 l 1 , : 1 1 1 1 % o o o @ & & < ] k.9.! U , # o o * A < : 1 1 1 4 ] ]                             ",
"                  1 : ; : 1 1 , : < < : < 1 : , & o X o O O # < ] $.l > # o o > l U         1 0 r. .1                           ",
"                0 < 1 < ; < < ; ; , < , 1 < ; 1 < & & & * * > < 0 o.$.3 > * = t o.]           0  .! e                           ",
"              ! 0 , 0 4 ;           : 1 4 1 : 1 1 1 1 l o.] o.] 4  .f. .] ] o.] U               1 q !                           ",
"              4 1 1 < :               1 l l 1 1 1 : 1 ! k.$.9.r.0 l o.] ] :.k.A 1               1 1 l k.] 1                     ",
"              , , < :                 < 2 q 1 , > < 1 A :.4 l :.0 l o.9.:.U t 3 1                 1 0 ! A l                     ",
"              : : ;                   ; < 1 4 > > < 1 e n > < U 0 0 ! c.9.r * < 0                 1 2 e A o.                    ",
"            ; < < ;                   ; < 0 A 0 , = < l A > < ] U < < f.9.r - 4 ]               1     f.    c.                  ",
"            0 1 : ; ;                 ; : 1 0 0 , * = 3 U > < ! 3 - > o.l > * 4 o.            1     0 !     !                   ",
"            l < ; ; ; ;               ; ; : 4 0 1 > * > 4 * - < & # = n < * > 0 A             1   1 1 1     1                   ",
"        ] l : ; ;   ; ;                 ; < U ] l 1 = * * + o O O o # t < > l 0 1                 1 1   1 1                     ",
"        1 <   ; ;                       < 1 U l 0 1 = ; > + . + > % o $ < l U 0 1                                               ",
"        ; ;     ;                       1 0 ! 0 1 1 > , 1 * + + t - o # < ] :.A 0                                               ",
"        ; ;       ;                     1 0 A 0 1 1 1 1 1 A > # t - # l q N f.:.U                                               ",
"            1                           1 1 < 1 0 l 1 < 2 U ] U 0 3 t p.A 0 $.:.                                                ",
"            1                           0 < ; < 0 l , : 2 A p.c.0 q $.r.:.] ]                                                   ",
"                                      U 0 < : < 1 1 , : 1 U 9.r.l l ] o.r.r.]                                                   ",
"                                    1 4 < : 1 1 0 A 2 , < 5.:.A 9.:.o.f. .0 0 A ]                                               ",
"                                  1 1 < , < < < 1 4 1 1 1 :. .l  .J A 9.] 0 1 A ]                                               ",
"                                  1 < ; < < ; ; ; ; 1 1 2 A ] A 0 2 0 A U l 1 l U                                               ",
"                                1 < ; ; ; ; ;     ; 1 1 2 U l 0 A U A 0 4 2 1 1 q !                                             ",
"                            1 1 < : ; ;             1 1 2 U l 1 < < < < 1 1 1 1 4 l U ]                                         ",
"                          1 1 < ; ; ;               1 1 1 l l 1 * * * ; , 1 1 1 1 1 l U A                                       ",
"                    ; ; ; ; ; ; ; ;                     1 1 2     * * * ; :       1 1 2 1 1                                     ",
"                                                                                                                                ",
"                                                                                                                                ",
"                                                                                                                                ",
"                                                                                                                                ",
"                                                                                                                                ",
"                                                                                                                                ",
"                                                                                                                                ",
"                                                                                                                                ",
"                                                                                                                                ",
"                                                                                                                                ",
"                                                                                                                                ",
"                                                                                                                                "
};
