/* XPM */
static char *_7e41d2357bb46adbed3cc56fcfac130eZLlf6frXwRhQWEf[] = {
/* columns rows colors chars-per-pixel */
"64 64 142 2 ",
"   c None",
".  c #070605",
"X  c #090706",
"o  c #0C0907",
"O  c #0E0B08",
"+  c #130E0A",
"@  c #16100C",
"#  c #1C140E",
"$  c #251A12",
"%  c #2A1D15",
"&  c #321F12",
"*  c #2D2017",
"=  c #2F2118",
"-  c #352214",
";  c #392517",
":  c #352519",
">  c #3B2718",
",  c #3D291B",
"<  c #432D1E",
"1  c #46301F",
"2  c #432E21",
"3  c #463020",
"4  c #483121",
"5  c #483120",
"6  c #483221",
"7  c #493221",
"8  c #493222",
"9  c #483223",
"0  c #493323",
"q  c #4A3322",
"w  c #4B3322",
"e  c #4A3323",
"r  c #4B3323",
"t  c #4B3422",
"y  c #4B3423",
"u  c #4C3422",
"i  c #483324",
"p  c #493424",
"a  c #493425",
"s  c #4A3424",
"d  c #4B3424",
"f  c #4B3525",
"g  c #4C3424",
"h  c #4C3524",
"j  c #4D3524",
"k  c #4C3525",
"l  c #4E3524",
"z  c #4D3624",
"x  c #4D3625",
"c  c #4E3624",
"v  c #4E3625",
"b  c #4E3725",
"n  c #4F3725",
"m  c #4C3626",
"M  c #4E3726",
"N  c #4F3726",
"B  c #4E3727",
"V  c #4B3423",
"C  c #4F3828",
"Z  c #503726",
"A  c #503826",
"S  c #503827",
"D  c #513827",
"F  c #513927",
"G  c #523927",
"H  c #533A27",
"J  c #543A27",
"K  c #513927",
"L  c #503928",
"P  c #513928",
"I  c #523928",
"U  c #523A28",
"Y  c #533A28",
"T  c #523A29",
"R  c #533A29",
"E  c #533B29",
"W  c #543B29",
"Q  c #543B2A",
"!  c #553C29",
"~  c #573C29",
"^  c #553C2A",
"/  c #563C2A",
"(  c #563D2A",
")  c #563D2B",
"_  c #573D2B",
"`  c #573E2B",
"'  c #543B29",
"]  c #583D29",
"[  c #583E2A",
"{  c #593E2A",
"}  c #583E2B",
"|  c #593E2B",
" . c #5A3E2A",
".. c #5A3F2B",
"X. c #583E2C",
"o. c #593E2C",
"O. c #593F2C",
"+. c #5A3F2C",
"@. c #5A3F2B",
"#. c #5B402C",
"$. c #5A402D",
"%. c #5B402D",
"&. c #5B412D",
"*. c #5C402C",
"=. c #5C412D",
"-. c #5D412D",
";. c #5D422E",
":. c #5E422E",
">. c #5F432E",
",. c #5E432F",
"<. c #5F432F",
"1. c #5D422D",
"2. c #60432E",
"3. c #60432F",
"4. c #60442F",
"5. c #63452F",
"6. c #61442F",
"7. c #604430",
"8. c #614430",
"9. c #614530",
"0. c #624530",
"q. c #634630",
"w. c #634631",
"e. c #644630",
"r. c #654630",
"t. c #644731",
"y. c #654732",
"u. c #664732",
"i. c #614530",
"p. c #664832",
"a. c #674933",
"s. c #674932",
"d. c #684932",
"f. c #684933",
"g. c #694A33",
"h. c #694A34",
"j. c #6A4B34",
"k. c #6B4C35",
"l. c #6C4C35",
"z. c #6D4D36",
"x. c #6E4E36",
"c. c #694A34",
/* pixels */
"                                                                                                                                ",
"                                                                                                                                ",
"                                                                                                                                ",
"                                                                                                                                ",
"                                                                                                                                ",
"                                                                                                                                ",
"                                  % % %                   - -     - - -                                                         ",
"                          %     % % % % %               - - -   - - - - -                                                       ",
"                          % %   % % % % % %   % %     - - - -   - - - - - -                                                     ",
"                          % % % % % % % % % % % %   - - - - - - - - ; - - -                                                     ",
"                          , : % % % % > : % % % % % - - - - - - - < 8 ; - , U                                                   ",
"                          < , : % * > < > % % % % % - - - ; ; - < v F , - , U                                                   ",
"                        - < < , * : < < > - % % % % - - ; < , > F o.Q 1 > < U                                                   ",
"                        - < < < - , < < > - % % % - - , v F 8 < U 0.0.8 8 F Q                                                   ",
"                        - > < < ; ; , < , > : % - < < F 0.$.v 3 U a.g.8 v o.0.                                                  ",
"                        ; ; , < ; - ; < < < < : , Q o.0.g.} 8 3 U 0.y.8 v ;.h.                                                  ",
"                        < < 8 F < ; > v y < ; 3 U _ a.a.} 8 < 3 U o.Q 3 ;.g.$.                                                  ",
"                        < , < v 1 > , U v , - < F _ ;.;.U 3 3 F 0.} 8 < 3.h._                                                   ",
"                          - ; < < > > v 8 , - , 8 _ o.o.U 3 8 _ a._ < 8 ;.a._                                                   ",
"                          - - ; < , ; < , - - , 8 _ a.y.U 3 < 8 _ v 3 F _ o.                                                    ",
"                          , ; ; < < , < ; - , < 8 _ k.g.Q 3 < < U y 3 Q 0.a.                                                    ",
"                          < , ; < 3 8 < , > < < 8 _ y.0.U 3 < 8 U v 8 F 3.h.                                                    ",
"                          < , ; < v F < < < < < 8 Q _ _ U 3 8 Q _ _ F 8 F }                                                     ",
"                          < , - < v U 3 < 8 v 8 < 8 F _ U 3 8 o.y.;.Q F U Q                                                     ",
"                          < , > < y v , < 8 _ 8 < 8 } $.Q F U o.x.y.U p _ ;.                                                    ",
"                          < < < < < , * : 3 F 8 8 _ g.y.o.g.0.o.h.0.i : Q y.1                                                   ",
"                        < < y v 3 > * % * : : 8 $.h.0.0.a.4.o._ ;.p : % _ 4., ,                                                 ",
"                      , < , 3 v 1 , * # # # # : v _ _ 0.x.$._ Q 3 * # # p } ; , 8                                               ",
"                    ; , < ; , < < < > @ o X X # $ % 3 ;.h.$.U p * @ X + , v ; , 8 U U U                                         ",
"              < < < v 1 ; , , ; < , ; : # . X o O + $ 3 o._ 3 % + X + , U U   < < 8 8 v _                                       ",
"              < , < 3 < - , , , < > ; < - $ $ % % * : 2 v ;.U , * % : U o.      < < < 8 Q                                       ",
"            v , ; < ;     - , < 3 , ; < < < < U o._ o.F 8 0.0._ _ o.o.U             < v o.                                      ",
"          < > - -           < 3 F 8 < < , ; < 3.a.o.a.;.3 Q o._ _ 0.y.8               y.g.v                                     ",
"        < , < ,               , 8 8 < < < , < } _ 2 o._ 1 F ;.0._ C 8 <                 } Z p                                   ",
"      F < , v                 ; < 3 3 < < , < F 3 * i F 8 p ;.x.$., * <                 < v }                                   ",
"      < < , ;                 ; < v F < : : < F 3 * i _ v : v k.o., : v                 < < } g.y                               ",
"      ; > >                   - ; < 8 < , : : v 9 = p v , % 2 o.2 , i Q               ;   < u J F                               ",
"      ; - -                   - - , 8 8 3 > % 3 < $ : , : $ , B : 2 _ F             - ;   < 8 v v                               ",
"    ; < > -                     - < Q U y , * , : + o * i # * U 2 v U 3                 <     4.<                               ",
"  v 8 , - - -                   , y U y 3 < , < < , + $ v @ % U 8 v F <                   - , u }                               ",
"  v 3 ; - - -                   < v U < < < < < u Q : , 8 % , o.8 F $.v                   - & , g.                              ",
"U < - -     -                   < v F < < < ; , 8 _ a.;.3 v 0.a.u } g._                                                         ",
", ,   - - -                     < < , < v v < < 8 _ x.3.< F o.;.y.4.;.                                                          ",
"-   - - -                       < > - < y 8 < < v ;.;.} _ _ o.3.3.} _                                                           ",
"    - -                       F < > ; < 3 < ; , F g.F J a.o.0.a.u v U                                                           ",
"                              < > , < < v v < ; < o.Q v v Q o.o.U y 3                                                           ",
"                            , , , , , , < 3 < , < U _ v < 8 F _ _ u < F                                                         ",
"                          < , ; < > - - - ; < < 8 Q Q v 3 3 v U U 8 8 U                                                         ",
"                          < , - ; - -   - ; < < 8 U 8 y U U v 3 3 < 8 U                                                         ",
"                        < , ; - - -       > < < 8 U 8 < , < < < < < < y F                                                       ",
"                      < < ; - - -           < < 8 Q 8 : % - ; < < < < < v U                                                     ",
"                  < < , - - -                 < 8 Q     % - - -   < < < < 8 Q _ _                                               ",
"            - - ; > > ; - -                   < 3 8       % - - -       < < 8 y 8 <                                             ",
"            - - - - - - -                       < <       % % - -         < < < < <                                             ",
"                                                                                                                                ",
"                                                                                                                                ",
"                                                                                                                                ",
"                                                                                                                                ",
"                                                                                                                                ",
"                                                                                                                                ",
"                                                                                                                                ",
"                                                                                                                                ",
"                                                                                                                                ",
"                                                                                                                                "
};
