/* XPM */
static char *_feb3adbfe3f4eb79bd75512888f096cflQAGJJ8HJ22bhED[] = {
/* columns rows colors chars-per-pixel */
"64 64 145 2 ",
"   c None",
".  c #070605",
"X  c #080705",
"o  c #0C0907",
"O  c #0E0B08",
"+  c #130E0A",
"@  c #16110C",
"#  c #1C140E",
"$  c #1F1710",
"%  c #201711",
"&  c #251A13",
"*  c #2A1D15",
"=  c #2E2117",
"-  c #2F2218",
";  c #352214",
":  c #392517",
">  c #34241A",
",  c #3A2718",
"<  c #3D291B",
"1  c #432D1D",
"2  c #46301F",
"3  c #422E21",
"4  c #463121",
"5  c #493323",
"6  c #493222",
"7  c #4A3222",
"8  c #4A3322",
"9  c #4B3322",
"0  c #4A3323",
"q  c #4B3323",
"w  c #483121",
"e  c #4B3423",
"r  c #4C3423",
"t  c #4D3423",
"y  c #4C3523",
"u  c #483324",
"i  c #4A3425",
"p  c #4B3525",
"a  c #4C3424",
"s  c #4C3524",
"d  c #4D3524",
"f  c #4D3624",
"g  c #4D3625",
"h  c #4E3625",
"j  c #4E3725",
"k  c #4F3725",
"l  c #4C3526",
"z  c #4C3626",
"x  c #4D3626",
"c  c #4D3726",
"v  c #4E3726",
"b  c #4F3726",
"n  c #4E3727",
"m  c #4A3323",
"M  c #4F3827",
"N  c #4F3827",
"B  c #503725",
"V  c #503726",
"C  c #503726",
"Z  c #513825",
"A  c #503826",
"S  c #513826",
"D  c #503827",
"F  c #513827",
"G  c #513927",
"H  c #523927",
"J  c #533927",
"K  c #533A27",
"L  c #543A27",
"P  c #513927",
"I  c #503828",
"U  c #513928",
"Y  c #523928",
"T  c #523A28",
"R  c #533A28",
"E  c #523A29",
"W  c #533A29",
"Q  c #533B29",
"!  c #553B28",
"~  c #543B29",
"^  c #543B2A",
"/  c #563C28",
"(  c #543C2A",
")  c #553C2A",
"_  c #563C2A",
"`  c #563D2A",
"'  c #563D2B",
"]  c #573D2B",
"[  c #573E2B",
"{  c #543B29",
"}  c #583D29",
"|  c #593D2A",
" . c #593E2A",
".. c #583E2B",
"X. c #593F2B",
"o. c #583E2C",
"O. c #583F2C",
"+. c #593F2C",
"@. c #5A3F2C",
"#. c #593F2C",
"$. c #5A402C",
"%. c #5A402D",
"&. c #5B402D",
"*. c #5D402C",
"=. c #5C412D",
"-. c #5D412D",
";. c #5E422D",
":. c #5C412E",
">. c #5D412E",
",. c #5D422E",
"<. c #5E422E",
"1. c #5F422E",
"2. c #5E422F",
"3. c #5E432F",
"4. c #5F432F",
"5. c #5C412D",
"6. c #60432F",
"7. c #60442F",
"8. c #61442F",
"9. c #614430",
"0. c #614530",
"q. c #624530",
"w. c #634630",
"e. c #634631",
"r. c #644630",
"t. c #644731",
"y. c #664731",
"u. c #654732",
"i. c #634631",
"p. c #664832",
"a. c #674833",
"s. c #674933",
"d. c #684932",
"f. c #684933",
"g. c #684A33",
"h. c #694A33",
"j. c #694A34",
"k. c #6A4B34",
"l. c #6B4B34",
"z. c #6B4C35",
"x. c #6C4C35",
"c. c #6D4C35",
"v. c #6D4D36",
"b. c #6E4D36",
"n. c #6B4B34",
/* pixels */
"                                                                                                                                ",
"                                                                                                                                ",
"                                                                                                                                ",
"                                                                                                                                ",
"                                                                                                                                ",
"                                                                                                                                ",
"                                            * * *                 ; ;       ; ; ;                                               ",
"                                    *     * * * * *     *       ; ; ;     ; ; ; ; ;                                             ",
"                                  * *   * * * * * * * * *       ; ; ;   ; ; ; ; ; ;                                             ",
"                                  * * * * * * * * * * * *     ; ; ; ; ; ; ; : ; ; ;                                             ",
"                                  < , * * * * > > * * * * * ; ; ; ; ; ; ; , w < ; ; w                                           ",
"                                  1 1 > * * > 1 < * * * * * * ; ; : : ; , w T 1 : ; x '                                         ",
"                                ; < 1 1 > ; 1 1 < ; * * * * * ; : 1 1 : w ' ' e < , x '                                         ",
"                                ; < 1 1 , : 1 1 < ; * * * ; ; : w D x 1 x >.p.D 4 x T '                                         ",
"                                ; : < 1 , ; < 1 1 < , = * < 1 w >.>.T 4 x >.v.D w ' >.9.                                        ",
"                                : : , 1 < ; ; 1 4 1 1 , > x ..>.j.>.x 1 x >.d.D w o.p.v.                                        ",
"                                1 1 1 D w < : w x 1 : 1 x ~ 9.j.>.x 1 1 x ' ..w D d.6.o.                                        ",
"                                  < 1 e w < : e T 1 : < x T >.6.' w 1 x >.>.x 1 D v.>.T                                         ",
"                                  ; : < 1 < : w x 1 : : 1 D o.o.' e 4 D 9.7.4 1 L p.>.                                          ",
"                                  ; ; ; < 1 : 1 1 : ; , 1 D 9.j.o.e 1 2 D T 2 x ' o.                                            ",
"                                  < , ; < 1 < 1 < ; , 1 1 D t.v.o.e 1 1 x D 1 x >.t.                                            ",
"                                  1 1 : < 2 w 4 1 , 1 1 2 D 7.p.o.e 1 w D T w x ..d.                                            ",
"                                  1 1 : < w T w 1 1 1 1 2 D ' ' ' e 4 T ' ' T w e '                                             ",
"                                  1 1 ; < w ~ e 1 1 x e 1 w x ~ ' w 4 ~ 9.9.' D D T     w d.p.'                                 ",
"                                  1 1 , < w x 1 < 1 T V 1 4 T >.' T D ' p.z.' i M >.  1 w 7.>.D                                 ",
"                  1 , , 1 1 1     1 1 1 1 1 1 > ; 1 x x 4 T 9.j.$.9.p...t.d.T > 3 d.V 1 2 D x w ~                               ",
"                w , w 1 , 1 < ; 1 1 4 x w < ; * * > > 3 ~ p.t.>.p.9.$.' $.T < * 3 j.w , 1 4 1 w t...1                           ",
"              D w < 1 1 ; < 1 1 1 1 1 x w 1 > % # # # * 4 T ' $.v.9.~ ' x < $ @ > >.1 ; < 1 1 w >.~ w                           ",
"              1 1 1 : ;   ; 1 x 1 , : 1 1 1 1 % o o o @ & & < ' j.9.~ T , # o o * D 1 ; ;       1 x ~                           ",
"              : : :         , , : < < : < 1 : , & o X o O O # < ' $.x > # o o > x T             1 1 V j.' 1                     ",
"              , : ;           ; ; , < , 1 < ; 1 < & & & * * > < w o.$.3 > * = i o.'               1 w ..D e                     ",
"            , 1 < ;                 : 1 4 1 : 1 1 1 1 x o.' o.' 4 ..d...' ' o.' T                 1 1 w V ~                     ",
"            x 1 ; ; ;                 1 x x 1 1 1 : 1 ~ j.$.9.t.w x o.' ' >.j.D 1               1 1 y t.L V v.                  ",
"          D 1 : ; ; ; ;               < 2 e 1 , , < 1 D >.4 x >.w x o.9.>.T i 3 1               1 1 y ..V y ..                  ",
"        D w ; ; ;   ; ;               ; < 1 4 > = < 1 y M > < T w w ~ v.9.u * < w               1     1     1                   ",
"        : :   ; ;       ;             ; < w D > * = < x D > < ' T < < d.9.4 - 4 '               1     1       ; ;               ",
"        ; ;   ; ;                     ; : 1 w 1 > * = 3 T > < ~ 3 - > o.x > * 4 o.                    1                         ",
"        ; ;     ;                     ; ; : 4 4 , * & > 4 * - < & # = M < * > w D                     1                         ",
"      ;                                 ; < D e , * * * & + o O o o # i < > x w 1                                               ",
"                                        < 1 ~ T w , = % + o X X . . O % @ & D w 1                                               ",
"                                        1 w ~ T x 1 * # # o X O $ @ X . + > o.D w                                               ",
"                                        1 w D w 1 1 # % < # X @ 4 = X + > $.j.>.T                                               ",
"                                        1 1 < 1 1 1 , , 1 3 % + i = + < 4 V $.$.                                                ",
"                                        w < ; < 4 w 1 1 2 ~ 4 > w < > $.D 4 T                                                   ",
"                                      T w < : < e T < : 1 D 9.d.w w $.v.~ 4 T                                                   ",
"                                    1 4 < : 1 1 e T < : 1 D t.j.w e >.v.' 1 w D '                                               ",
"                                  1 1 < , < < < 1 1 < < 1 D >.>.w 4 D 9.' w 1 V '                                               ",
"                                1 1 < ; < < ; ; ; ; 1 1 2 T ' D w 2 w D T x 1 x T T                                             ",
"                          1 1 1 : : ; ; ; ; ;     ; 1 1 2 T x w D T D w 4 2 1 1 4 w D ' '                                       ",
"                      ; ; , < , ; ; ; ;             1 1 1 w w 1 D       1 1 1 1 1 1 w x e 4                                     ",
"                    ; ; ; ; ; ; ; ; ;               1 1 1 1 1 1           1 1 1 1 1 1 1 1 1                                     ",
"                                                                                                                                ",
"                                                                                                                                ",
"                                                                                                                                ",
"                                                                                                                                ",
"                                                                                                                                ",
"                                                                                                                                ",
"                                                                                                                                ",
"                                                                                                                                ",
"                                                                                                                                ",
"                                                                                                                                ",
"                                                                                                                                ",
"                                                                                                                                ",
"                                                                                                                                "
};
