/* XPM */
static char *bddb8115d96e4a9ad0a5c48cad061421XbqPWN3RiFUWmHqo[] = {
/* columns rows colors chars-per-pixel */
"64 64 146 2 ",
"   c None",
".  c #070605",
"X  c #090705",
"o  c #0C0907",
"O  c #0E0B08",
"+  c #130E0A",
"@  c #16100C",
"#  c #1C140E",
"$  c #1F1610",
"%  c #241A12",
"&  c #2A1D15",
"*  c #2E2017",
"=  c #2F2118",
"-  c #352214",
";  c #392517",
":  c #342419",
">  c #3B2718",
",  c #3D291B",
"<  c #3F2D20",
"1  c #432D1E",
"2  c #46301F",
"3  c #422E20",
"4  c #473223",
"5  c #463020",
"6  c #473020",
"7  c #483120",
"8  c #483121",
"9  c #483221",
"0  c #493221",
"q  c #493222",
"w  c #483223",
"e  c #493323",
"r  c #4A3322",
"t  c #4B3322",
"y  c #4A3323",
"u  c #4B3323",
"i  c #4B3423",
"p  c #4D3523",
"a  c #483324",
"s  c #493424",
"d  c #493425",
"f  c #4A3424",
"g  c #4C3424",
"h  c #4C3524",
"j  c #4D3524",
"k  c #4D3624",
"l  c #4D3625",
"z  c #4E3624",
"x  c #4E3625",
"c  c #4E3725",
"v  c #4F3725",
"b  c #4C3626",
"n  c #4E3726",
"m  c #4F3726",
"M  c #4B3423",
"N  c #4F3827",
"B  c #4F3828",
"V  c #503726",
"C  c #503726",
"Z  c #503826",
"A  c #503827",
"S  c #513827",
"D  c #513927",
"F  c #523826",
"G  c #523927",
"H  c #533A27",
"J  c #543A27",
"K  c #513827",
"L  c #503928",
"P  c #513928",
"I  c #523928",
"U  c #523A28",
"Y  c #533A28",
"T  c #523A29",
"R  c #533A29",
"E  c #533B29",
"W  c #543B29",
"Q  c #543B2A",
"!  c #553C29",
"~  c #563C28",
"^  c #573C29",
"/  c #553C2A",
"(  c #563C2A",
")  c #563D2A",
"_  c #563D2B",
"`  c #573D2B",
"'  c #573E2B",
"]  c #543B29",
"[  c #583E2A",
"{  c #583E2B",
"}  c #593E2B",
"|  c #5A3E2A",
" . c #5A3E2B",
".. c #5A3F2B",
"X. c #583E2C",
"o. c #593E2C",
"O. c #593F2C",
"+. c #5A3F2C",
"@. c #593F2B",
"#. c #5B402C",
"$. c #5A402D",
"%. c #5B402D",
"&. c #5B412D",
"*. c #5C402C",
"=. c #5C412D",
"-. c #5D412D",
";. c #5D422E",
":. c #5E422E",
">. c #5F432E",
",. c #5E432F",
"<. c #5F432F",
"1. c #5D422E",
"2. c #60432E",
"3. c #60432F",
"4. c #60442F",
"5. c #64452F",
"6. c #61442F",
"7. c #604430",
"8. c #614430",
"9. c #614530",
"0. c #624530",
"q. c #634630",
"w. c #634631",
"e. c #644630",
"r. c #644731",
"t. c #654731",
"y. c #654732",
"u. c #634631",
"i. c #664832",
"p. c #674832",
"a. c #674932",
"s. c #674933",
"d. c #674832",
"f. c #684932",
"g. c #684933",
"h. c #694A33",
"j. c #694A34",
"k. c #6A4A34",
"l. c #6A4B34",
"z. c #6B4C35",
"x. c #6C4C35",
"c. c #6D4D35",
"v. c #6D4D36",
"b. c #6E4E36",
"n. c #6F4E37",
"m. c #6A4B34",
/* pixels */
"                                                                                                                                ",
"                                                                                                                                ",
"                                                                                                                                ",
"                                                                                                                                ",
"                                                                                                                                ",
"                                                                                                                                ",
"                                  & & &                   - -     - - -                                                         ",
"                          &     & & & & &               - - -   - - - - -                                                       ",
"                          & &   & & & & & &   & &     - - - -   - - - - - -                                                     ",
"                          & & & & & & & & & & & &   - - - - - - - - ; - - -                                                     ",
"                          , : & & & & > : & & & & & - - - - - - - 1 q ; - , U                                                   ",
"                          1 , : & * > 1 > & & & & & - - - ; ; - 1 x D , - , U                                                   ",
"                        - 1 1 , * : 1 1 > - & & & & - - ; 1 , > D o.Q 2 > 1 U                                                   ",
"                        - 1 1 1 - , 1 1 > - & & & - - , x D q 1 U 0.0.q q D Q                                                   ",
"                        - > 1 1 ; ; , 1 , > : & - 1 1 D 0.$.x 6 U s.h.q x o.0.                                                  ",
"                        ; ; , 1 ; - ; 1 1 1 1 : , Q o.0.h.{ q 6 U 0.y.q x ;.j.                                                  ",
"                        1 1 q D 1 ; > x i 1 ; 6 U ` s.s.{ q 1 6 U o.Q 6 ;.h.$.                                                  ",
"                        1 , 1 x 2 > , U x , - 1 D ` ;.;.U 6 6 D 0.{ q 1 2.j.`                                                   ",
"                          - ; 1 1 > > x q , - , q ` o.o.U 6 q ` s.` 1 q ;.s.`                                                   ",
"                          - - ; 1 , ; 1 , - - , q ` s.y.U 6 1 q ` x 6 D ` o.                                                    ",
"                          , ; ; 1 1 , 1 ; - , 1 q ` z.h.Q 6 1 1 U i 6 Q 0.s.                                                    ",
"                          1 , ; 1 6 q 1 , > 1 1 q ` y.0.U 6 1 q U x q D 2.j.                                                    ",
"                          1 , ; 1 x D 1 1 1 1 1 q Q ` ` U 6 q Q ` ` D q D {                                                     ",
"                          1 , - 1 x U 6 1 q x q 1 q D ` U 6 q o.y.;.Q D U Q                                                     ",
"                          1 , > 1 i x , 1 q ` q 1 q { $.Q D U o.b.y.U s ` ;.                                                    ",
"                          1 1 1 1 1 , * : 6 D q q ` h.y.o.h.0.o.j.0.a : Q y.2 1 1                                               ",
"                    - ; 1 1 i x 6 > * & * : : q $.j.0.0.s.4.o.` ;.s : & ` 5., , q ` `                                           ",
"                    1 1 1 , 6 x 2 , * # # # # : x ` ` 0.b.$.` Q 6 * # # s { ; , q x x x                                         ",
"              1 1 1 x x 1 ; , 1 1 1 > @ o X X # % & 6 ;.j.$.U s * @ X + , x ; , 1 1 1 x {                                       ",
"          1 - - , 1 , ; ; , , ; 1 , ; : # . X o O + & 6 o.` 6 & + X + , U U         1 J s.x                                     ",
"        1 , 1 ; ; 1 ; - - , , , 1 > ; 1 - % % & & * : 3 x ;.U , * & : U o.            D { V q                                   ",
"      U 1 , x , -         - , 1 6 , ; 1 1 1 1 U o.` o.D q 0.0.` ` o.o.U                 1 x `                                   ",
"      6 1 , >               1 6 D q 1 1 , ; 1 2.s.o.s.;.6 Q o.` ` 0.y.q                 1 1 { h.q                               ",
"      > , >                   , q q 1 : > , 1 { ` 3 o.` 2 D ;.0.` B q 1                   1 p ` x                               ",
"      ; - -                   ; 1 6 1 : : 1 1 D 6 * a D q s ;.b.$., * 1                   1 q x Q                               ",
"    ; 1 > -                   ; 1 x D 1 : : 1 D 6 * a ` x : x b.o., : x                 1   s.j.  b.b.                          ",
"  q 6 , ; - -                 - ; 1 q 1 : & : x a = s N , & 3 $.3 * : U               1   1 x `   ` Q                           ",
"  D q ; - - -                 - - , q q , & & < , % , : $ $ , x = & , x             1     1 1 1   1 1                           ",
"Q 1 - -     -                   - 1 Q U q > & & % O O + O o * x : < D 6                   1 1   1                               ",
"1 ,   -                         , i U i q , & : & X . $ : + + & 3 U D 1                                                         ",
"-     - -                       1 x U 1 1 , : , > % o & x # O & q $.o.x                                                         ",
"-       - -                     1 x D 1 1 1 1 1 q x % & s # * U 6 { h.`                                                         ",
"  1 1                           1 1 , 1 x i > , q ` ` D q 3 ` y.q V ;.                                                          ",
"    1                           1 > - 1 p 6 - , q ` b.4.1 U ;.0.{ ` `                                                           ",
"                            U D 1 > ; 1 6 1 ; , q o.s.;.q U ` ;.h.;.U                                                           ",
"                          1 6 1 > , 1 1 x x 1 ; q s.Q ` y.o.;.s.D q q U                                                         ",
"                          1 1 , , , , , 1 6 1 , q 4.D D { V o.0.x 1 6 Q                                                         ",
"                          1 > ; 1 > - - - ; 1 1 q Q Q x 6 6 x U U q 6 D Q                                                       ",
"                        1 ; - - ; - -   - ; 1 1 q U q i U U x 6 6 1 1 6 x `                                                     ",
"                  1 1 1 > - -             > 1 1 6 i 2 1 , , , , 1 1 1 1 q x ` `                                                 ",
"                  1 1 , - -                 1 1 1 1 1 > & & & -     1 1 1 6 D U D                                               ",
"            - - - - - - -                     1 1 1       & & & -       1 1 2 2 1 1                                             ",
"                                                                                                                                ",
"                                                                                                                                ",
"                                                                                                                                ",
"                                                                                                                                ",
"                                                                                                                                ",
"                                                                                                                                ",
"                                                                                                                                ",
"                                                                                                                                ",
"                                                                                                                                ",
"                                                                                                                                ",
"                                                                                                                                ",
"                                                                                                                                "
};
